Anton.ufo
<glyph name="exclam" format="1">
  <advance width="558"/>
  <unicode hex="0021"/>
  <outline>
    <contour>
      <point x="120" y="0" type="line"/>
      <point x="438" y="0" type="line"/>
      <point x="438" y="298" type="line"/>
      <point x="120" y="298" type="line"/>
    </contour>
    <contour>
      <point x="190" y="447" type="line"/>
      <point x="378" y="447" type="line"/>
      <point x="458" y="1761" type="line"/>
      <point x="100" y="1761" type="line"/>
    </contour>
  </outline>
</glyph>
<glyph name="quotedbl" format="1">
  <advance width="944"/>
  <unicode hex="0022"/>
  <outline>
    <contour>
      <point x="536" y="1761" type="line"/>
      <point x="848" y="1761" type="line"/>
      <point x="782" y="1125" type="line"/>
      <point x="616" y="1125" type="line"/>
    </contour>
    <contour>
      <point x="96" y="1761" type="line"/>
      <point x="408" y="1761" type="line"/>
      <point x="342" y="1125" type="line"/>
      <point x="176" y="1125" type="line"/>
    </contour>
  </outline>
</glyph>
<glyph name="dollar" format="1">
  <advance width="946"/>
  <unicode hex="0024"/>
  <outline>
    <contour>
      <point x="590" y="1511" type="curve"/>
      <point x="590" y="1761" type="line"/>
      <point x="417" y="1761" type="line"/>
      <point x="417" y="1515" type="line"/>
      <point x="198.471" y="1494.84"/>
      <point x="77" y="1371.62"/>
      <point x="77" y="1127" type="curve" smooth="yes"/>
      <point x="77" y="943"/>
      <point x="127" y="855"/>
      <point x="248" y="752" type="curve"/>
      <point x="426" y="598" type="line" smooth="yes"/>
      <point x="515" y="522"/>
      <point x="546" y="501"/>
      <point x="546" y="371" type="curve" smooth="yes"/>
      <point x="546" y="293"/>
      <point x="526" y="263"/>
      <point x="475" y="263" type="curve" smooth="yes"/>
      <point x="416" y="263"/>
      <point x="396" y="304"/>
      <point x="396" y="372" type="curve" smooth="yes"/>
      <point x="396" y="505" type="line"/>
      <point x="73" y="505" type="line"/>
      <point x="73" y="432" type="line" smooth="yes"/>
      <point x="73" y="121"/>
      <point x="181" y="-3"/>
      <point x="417" y="-19" type="curve"/>
      <point x="417" y="-230" type="line"/>
      <point x="590" y="-230" type="line"/>
      <point x="590" y="-12" type="line"/>
      <point x="777" y="21"/>
      <point x="890" y="145"/>
      <point x="890" y="399" type="curve"/>
      <point x="889" y="627"/>
      <point x="804" y="725"/>
      <point x="660" y="852" type="curve" smooth="yes"/>
      <point x="467" y="1023" type="line" smooth="yes"/>
      <point x="429" y="1057"/>
      <point x="409" y="1102"/>
      <point x="409" y="1155" type="curve" smooth="yes"/>
      <point x="409" y="1205"/>
      <point x="428" y="1239"/>
      <point x="484" y="1239" type="curve" smooth="yes"/>
      <point x="539" y="1239"/>
      <point x="562" y="1207"/>
      <point x="562" y="1128" type="curve" smooth="yes"/>
      <point x="562" y="1035" type="line"/>
      <point x="863" y="1035" type="line"/>
      <point x="863" y="1132" type="line" smooth="yes"/>
      <point x="863" y="1379"/>
      <point x="776" y="1485"/>
    </contour>
  </outline>
</glyph>
<glyph name="ampersand" format="1">
  <advance width="1158"/>
  <unicode hex="0026"/>
  <outline>
    <contour>
      <point x="713.0" y="0.0" type="curve"/>
      <point x="1057.0" y="0.0" type="line"/>
      <point x="557.0" y="1348.0"/>
      <point x="551.0" y="1278.0"/>
      <point x="551.0" y="1441.0" type="curve" smooth="yes"/>
      <point x="551.0" y="1515.0"/>
      <point x="591.0" y="1552.0"/>
      <point x="636.0" y="1552.0" type="curve" smooth="yes"/>
      <point x="686.0" y="1552.0"/>
      <point x="715.0" y="1525.0"/>
      <point x="715.0" y="1427.0" type="curve" smooth="yes"/>
      <point x="715.0" y="1328.0"/>
      <point x="653.0" y="1239.0"/>
      <point x="607.0" y="1191.0" type="curve" smooth="yes"/>
      <point x="555.0" y="1138.0"/>
      <point x="374.0" y="996.0"/>
      <point x="364.0" y="988.0" type="curve" smooth="yes"/>
      <point x="191.0" y="845.0"/>
      <point x="84.0" y="706.0"/>
      <point x="84.0" y="397.0" type="curve" smooth="yes"/>
      <point x="84.0" y="140.0"/>
      <point x="197.0" y="-20.0"/>
      <point x="418.0" y="-20.0" type="curve" smooth="yes"/>
      <point x="785.0" y="-20.0"/>
      <point x="913.0" y="477.0"/>
      <point x="1128.0" y="690.0" type="curve"/>
      <point x="988.0" y="934.0" type="line"/>
      <point x="720.0" y="616.0"/>
      <point x="585.0" y="289.0"/>
      <point x="483.0" y="289.0" type="curve" smooth="yes"/>
      <point x="420.0" y="289.0"/>
      <point x="368.0" y="360.0"/>
      <point x="368.0" y="466.0" type="curve" smooth="yes"/>
      <point x="368.0" y="806.0"/>
      <point x="934.0" y="1025.0"/>
      <point x="934.0" y="1434.0" type="curve" smooth="yes"/>
      <point x="934.0" y="1657.0"/>
      <point x="783.0" y="1781.0"/>
      <point x="585.0" y="1781.0" type="curve" smooth="yes"/>
      <point x="384.0" y="1781.0"/>
      <point x="233.0" y="1648.0"/>
      <point x="233.0" y="1421.0" type="curve"/>
      <point x="233.0" y="1140.0"/>
      <point x="593.0" y="355.25"/>
    </contour>
  </outline>
</glyph>
<glyph name="quotesingle" format="1">
  <advance width="438"/>
  <unicode hex="0027"/>
  <outline>
    <contour>
      <point x="81" y="1761" type="line"/>
      <point x="141" y="1125" type="line"/>
      <point x="317" y="1125" type="line"/>
      <point x="382" y="1761" type="line"/>
    </contour>
  </outline>
</glyph>
<glyph name="asterisk" format="1">
  <advance width="960"/>
  <unicode hex="002A"/>
  <outline>
    <contour>
      <point x="364" y="741" type="line"/>
      <point x="596" y="741" type="line"/>
      <point x="560" y="1036" type="line"/>
      <point x="791" y="854" type="line"/>
      <point x="907" y="1054" type="line"/>
      <point x="632" y="1171" type="line"/>
      <point x="907" y="1280" type="line"/>
      <point x="791" y="1480" type="line"/>
      <point x="561" y="1307" type="line"/>
      <point x="596" y="1593" type="line"/>
      <point x="364" y="1593" type="line"/>
      <point x="407" y="1301" type="line"/>
      <point x="169" y="1480" type="line"/>
      <point x="53" y="1280" type="line"/>
      <point x="327" y="1171" type="line"/>
      <point x="53" y="1054" type="line"/>
      <point x="169" y="854" type="line"/>
      <point x="408" y="1043" type="line"/>
    </contour>
  </outline>
</glyph>
<glyph name="plus" format="1">
  <advance width="808"/>
  <unicode hex="002B"/>
  <outline>
    <contour>
      <point x="288" y="301" type="line"/>
      <point x="520" y="301" type="line"/>
      <point x="520" y="509" type="line"/>
      <point x="728" y="509" type="line"/>
      <point x="728" y="741" type="line"/>
      <point x="520" y="741" type="line"/>
      <point x="520" y="949" type="line"/>
      <point x="288" y="949" type="line"/>
      <point x="288" y="741" type="line"/>
      <point x="80" y="741" type="line"/>
      <point x="80" y="509" type="line"/>
      <point x="288" y="509" type="line"/>
    </contour>
  </outline>
</glyph>
<glyph name="comma" format="1">
  <advance width="528"/>
  <unicode hex="002C"/>
  <outline>
    <contour>
      <point x="176" y="-328" type="line"/>
      <point x="344" y="-328" type="line"/>
      <point x="446" y="9" type="line"/>
      <point x="446" y="318" type="line"/>
      <point x="115" y="318" type="line"/>
      <point x="115" y="0" type="line"/>
      <point x="242" y="0" type="line"/>
    </contour>
  </outline>
</glyph>
<glyph name="hyphen" format="1">
  <advance width="696"/>
  <unicode hex="002D"/>
  <outline>
    <contour>
      <point x="606" y="741" type="line"/>
      <point x="606" y="509" type="line"/>
      <point x="90" y="509" type="line"/>
      <point x="90" y="741" type="line"/>
    </contour>
  </outline>
</glyph>
<glyph name="period" format="1">
  <advance width="532"/>
  <unicode hex="002E"/>
  <outline>
    <contour>
      <point x="417" y="318" type="line"/>
      <point x="417" y="0" type="line"/>
      <point x="115" y="0" type="line"/>
      <point x="115" y="318" type="line"/>
    </contour>
  </outline>
</glyph>
<glyph name="slash" format="1">
  <advance width="890"/>
  <unicode hex="002F"/>
  <outline>
    <contour>
      <point x="494" y="1769" type="line"/>
      <point x="84" y="0" type="line"/>
      <point x="395" y="0" type="line"/>
      <point x="806" y="1769" type="line"/>
    </contour>
  </outline>
</glyph>
<glyph name="zero" format="1">
  <advance width="1153"/>
  <unicode hex="0030"/>
  <outline>
    <contour>
      <point x="571" y="294" type="curve" smooth="yes"/>
      <point x="489" y="294"/>
      <point x="465" y="358"/>
      <point x="465" y="470" type="curve" smooth="yes"/>
      <point x="465" y="1328" type="line" smooth="yes"/>
      <point x="465" y="1423"/>
      <point x="503" y="1466"/>
      <point x="571" y="1466" type="curve" smooth="yes"/>
      <point x="641" y="1466"/>
      <point x="671" y="1414"/>
      <point x="671" y="1327" type="curve" smooth="yes"/>
      <point x="671" y="470" type="line" smooth="yes"/>
      <point x="671" y="365"/>
      <point x="648" y="294"/>
    </contour>
    <contour>
      <point x="571" y="-21" type="curve" smooth="yes"/>
      <point x="859" y="-21"/>
      <point x="1031" y="162"/>
      <point x="1031" y="475" type="curve" smooth="yes"/>
      <point x="1031" y="1316" type="line" smooth="yes"/>
      <point x="1031" y="1619"/>
      <point x="853" y="1781"/>
      <point x="571" y="1781" type="curve" smooth="yes"/>
      <point x="289" y="1781"/>
      <point x="105" y="1619"/>
      <point x="105" y="1316" type="curve" smooth="yes"/>
      <point x="105" y="475" type="line" smooth="yes"/>
      <point x="105" y="162"/>
      <point x="283" y="-21"/>
    </contour>
  </outline>
</glyph>
<glyph name="one" format="1">
  <advance width="677"/>
  <unicode hex="0031"/>
  <outline>
    <contour>
      <point x="24" y="1260" type="line"/>
      <point x="98" y="1260"/>
      <point x="194" y="1289"/>
      <point x="242" y="1346" type="curve"/>
      <point x="242" y="0" type="line"/>
      <point x="602" y="0" type="line"/>
      <point x="602" y="1761" type="line"/>
      <point x="302" y="1761" type="line"/>
      <point x="246" y="1629"/>
      <point x="130" y="1556"/>
      <point x="24" y="1541" type="curve"/>
    </contour>
  </outline>
</glyph>
<glyph name="three" format="1">
  <advance width="1038"/>
  <unicode hex="0033"/>
  <outline>
    <contour>
      <point x="92" y="143"/>
      <point x="190" y="-20"/>
      <point x="501" y="-20" type="curve" smooth="yes"/>
      <point x="842" y="-20"/>
      <point x="960" y="178"/>
      <point x="960" y="530" type="curve" smooth="yes"/>
      <point x="960" y="766"/>
      <point x="920" y="889"/>
      <point x="770" y="962" type="curve"/>
      <point x="896" y="1007"/>
      <point x="956" y="1140"/>
      <point x="956" y="1313" type="curve" smooth="yes"/>
      <point x="956" y="1627"/>
      <point x="815" y="1780"/>
      <point x="515" y="1780" type="curve" smooth="yes"/>
      <point x="204" y="1780"/>
      <point x="91" y="1636"/>
      <point x="91" y="1313" type="curve" smooth="yes"/>
      <point x="91" y="1240" type="line"/>
      <point x="434" y="1240" type="line"/>
      <point x="434" y="1312" type="line" smooth="yes"/>
      <point x="434" y="1396"/>
      <point x="435" y="1467"/>
      <point x="529" y="1467" type="curve" smooth="yes"/>
      <point x="593" y="1467"/>
      <point x="611" y="1419"/>
      <point x="611" y="1311" type="curve" smooth="yes"/>
      <point x="611" y="1188"/>
      <point x="599" y="1070"/>
      <point x="485" y="1070" type="curve" smooth="yes"/>
      <point x="382" y="1070" type="line"/>
      <point x="382" y="807" type="line"/>
      <point x="488" y="807" type="line" smooth="yes"/>
      <point x="606" y="807"/>
      <point x="608" y="705"/>
      <point x="608" y="528" type="curve" smooth="yes"/>
      <point x="608" y="391"/>
      <point x="602" y="293"/>
      <point x="515" y="293" type="curve" smooth="yes"/>
      <point x="428" y="293"/>
      <point x="420" y="368"/>
      <point x="420" y="461" type="curve" smooth="yes"/>
      <point x="420" y="645" type="line"/>
      <point x="92" y="645" type="line"/>
      <point x="92" y="474" type="line" smooth="yes"/>
    </contour>
  </outline>
</glyph>
<glyph name="four" format="1">
  <advance width="1093"/>
  <unicode hex="0034"/>
  <outline>
    <contour>
      <point x="579" y="-1" type="line"/>
      <point x="939" y="-1" type="line"/>
      <point x="939" y="278" type="line"/>
      <point x="1018" y="278" type="line"/>
      <point x="1018" y="572" type="line"/>
      <point x="939" y="572" type="line"/>
      <point x="939" y="1761" type="line"/>
      <point x="500" y="1761" type="line"/>
      <point x="70" y="553" type="line"/>
      <point x="70" y="278" type="line"/>
      <point x="579" y="278" type="line"/>
    </contour>
    <contour>
      <point x="372" y="572" type="line"/>
      <point x="579" y="1239" type="line"/>
      <point x="579" y="572" type="line"/>
    </contour>
  </outline>
</glyph>
<glyph name="five" format="1">
  <advance width="1038"/>
  <unicode hex="0035"/>
  <outline>
    <contour>
      <point x="113" y="107"/>
      <point x="255" y="-20"/>
      <point x="526" y="-20" type="curve" smooth="yes"/>
      <point x="937" y="-20"/>
      <point x="967" y="245"/>
      <point x="967" y="668" type="curve" smooth="yes"/>
      <point x="967" y="987"/>
      <point x="929" y="1265"/>
      <point x="661" y="1265" type="curve" smooth="yes"/>
      <point x="564" y="1265"/>
      <point x="477" y="1224"/>
      <point x="447" y="1163" type="curve"/>
      <point x="447" y="1440" type="line"/>
      <point x="913" y="1440" type="line"/>
      <point x="913" y="1760" type="line"/>
      <point x="113" y="1760" type="line"/>
      <point x="113" y="825" type="line"/>
      <point x="436" y="825" type="line"/>
      <point x="436" y="922"/>
      <point x="461" y="970"/>
      <point x="528" y="970" type="curve" smooth="yes"/>
      <point x="611" y="970"/>
      <point x="614" y="889"/>
      <point x="614" y="803" type="curve" smooth="yes"/>
      <point x="614" y="466" type="line" smooth="yes"/>
      <point x="614" y="350"/>
      <point x="602" y="293"/>
      <point x="526" y="293" type="curve" smooth="yes"/>
      <point x="441" y="293"/>
      <point x="440" y="363"/>
      <point x="440" y="455" type="curve" smooth="yes"/>
      <point x="440" y="646" type="line"/>
      <point x="113" y="646" type="line"/>
      <point x="113" y="384" type="line" smooth="yes"/>
    </contour>
  </outline>
</glyph>
<glyph name="six" format="1">
  <advance width="1075"/>
  <unicode hex="0036"/>
  <outline>
    <contour>
      <point x="553" y="294" type="curve" smooth="yes"/>
      <point x="619" y="294"/>
      <point x="639" y="336"/>
      <point x="639" y="424" type="curve" smooth="yes"/>
      <point x="639" y="643" type="line" smooth="yes"/>
      <point x="639" y="739"/>
      <point x="612" y="787"/>
      <point x="558" y="787" type="curve" smooth="yes"/>
      <point x="496" y="787"/>
      <point x="465" y="745"/>
      <point x="465" y="662" type="curve" smooth="yes"/>
      <point x="465" y="424" type="line" smooth="yes"/>
      <point x="465" y="337"/>
      <point x="494" y="294"/>
    </contour>
    <contour>
      <point x="999" y="617" type="curve" smooth="yes"/>
      <point x="999" y="515" type="line" smooth="yes"/>
      <point x="999" y="157"/>
      <point x="894" y="-21"/>
      <point x="553" y="-21" type="curve" smooth="yes"/>
      <point x="186" y="-21"/>
      <point x="105" y="166"/>
      <point x="105" y="543" type="curve" smooth="yes"/>
      <point x="105" y="1239" type="line" smooth="yes"/>
      <point x="105" y="1677"/>
      <point x="288" y="1781"/>
      <point x="569" y="1781" type="curve" smooth="yes"/>
      <point x="791" y="1781"/>
      <point x="988" y="1698"/>
      <point x="988" y="1376" type="curve" smooth="yes"/>
      <point x="988" y="1233" type="line"/>
      <point x="632" y="1233" type="line"/>
      <point x="632" y="1279" type="line" smooth="yes"/>
      <point x="632" y="1403"/>
      <point x="626" y="1465"/>
      <point x="552" y="1465" type="curve" smooth="yes"/>
      <point x="473" y="1465"/>
      <point x="465" y="1402"/>
      <point x="465" y="1282" type="curve" smooth="yes"/>
      <point x="465" y="1024" type="line"/>
      <point x="503.071" y="1071.86"/>
      <point x="578.207" y="1103"/>
      <point x="684" y="1103" type="curve" smooth="yes"/>
      <point x="933" y="1103"/>
      <point x="999" y="924"/>
    </contour>
  </outline>
</glyph>
<glyph name="seven" format="1">
  <advance width="1038"/>
  <unicode hex="0037"/>
  <outline>
    <contour>
      <point x="331" y="0" type="curve" smooth="yes"/>
      <point x="564" y="1" type="line"/>
      <point x="587" y="368"/>
      <point x="674" y="676"/>
      <point x="779" y="946" type="curve" smooth="yes"/>
      <point x="850" y="1129"/>
      <point x="957" y="1292"/>
      <point x="979" y="1499" type="curve"/>
      <point x="979" y="1761" type="line"/>
      <point x="91" y="1761" type="line"/>
      <point x="91" y="1435" type="line"/>
      <point x="588" y="1435" type="line"/>
      <point x="575" y="1384"/>
      <point x="552" y="1313"/>
      <point x="519" y="1232" type="curve" smooth="yes"/>
      <point x="372" y="866"/>
      <point x="198" y="492"/>
      <point x="166" y="1" type="curve"/>
      <point x="194" y="1"/>
      <point x="302" y="0"/>
    </contour>
  </outline>
</glyph>
<glyph name="eight" format="1">
  <advance width="1019"/>
  <unicode hex="0038"/>
  <outline>
    <contour>
      <point x="66.5" y="1336" type="curve" smooth="yes"/>
      <point x="66.5" y="1648"/>
      <point x="210.5" y="1782"/>
      <point x="510.5" y="1782" type="curve" smooth="yes"/>
      <point x="818.5" y="1782"/>
      <point x="952.5" y="1659"/>
      <point x="952.5" y="1336" type="curve" smooth="yes"/>
      <point x="952.5" y="1189.78"/>
      <point x="921.059" y="1051.04"/>
      <point x="835.504" y="983.914" type="curve"/>
      <point x="912.032" y="920.951"/>
      <point x="952.5" y="819.345"/>
      <point x="952.5" y="666" type="curve" smooth="yes"/>
      <point x="952.5" y="466" type="line" smooth="yes"/>
      <point x="952.5" y="153"/>
      <point x="800.5" y="-21"/>
      <point x="512.5" y="-21" type="curve" smooth="yes"/>
      <point x="224.5" y="-21"/>
      <point x="66.5" y="153"/>
      <point x="66.5" y="466" type="curve" smooth="yes"/>
      <point x="66.5" y="666" type="line" smooth="yes"/>
      <point x="66.5" y="821.823"/>
      <point x="109.874" y="924.224"/>
      <point x="190.364" y="986.938" type="curve"/>
      <point x="105.669" y="1054.47"/>
      <point x="66.5" y="1191.34"/>
    </contour>
    <contour>
      <point x="510.5" y="1511" type="curve" smooth="yes"/>
      <point x="438.5" y="1511"/>
      <point x="426.5" y="1465"/>
      <point x="426.5" y="1290" type="curve" smooth="yes"/>
      <point x="426.5" y="1116"/>
      <point x="448.5" y="1073"/>
      <point x="510.5" y="1073" type="curve" smooth="yes"/>
      <point x="572.5" y="1073"/>
      <point x="592.5" y="1118"/>
      <point x="592.5" y="1290" type="curve" smooth="yes"/>
      <point x="592.5" y="1471"/>
      <point x="582.5" y="1511"/>
    </contour>
    <contour>
      <point x="426.5" y="674" type="curve" smooth="yes"/>
      <point x="426.5" y="457" type="line" smooth="yes"/>
      <point x="426.5" y="365"/>
      <point x="430.5" y="290"/>
      <point x="512.5" y="290" type="curve" smooth="yes"/>
      <point x="589.5" y="290"/>
      <point x="592.5" y="372"/>
      <point x="592.5" y="457" type="curve" smooth="yes"/>
      <point x="592.5" y="673" type="line" smooth="yes"/>
      <point x="592.5" y="740"/>
      <point x="582.5" y="812"/>
      <point x="512.5" y="812" type="curve" smooth="yes"/>
      <point x="444.5" y="812"/>
      <point x="426.5" y="749"/>
    </contour>
  </outline>
</glyph>
<glyph name="nine" format="1">
  <advance width="1080"/>
  <unicode hex="0039"/>
  <outline>
    <contour>
      <point x="532" y="1466" type="curve" smooth="yes"/>
      <point x="591" y="1466"/>
      <point x="615" y="1429"/>
      <point x="615" y="1342" type="curve" smooth="yes"/>
      <point x="615" y="1100" type="line" smooth="yes"/>
      <point x="615" y="1005"/>
      <point x="587" y="968"/>
      <point x="525" y="968" type="curve" smooth="yes"/>
      <point x="464" y="968"/>
      <point x="441" y="1011"/>
      <point x="441" y="1095" type="curve" smooth="yes"/>
      <point x="441" y="1336" type="line" smooth="yes"/>
      <point x="441" y="1424"/>
      <point x="466" y="1466"/>
    </contour>
    <contour>
      <point x="81" y="1151" type="line" smooth="yes"/>
      <point x="81" y="844"/>
      <point x="197" y="665"/>
      <point x="446" y="665" type="curve" smooth="yes"/>
      <point x="536" y="665"/>
      <point x="584" y="679"/>
      <point x="615" y="692" type="curve"/>
      <point x="615" y="478" type="line" smooth="yes"/>
      <point x="615" y="358"/>
      <point x="607" y="295"/>
      <point x="528" y="295" type="curve" smooth="yes"/>
      <point x="454" y="295"/>
      <point x="448" y="357"/>
      <point x="448" y="481" type="curve" smooth="yes"/>
      <point x="448" y="527" type="line"/>
      <point x="92" y="527" type="line"/>
      <point x="92" y="384" type="line" smooth="yes"/>
      <point x="92" y="62"/>
      <point x="289" y="-21"/>
      <point x="511" y="-21" type="curve" smooth="yes"/>
      <point x="792" y="-21"/>
      <point x="975" y="83"/>
      <point x="975" y="521" type="curve" smooth="yes"/>
      <point x="975" y="1217" type="line" smooth="yes"/>
      <point x="975" y="1615"/>
      <point x="903" y="1781"/>
      <point x="536" y="1781" type="curve" smooth="yes"/>
      <point x="195" y="1781"/>
      <point x="81" y="1603"/>
      <point x="81" y="1245" type="curve" smooth="yes"/>
    </contour>
  </outline>
</glyph>
<glyph name="less" format="1">
  <advance width="730"/>
  <unicode hex="003C"/>
  <outline>
    <contour>
      <point x="636" y="558" type="line"/>
      <point x="294" y="749" type="line"/>
      <point x="636" y="941" type="line"/>
      <point x="636" y="1300" type="line"/>
      <point x="66" y="959" type="line"/>
      <point x="66" y="545" type="line"/>
      <point x="636" y="200" type="line"/>
    </contour>
  </outline>
</glyph>
<glyph name="question" format="1">
  <advance width="1044"/>
  <unicode hex="003F"/>
  <outline>
    <contour>
      <point x="269" y="494" type="line"/>
      <point x="591" y="494" type="line"/>
      <point x="591" y="633" type="line"/>
      <point x="922" y="729"/>
      <point x="964" y="913"/>
      <point x="964" y="1259" type="curve" smooth="yes"/>
      <point x="964" y="1612"/>
      <point x="876" y="1781"/>
      <point x="521" y="1781" type="curve" smooth="yes"/>
      <point x="250" y="1781"/>
      <point x="91" y="1653"/>
      <point x="91" y="1384" type="curve" smooth="yes"/>
      <point x="91" y="1160" type="line"/>
      <point x="437" y="1160" type="line"/>
      <point x="437" y="1306" type="line" smooth="yes"/>
      <point x="437" y="1398"/>
      <point x="438" y="1466"/>
      <point x="525" y="1466" type="curve" smooth="yes"/>
      <point x="605" y="1466"/>
      <point x="603" y="1397"/>
      <point x="603" y="1310" type="curve" smooth="yes"/>
      <point x="603" y="968"/>
      <point x="582" y="870"/>
      <point x="269" y="810" type="curve"/>
    </contour>
    <contour>
      <point x="281" y="1" type="line"/>
      <point x="595" y="1" type="line"/>
      <point x="595" y="299" type="line"/>
      <point x="281" y="299" type="line"/>
    </contour>
  </outline>
</glyph>
<glyph name="A" format="1">
  <advance width="1103"/>
  <unicode hex="0041"/>
  <outline>
    <contour>
      <point x="477" y="565" type="line"/>
      <point x="550" y="1481" type="line"/>
      <point x="557" y="1481" type="line"/>
      <point x="637" y="565" type="line"/>
    </contour>
    <contour>
      <point x="68" y="0" type="line"/>
      <point x="430" y="0" type="line"/>
      <point x="452" y="281" type="line"/>
      <point x="664" y="281" type="line"/>
      <point x="689" y="0" type="line"/>
      <point x="1035" y="0" type="line"/>
      <point x="825" y="1761" type="line"/>
      <point x="274" y="1761" type="line"/>
    </contour>
  </outline>
</glyph>
<glyph name="B" format="1">
  <advance width="1084"/>
  <unicode hex="0042"/>
  <outline>
    <contour>
      <point x="114" y="0" type="line"/>
      <point x="570" y="0" type="line" smooth="yes"/>
      <point x="868" y="0"/>
      <point x="1021" y="141"/>
      <point x="1021" y="508" type="curve" smooth="yes"/>
      <point x="1021" y="564" type="line" smooth="yes"/>
      <point x="1021" y="776"/>
      <point x="952" y="929"/>
      <point x="794" y="969" type="curve"/>
      <point x="915" y="1001"/>
      <point x="980" y="1116"/>
      <point x="980" y="1281" type="curve" smooth="yes"/>
      <point x="980" y="1359" type="line" smooth="yes"/>
      <point x="980" y="1646"/>
      <point x="848" y="1760"/>
      <point x="592" y="1760" type="curve" smooth="yes"/>
      <point x="114" y="1760" type="line"/>
    </contour>
    <contour>
      <point x="474" y="270" type="line"/>
      <point x="474" y="818" type="line"/>
      <point x="550" y="818" type="line" smooth="yes"/>
      <point x="633" y="818"/>
      <point x="657" y="766"/>
      <point x="657" y="666" type="curve" smooth="yes"/>
      <point x="657" y="400" type="line" smooth="yes"/>
      <point x="657" y="314"/>
      <point x="611" y="270"/>
      <point x="520" y="270" type="curve" smooth="yes"/>
    </contour>
    <contour>
      <point x="474" y="1083" type="line"/>
      <point x="474" y="1490" type="line"/>
      <point x="548" y="1490" type="line" smooth="yes"/>
      <point x="598" y="1490"/>
      <point x="626" y="1462"/>
      <point x="626" y="1405" type="curve" smooth="yes"/>
      <point x="626" y="1214" type="line" smooth="yes"/>
      <point x="626" y="1143"/>
      <point x="611" y="1083"/>
      <point x="546" y="1083" type="curve" smooth="yes"/>
    </contour>
  </outline>
</glyph>
<glyph name="C" format="1">
  <advance width="1077"/>
  <unicode hex="0043"/>
  <outline>
    <contour>
      <point x="540" y="-21" type="curve" smooth="yes"/>
      <point x="820" y="-21"/>
      <point x="988" y="116"/>
      <point x="988" y="425" type="curve" smooth="yes"/>
      <point x="988" y="758" type="line"/>
      <point x="632" y="758" type="line"/>
      <point x="632" y="420" type="line" smooth="yes"/>
      <point x="632" y="341"/>
      <point x="605" y="294"/>
      <point x="545" y="294" type="curve" smooth="yes"/>
      <point x="491" y="294"/>
      <point x="466" y="339"/>
      <point x="466" y="414" type="curve" smooth="yes"/>
      <point x="466" y="1326" type="line" smooth="yes"/>
      <point x="466" y="1404"/>
      <point x="482" y="1466"/>
      <point x="552" y="1466" type="curve" smooth="yes"/>
      <point x="608" y="1466"/>
      <point x="632" y="1429"/>
      <point x="632" y="1324" type="curve" smooth="yes"/>
      <point x="632" y="1058" type="line"/>
      <point x="980" y="1058" type="line"/>
      <point x="980" y="1368" type="line" smooth="yes"/>
      <point x="980" y="1645"/>
      <point x="798" y="1781"/>
      <point x="548" y="1781" type="curve" smooth="yes"/>
      <point x="243" y="1781"/>
      <point x="106" y="1595"/>
      <point x="106" y="1254" type="curve" smooth="yes"/>
      <point x="106" y="436" type="line" smooth="yes"/>
      <point x="106" y="151"/>
      <point x="285" y="-21"/>
    </contour>
  </outline>
</glyph>
<glyph name="D" format="1">
  <advance width="1112"/>
  <unicode hex="0044"/>
  <outline>
    <contour>
      <point x="484" y="270" type="line"/>
      <point x="484" y="1490" type="line"/>
      <point x="523" y="1490" type="line" smooth="yes"/>
      <point x="623" y="1490"/>
      <point x="646" y="1440"/>
      <point x="646" y="1323" type="curve" smooth="yes"/>
      <point x="646" y="364" type="line" smooth="yes"/>
      <point x="646" y="301"/>
      <point x="612" y="270"/>
      <point x="545" y="270" type="curve" smooth="yes"/>
    </contour>
    <contour>
      <point x="124" y="0" type="line"/>
      <point x="603" y="0" type="line" smooth="yes"/>
      <point x="895" y="0"/>
      <point x="1006" y="189"/>
      <point x="1006" y="522" type="curve" smooth="yes"/>
      <point x="1006" y="1347" type="line" smooth="yes"/>
      <point x="1006" y="1617"/>
      <point x="868" y="1761"/>
      <point x="615" y="1761" type="curve" smooth="yes"/>
      <point x="124" y="1761" type="line"/>
    </contour>
  </outline>
</glyph>
<glyph name="E" format="1">
  <advance width="890"/>
  <unicode hex="0045"/>
  <outline>
    <contour>
      <point x="114" y="0" type="line"/>
      <point x="824" y="0" type="line"/>
      <point x="824" y="318" type="line"/>
      <point x="474" y="318" type="line"/>
      <point x="474" y="746" type="line"/>
      <point x="787" y="746" type="line"/>
      <point x="787" y="1065" type="line"/>
      <point x="474" y="1065" type="line"/>
      <point x="474" y="1440" type="line"/>
      <point x="801" y="1440" type="line"/>
      <point x="801" y="1760" type="line"/>
      <point x="114" y="1760" type="line"/>
    </contour>
    <contour>
      <point x="445" y="0" type="move" name="top"/>
    </contour>
    <contour>
      <point x="445" y="0" type="move" name="bottom"/>
    </contour>
    <contour>
      <point x="801" y="10" type="move" name="ogonek"/>
    </contour>
  </outline>
</glyph>
<glyph name="F" format="1">
  <advance width="873"/>
  <unicode hex="0046"/>
  <outline>
    <contour>
      <point x="114" y="0" type="line"/>
      <point x="474" y="0" type="line"/>
      <point x="474" y="778" type="line"/>
      <point x="797" y="778" type="line"/>
      <point x="797" y="1101" type="line"/>
      <point x="474" y="1101" type="line"/>
      <point x="474" y="1436" type="line"/>
      <point x="827" y="1436" type="line"/>
      <point x="827" y="1760" type="line"/>
      <point x="114" y="1760" type="line"/>
    </contour>
  </outline>
</glyph>
<glyph name="G" format="1">
  <advance width="1109"/>
  <unicode hex="0047"/>
  <outline>
    <contour>
      <point x="503" y="-21" type="curve" smooth="yes"/>
      <point x="634" y="-21"/>
      <point x="756" y="34"/>
      <point x="802" y="198" type="curve"/>
      <point x="862" y="0" type="line"/>
      <point x="999" y="0" type="line"/>
      <point x="999" y="1039" type="line"/>
      <point x="567" y="1039" type="line"/>
      <point x="567" y="741" type="line"/>
      <point x="677" y="741" type="line"/>
      <point x="677" y="505" type="line" smooth="yes"/>
      <point x="677" y="341"/>
      <point x="646" y="294"/>
      <point x="565" y="294" type="curve" smooth="yes"/>
      <point x="483" y="294"/>
      <point x="466" y="355"/>
      <point x="466" y="501" type="curve" smooth="yes"/>
      <point x="466" y="1288" type="line" smooth="yes"/>
      <point x="466" y="1416"/>
      <point x="497" y="1466"/>
      <point x="577" y="1466" type="curve" smooth="yes"/>
      <point x="642" y="1466"/>
      <point x="673" y="1434"/>
      <point x="673" y="1295" type="curve" smooth="yes"/>
      <point x="673" y="1181" type="line"/>
      <point x="999" y="1181" type="line"/>
      <point x="999" y="1288" type="line" smooth="yes"/>
      <point x="999" y="1625"/>
      <point x="900" y="1781"/>
      <point x="567" y="1781" type="curve" smooth="yes"/>
      <point x="279" y="1781"/>
      <point x="106" y="1621"/>
      <point x="106" y="1296" type="curve" smooth="yes"/>
      <point x="106" y="502" type="line" smooth="yes"/>
      <point x="106" y="139"/>
      <point x="249" y="-21"/>
    </contour>
  </outline>
</glyph>
<glyph name="H" format="1">
  <advance width="1130"/>
  <unicode hex="0048"/>
  <outline>
    <contour>
      <point x="648" y="0" type="line"/>
      <point x="1008" y="0" type="line"/>
      <point x="1008" y="1761" type="line"/>
      <point x="648" y="1761" type="line"/>
      <point x="648" y="1083" type="line"/>
      <point x="482" y="1083" type="line"/>
      <point x="482" y="1761" type="line"/>
      <point x="122" y="1761" type="line"/>
      <point x="122" y="0" type="line"/>
      <point x="482" y="0" type="line"/>
      <point x="482" y="781" type="line"/>
      <point x="648" y="781" type="line"/>
    </contour>
  </outline>
</glyph>
<glyph name="I" format="1">
  <advance width="588"/>
  <unicode hex="0049"/>
  <outline>
    <contour>
      <point x="114" y="0" type="line"/>
      <point x="474" y="0" type="line"/>
      <point x="474" y="1760" type="line"/>
      <point x="114" y="1760" type="line"/>
    </contour>
    <contour>
      <point x="294" y="0" type="move" name="top"/>
    </contour>
    <contour>
      <point x="529" y="10" type="move" name="ogonek"/>
    </contour>
  </outline>
</glyph>
<glyph name="J" format="1">
  <advance width="1049"/>
  <unicode hex="004A"/>
  <outline>
    <contour>
      <point x="560" y="1761" type="line"/>
      <point x="921" y="1761" type="line"/>
      <point x="921" y="440" type="line" smooth="yes"/>
      <point x="921" y="160"/>
      <point x="742" y="-21"/>
      <point x="491" y="-21" type="curve" smooth="yes"/>
      <point x="252" y="-21"/>
      <point x="61" y="124"/>
      <point x="61" y="389" type="curve" smooth="yes"/>
      <point x="61" y="830" type="line"/>
      <point x="403" y="830" type="line"/>
      <point x="403" y="402" type="line" smooth="yes"/>
      <point x="403" y="340"/>
      <point x="426" y="294"/>
      <point x="481" y="294" type="curve" smooth="yes"/>
      <point x="534" y="294"/>
      <point x="560" y="333"/>
      <point x="560" y="418" type="curve" smooth="yes"/>
    </contour>
  </outline>
</glyph>
<glyph name="K" format="1">
  <advance width="1084"/>
  <unicode hex="004B"/>
  <outline>
    <contour>
      <point x="114" y="0" type="line"/>
      <point x="476" y="0" type="line"/>
      <point x="476" y="792" type="line"/>
      <point x="695" y="0" type="line"/>
      <point x="1077" y="0" type="line"/>
      <point x="816" y="892" type="line"/>
      <point x="1053" y="1760" type="line"/>
      <point x="674" y="1760" type="line"/>
      <point x="474" y="995" type="line"/>
      <point x="474" y="1760" type="line"/>
      <point x="114" y="1760" type="line"/>
    </contour>
  </outline>
</glyph>
<glyph name="L" format="1">
  <advance width="834"/>
  <unicode hex="004C"/>
  <outline>
    <contour>
      <point x="114" y="0" type="line"/>
      <point x="834" y="0" type="line"/>
      <point x="834" y="313" type="line"/>
      <point x="474" y="313" type="line"/>
      <point x="474" y="1760" type="line"/>
      <point x="114" y="1760" type="line"/>
    </contour>
  </outline>
</glyph>
<glyph name="M" format="1">
  <advance width="1600"/>
  <unicode hex="004D"/>
  <outline>
    <contour>
      <point x="114" y="0" type="line"/>
      <point x="432" y="0" type="line"/>
      <point x="432" y="580" type="line"/>
      <point x="432" y="1099" type="line"/>
      <point x="677" y="15" type="line"/>
      <point x="929" y="15" type="line"/>
      <point x="1164" y="1099" type="line"/>
      <point x="1164" y="580" type="line"/>
      <point x="1164" y="0" type="line"/>
      <point x="1486" y="0" type="line"/>
      <point x="1486" y="1760" type="line"/>
      <point x="1035" y="1760" type="line"/>
      <point x="808" y="716" type="line"/>
      <point x="560" y="1760" type="line"/>
      <point x="114" y="1760" type="line"/>
    </contour>
  </outline>
</glyph>
<glyph name="N" format="1">
  <advance width="1148"/>
  <unicode hex="004E"/>
  <outline>
    <contour>
      <point x="124" y="0" type="line"/>
      <point x="454" y="0" type="line"/>
      <point x="454.0" y="430.0" type="line"/>
      <point x="454" y="860" type="line"/>
      <point x="716" y="0" type="line"/>
      <point x="1024" y="0" type="line"/>
      <point x="1024" y="1761" type="line"/>
      <point x="694" y="1761" type="line"/>
      <point x="694.0" y="1354.0" type="line"/>
      <point x="694" y="947" type="line"/>
      <point x="446" y="1761" type="line"/>
      <point x="124" y="1761" type="line"/>
    </contour>
  </outline>
</glyph>
<glyph name="O" format="1">
  <advance width="864"/>
  <unicode hex="004F"/>
  <outline>
    <contour>
      <point x="434" y="120" type="curve" smooth="yes"/>
      <point x="305" y="120"/>
      <point x="278" y="237"/>
      <point x="278" y="539" type="curve" smooth="yes"/>
      <point x="278" y="1189" type="line" smooth="yes"/>
      <point x="278" y="1491"/>
      <point x="305" y="1608"/>
      <point x="434" y="1608" type="curve" smooth="yes"/>
      <point x="563" y="1608"/>
      <point x="590" y="1491"/>
      <point x="590" y="1189" type="curve" smooth="yes"/>
      <point x="590" y="539" type="line" smooth="yes"/>
      <point x="590" y="237"/>
      <point x="563" y="120"/>
    </contour>
    <contour>
      <point x="434" y="-21" type="curve" smooth="yes"/>
      <point x="176" y="-21"/>
      <point x="110" y="177"/>
      <point x="110" y="540" type="curve" smooth="yes"/>
      <point x="110" y="1188" type="line" smooth="yes"/>
      <point x="110" y="1551"/>
      <point x="176" y="1749"/>
      <point x="434" y="1749" type="curve" smooth="yes"/>
      <point x="692" y="1749"/>
      <point x="758" y="1551"/>
      <point x="758" y="1188" type="curve" smooth="yes"/>
      <point x="758" y="540" type="line" smooth="yes"/>
      <point x="758" y="177"/>
      <point x="692" y="-21"/>
    </contour>
  </outline>
</glyph>
<glyph name="P" format="1">
  <advance width="1066"/>
  <unicode hex="0050"/>
  <outline>
    <contour>
      <point x="124" y="0" type="line"/>
      <point x="484" y="0" type="line"/>
      <point x="484" y="697" type="line"/>
      <point x="627" y="697" type="line" smooth="yes"/>
      <point x="919" y="697"/>
      <point x="1006" y="903"/>
      <point x="1006" y="1224" type="curve" smooth="yes"/>
      <point x="1006.0" y="1241.50968522"/>
      <point x="1005.75928455" y="1258.55311979"/>
      <point x="1005.27078446" y="1275.13575709" type="curve" smooth="yes"/>
      <point x="995.269316805" y="1614.64585055"/>
      <point x="881.402052969" y="1761.0"/>
      <point x="603" y="1761" type="curve" smooth="yes"/>
      <point x="124" y="1761" type="line"/>
    </contour>
    <contour>
      <point x="484" y="993" type="line"/>
      <point x="484" y="1490" type="line"/>
      <point x="523" y="1490" type="line" smooth="yes"/>
      <point x="627.686238289" y="1490.0"/>
      <point x="643.970998453" y="1405.03158899"/>
      <point x="645.800572527" y="1264.51425949" type="curve" smooth="yes"/>
      <point x="645.945869971" y="1253.35493604"/>
      <point x="646.0" y="1241.84527111"/>
      <point x="646" y="1230" type="curve" smooth="yes"/>
      <point x="646" y="1061"/>
      <point x="638" y="993"/>
      <point x="524" y="993" type="curve" smooth="yes"/>
    </contour>
  </outline>
</glyph>
<glyph name="Q" format="1">
  <advance width="1114"/>
  <unicode hex="0051"/>
  <outline>
    <contour>
      <point x="551" y="1466" type="curve" smooth="yes"/>
      <point x="483" y="1466"/>
      <point x="465" y="1398"/>
      <point x="465" y="1323" type="curve" smooth="yes"/>
      <point x="465" y="480" type="line" smooth="yes"/>
      <point x="465" y="388"/>
      <point x="469" y="294"/>
      <point x="551" y="294" type="curve" smooth="yes"/>
      <point x="628" y="294"/>
      <point x="631" y="395"/>
      <point x="631" y="480" type="curve" smooth="yes"/>
      <point x="631" y="1322" type="line" smooth="yes"/>
      <point x="631" y="1389"/>
      <point x="621" y="1466"/>
    </contour>
    <contour>
      <point x="897" y="-237" type="line"/>
      <point x="636" y="-15" type="line"/>
      <point x="609" y="-19"/>
      <point x="581" y="-21"/>
      <point x="551" y="-21" type="curve" smooth="yes"/>
      <point x="263" y="-21"/>
      <point x="105" y="162"/>
      <point x="105" y="475" type="curve" smooth="yes"/>
      <point x="105" y="1316" type="line" smooth="yes"/>
      <point x="105" y="1619"/>
      <point x="269" y="1781"/>
      <point x="551" y="1781" type="curve" smooth="yes"/>
      <point x="833" y="1781"/>
      <point x="991" y="1619"/>
      <point x="991" y="1316" type="curve" smooth="yes"/>
      <point x="991" y="475" type="line" smooth="yes"/>
      <point x="991" y="321"/>
      <point x="954" y="198"/>
      <point x="882" y="113" type="curve"/>
      <point x="1046" y="-28" type="line"/>
    </contour>
  </outline>
</glyph>
<glyph name="R" format="1">
  <advance width="1109"/>
  <unicode hex="0052"/>
  <outline>
    <contour>
      <point x="122" y="0" type="line"/>
      <point x="480" y="0" type="line"/>
      <point x="480" y="803" type="line"/>
      <point x="490.509636596" y="803.0"/>
      <point x="500.687238969" y="802.859523983"/>
      <point x="510.47363759" y="802.46167605" type="curve" smooth="yes"/>
      <point x="587.287290594" y="799.338959079"/>
      <point x="640.0" y="780.360294953"/>
      <point x="640" y="689" type="curve" smooth="yes"/>
      <point x="640" y="0" type="line"/>
      <point x="1001" y="0" type="line"/>
      <point x="1002" y="666" type="line" smooth="yes"/>
      <point x="1002" y="805"/>
      <point x="946" y="915"/>
      <point x="836" y="938" type="curve"/>
      <point x="970" y="982"/>
      <point x="994" y="1077"/>
      <point x="994" y="1269" type="curve" smooth="yes"/>
      <point x="994" y="1566"/>
      <point x="944" y="1761"/>
      <point x="674" y="1761" type="curve" smooth="yes"/>
      <point x="122" y="1761" type="line"/>
    </contour>
    <contour>
      <point x="482" y="1094" type="line"/>
      <point x="482" y="1490" type="line"/>
      <point x="515" y="1490" type="line" smooth="yes"/>
      <point x="630.243898153" y="1490.0"/>
      <point x="639.612449938" y="1444.21606644"/>
      <point x="639.987218488" y="1314.45450615" type="curve" smooth="yes"/>
      <point x="639.996181221" y="1311.35120887"/>
      <point x="640.0" y="1308.19988096"/>
      <point x="640" y="1305" type="curve" smooth="yes"/>
      <point x="640" y="1154"/>
      <point x="626" y="1094"/>
      <point x="550" y="1094" type="curve" smooth="yes"/>
    </contour>
  </outline>
</glyph>
<glyph name="S" format="1">
  <advance width="969"/>
  <unicode hex="0053"/>
  <outline>
    <contour>
      <point x="506" y="-20" type="curve" smooth="yes"/>
      <point x="822" y="-20"/>
      <point x="913" y="153"/>
      <point x="913" y="484" type="curve" smooth="yes"/>
      <point x="913" y="723"/>
      <point x="813" y="841"/>
      <point x="687" y="981" type="curve" smooth="yes"/>
      <point x="504" y="1185" type="line" smooth="yes"/>
      <point x="424" y="1275"/>
      <point x="412" y="1334"/>
      <point x="412" y="1383" type="curve" smooth="yes"/>
      <point x="412" y="1452"/>
      <point x="447" y="1474"/>
      <point x="492" y="1474" type="curve" smooth="yes"/>
      <point x="526" y="1474"/>
      <point x="575" y="1453"/>
      <point x="575" y="1361" type="curve" smooth="yes"/>
      <point x="575" y="1224" type="line"/>
      <point x="894" y="1224" type="line"/>
      <point x="894" y="1339" type="line" smooth="yes"/>
      <point x="894" y="1693"/>
      <point x="774" y="1781"/>
      <point x="497" y="1781" type="curve" smooth="yes"/>
      <point x="232" y="1781"/>
      <point x="79" y="1668"/>
      <point x="79" y="1355" type="curve" smooth="yes"/>
      <point x="79" y="1182"/>
      <point x="128" y="1038"/>
      <point x="247" y="909" type="curve" smooth="yes"/>
      <point x="398" y="746" type="line" smooth="yes"/>
      <point x="525" y="608"/>
      <point x="575" y="551"/>
      <point x="575" y="419" type="curve" smooth="yes"/>
      <point x="575" y="333"/>
      <point x="543" y="288"/>
      <point x="490" y="288" type="curve" smooth="yes"/>
      <point x="436" y="288"/>
      <point x="405" y="322"/>
      <point x="405" y="435" type="curve" smooth="yes"/>
      <point x="405" y="610" type="line"/>
      <point x="73" y="610" type="line"/>
      <point x="73" y="473" type="line" smooth="yes"/>
      <point x="73" y="123"/>
      <point x="200" y="-20"/>
    </contour>
  </outline>
</glyph>
<glyph name="T" format="1">
  <advance width="834"/>
  <unicode hex="0054"/>
  <outline>
    <contour>
      <point x="237" y="0" type="line"/>
      <point x="597" y="0" type="line"/>
      <point x="597" y="1439" type="line"/>
      <point x="802" y="1439" type="line"/>
      <point x="802" y="1761" type="line"/>
      <point x="32" y="1761" type="line"/>
      <point x="32" y="1439" type="line"/>
      <point x="237" y="1439" type="line"/>
    </contour>
  </outline>
</glyph>
<glyph name="U" format="1">
  <advance width="1104"/>
  <unicode hex="0055"/>
  <outline>
    <contour>
      <point x="553" y="-20" type="curve" smooth="yes"/>
      <point x="846" y="-20"/>
      <point x="1001" y="132"/>
      <point x="1001" y="452" type="curve" smooth="yes"/>
      <point x="1001" y="1761" type="line"/>
      <point x="641" y="1761" type="line"/>
      <point x="641" y="457" type="line" smooth="yes"/>
      <point x="641" y="368"/>
      <point x="632" y="293"/>
      <point x="551" y="293" type="curve" smooth="yes"/>
      <point x="471" y="293"/>
      <point x="463" y="369"/>
      <point x="463" y="457" type="curve" smooth="yes"/>
      <point x="463" y="1761" type="line"/>
      <point x="103" y="1761" type="line"/>
      <point x="103" y="452" type="line" smooth="yes"/>
      <point x="103" y="132"/>
      <point x="260" y="-20"/>
    </contour>
  </outline>
</glyph>
<glyph name="W" format="1">
  <advance width="1432"/>
  <unicode hex="0057"/>
  <outline>
    <contour>
      <point x="243" y="0" type="line"/>
      <point x="612" y="0" type="line"/>
      <point x="716" y="977" type="line"/>
      <point x="824" y="0" type="line"/>
      <point x="1186" y="0" type="line"/>
      <point x="1378" y="1760" type="line"/>
      <point x="1060" y="1760" type="line"/>
      <point x="966" y="649" type="line"/>
      <point x="862" y="1760" type="line"/>
      <point x="574" y="1760" type="line"/>
      <point x="465" y="649" type="line"/>
      <point x="368" y="1760" type="line"/>
      <point x="54" y="1760" type="line"/>
    </contour>
    <contour>
      <point x="716" y="0" type="move" name="top"/>
    </contour>
  </outline>
</glyph>
<glyph name="X" format="1">
  <advance width="983"/>
  <unicode hex="0058"/>
  <outline>
    <contour>
      <point x="364" y="0" type="line"/>
      <point x="506" y="516" type="line"/>
      <point x="675" y="0" type="line"/>
      <point x="982" y="0" type="line"/>
      <point x="672" y="918" type="line"/>
      <point x="943" y="1761" type="line"/>
      <point x="596" y="1761" type="line"/>
      <point x="475" y="1301" type="line"/>
      <point x="331" y="1761" type="line"/>
      <point x="36" y="1761" type="line"/>
      <point x="303" y="918" type="line"/>
      <point x="5" y="0" type="line"/>
    </contour>
  </outline>
</glyph>
<glyph name="Y" format="1">
  <advance width="901"/>
  <unicode hex="0059"/>
  <outline>
    <contour>
      <point x="271" y="0" type="line"/>
      <point x="631" y="0" type="line"/>
      <point x="631" y="649" type="line"/>
      <point x="907" y="1760" type="line"/>
      <point x="574" y="1760" type="line"/>
      <point x="459" y="1196" type="line"/>
      <point x="454" y="1196" type="line"/>
      <point x="331" y="1760" type="line"/>
      <point x="-6" y="1760" type="line"/>
      <point x="271" y="649" type="line"/>
    </contour>
  </outline>
</glyph>
<glyph name="backslash" format="1">
  <advance width="868"/>
  <unicode hex="005C"/>
  <outline>
    <contour>
      <point x="478" y="0" type="line"/>
      <point x="801" y="0" type="line"/>
      <point x="391" y="1761" type="line"/>
      <point x="67" y="1761" type="line"/>
    </contour>
  </outline>
</glyph>
<glyph name="bracketright" format="1">
  <advance width="764"/>
  <unicode hex="005D"/>
  <outline>
    <contour>
      <point x="88" y="281" type="line"/>
      <point x="286" y="281" type="line"/>
      <point x="286" y="1480" type="line"/>
      <point x="88" y="1480" type="line"/>
      <point x="88" y="1761" type="line"/>
      <point x="642" y="1761" type="line"/>
      <point x="642" y="0" type="line"/>
      <point x="88" y="0" type="line"/>
    </contour>
  </outline>
</glyph>
<glyph name="asciicircum" format="1">
  <advance width="1030"/>
  <unicode hex="005E"/>
  <outline>
    <contour>
      <point x="719" y="1499" type="line"/>
      <point x="311" y="1499" type="line"/>
      <point x="70" y="576" type="line"/>
      <point x="409" y="576" type="line"/>
      <point x="515" y="1211" type="line"/>
      <point x="621" y="576" type="line"/>
      <point x="960" y="576" type="line"/>
    </contour>
  </outline>
</glyph>
<glyph name="a" format="1">
  <advance width="1067"/>
  <unicode hex="0061"/>
  <outline>
    <contour>
      <point x="609" y="0" type="line"/>
      <point x="967" y="0" type="line"/>
      <point x="967" y="1143" type="line" smooth="yes"/>
      <point x="967" y="1387"/>
      <point x="783" y="1518"/>
      <point x="543" y="1518" type="curve" smooth="yes"/>
      <point x="237" y="1518"/>
      <point x="102" y="1403"/>
      <point x="102" y="1105" type="curve" smooth="yes"/>
      <point x="102" y="1056" type="line"/>
      <point x="451" y="1056" type="line"/>
      <point x="451" y="1146" type="line" smooth="yes"/>
      <point x="451" y="1199"/>
      <point x="470" y="1240"/>
      <point x="529" y="1240" type="curve"/>
      <point x="585" y="1240"/>
      <point x="602" y="1213"/>
      <point x="602" y="1123" type="curve" smooth="yes"/>
      <point x="602" y="377" type="line" smooth="yes"/>
      <point x="602" y="320"/>
      <point x="583" y="260"/>
      <point x="525" y="260" type="curve" smooth="yes"/>
      <point x="472" y="260"/>
      <point x="445" y="304"/>
      <point x="445" y="393" type="curve" smooth="yes"/>
      <point x="445" y="588" type="line" smooth="yes"/>
      <point x="445" y="702"/>
      <point x="515" y="760"/>
      <point x="610" y="800" type="curve"/>
      <point x="610" y="973" type="line"/>
      <point x="278" y="860"/>
      <point x="80" y="836"/>
      <point x="80" y="430" type="curve"/>
      <point x="80" y="406" type="line"/>
      <point x="84" y="162"/>
      <point x="142" y="-18"/>
      <point x="384" y="-18" type="curve" smooth="yes"/>
      <point x="487" y="-18"/>
      <point x="574" y="53"/>
      <point x="609" y="178" type="curve"/>
    </contour>
    <contour>
      <point x="534" y="0" type="move" name="top"/>
    </contour>
    <contour>
      <point x="960" y="10" type="move" name="ogonek"/>
    </contour>
  </outline>
</glyph>
<glyph name="b" format="1">
  <advance width="1087"/>
  <unicode hex="0062"/>
  <outline>
    <contour>
      <point x="677" y="-18" type="curve" smooth="yes"/>
      <point x="901" y="-18"/>
      <point x="993" y="160"/>
      <point x="993" y="391" type="curve" smooth="yes"/>
      <point x="993" y="1114" type="line" smooth="yes"/>
      <point x="993" y="1360"/>
      <point x="910" y="1519"/>
      <point x="666" y="1519" type="curve" smooth="yes"/>
      <point x="593" y="1519"/>
      <point x="526" y="1488"/>
      <point x="466" y="1427" type="curve"/>
      <point x="466" y="1769" type="line"/>
      <point x="110" y="1769" type="line"/>
      <point x="110" y="0" type="line"/>
      <point x="466" y="0" type="line"/>
      <point x="466" y="160" type="line"/>
      <point x="510" y="41"/>
      <point x="580" y="-18"/>
    </contour>
    <contour>
      <point x="560" y="263" type="curve" smooth="yes"/>
      <point x="477" y="263"/>
      <point x="466" y="349"/>
      <point x="466" y="457" type="curve" smooth="yes"/>
      <point x="466" y="1085" type="line" smooth="yes"/>
      <point x="466" y="1175"/>
      <point x="486" y="1239"/>
      <point x="558" y="1239" type="curve" smooth="yes"/>
      <point x="628" y="1239"/>
      <point x="637" y="1171"/>
      <point x="637" y="1081" type="curve" smooth="yes"/>
      <point x="637" y="457" type="line" smooth="yes"/>
      <point x="637" y="347"/>
      <point x="639" y="263"/>
    </contour>
  </outline>
</glyph>
<glyph name="c" format="1">
  <advance width="1041"/>
  <unicode hex="0063"/>
  <outline>
    <contour>
      <point x="549" y="-18" type="curve" smooth="yes"/>
      <point x="799" y="-18"/>
      <point x="957" y="130"/>
      <point x="957" y="379" type="curve" smooth="yes"/>
      <point x="957" y="614" type="line"/>
      <point x="619" y="614" type="line"/>
      <point x="619" y="389" type="line" smooth="yes"/>
      <point x="619" y="322"/>
      <point x="598" y="264"/>
      <point x="536" y="264" type="curve" smooth="yes"/>
      <point x="475" y="264"/>
      <point x="450" y="326"/>
      <point x="450" y="387" type="curve" smooth="yes"/>
      <point x="450" y="1114" type="line" smooth="yes"/>
      <point x="450" y="1197"/>
      <point x="479" y="1239"/>
      <point x="538" y="1239" type="curve" smooth="yes"/>
      <point x="605" y="1239"/>
      <point x="619" y="1185"/>
      <point x="619" y="1116" type="curve" smooth="yes"/>
      <point x="619" y="879" type="line"/>
      <point x="957" y="879" type="line"/>
      <point x="957" y="1135" type="line" smooth="yes"/>
      <point x="957" y="1380"/>
      <point x="796" y="1518"/>
      <point x="548" y="1518" type="curve" smooth="yes"/>
      <point x="191" y="1518"/>
      <point x="94" y="1330"/>
      <point x="94" y="954" type="curve" smooth="yes"/>
      <point x="94" y="492" type="line" smooth="yes"/>
      <point x="94" y="158"/>
      <point x="213" y="-18"/>
    </contour>
  </outline>
</glyph>
<glyph name="d" format="1">
  <advance width="1088"/>
  <unicode hex="0064"/>
  <outline>
    <contour>
      <point x="399" y="-18" type="curve" smooth="yes"/>
      <point x="524" y="-18"/>
      <point x="582" y="51"/>
      <point x="622" y="159" type="curve"/>
      <point x="622" y="0" type="line"/>
      <point x="978" y="0" type="line"/>
      <point x="978" y="1767" type="line"/>
      <point x="622" y="1767" type="line"/>
      <point x="622" y="1419" type="line"/>
      <point x="573" y="1485"/>
      <point x="500" y="1518"/>
      <point x="405" y="1518" type="curve" smooth="yes"/>
      <point x="200" y="1518"/>
      <point x="94" y="1357"/>
      <point x="94" y="1153" type="curve" smooth="yes"/>
      <point x="94" y="477" type="line" smooth="yes"/>
      <point x="94" y="201"/>
      <point x="122" y="-18"/>
    </contour>
    <contour>
      <point x="536" y="264" type="curve" smooth="yes"/>
      <point x="479" y="264"/>
      <point x="450" y="327"/>
      <point x="450" y="452" type="curve" smooth="yes"/>
      <point x="450" y="1083" type="line" smooth="yes"/>
      <point x="450" y="1160"/>
      <point x="461" y="1239"/>
      <point x="538" y="1239" type="curve" smooth="yes"/>
      <point x="608" y="1239"/>
      <point x="622" y="1153"/>
      <point x="622" y="1083" type="curve" smooth="yes"/>
      <point x="622" y="520" type="line" smooth="yes"/>
      <point x="622" y="422"/>
      <point x="634" y="264"/>
    </contour>
  </outline>
</glyph>
<glyph name="e" format="1">
  <advance width="1064"/>
  <unicode hex="0065"/>
  <outline>
    <contour>
      <point x="526" y="-18" type="curve" smooth="yes"/>
      <point x="866" y="-18"/>
      <point x="972" y="138"/>
      <point x="972" y="475" type="curve" smooth="yes"/>
      <point x="972" y="579" type="line"/>
      <point x="620" y="579" type="line"/>
      <point x="620" y="431" type="line" smooth="yes"/>
      <point x="620" y="343"/>
      <point x="624" y="260"/>
      <point x="538" y="260" type="curve" smooth="yes"/>
      <point x="458" y="260"/>
      <point x="452" y="346"/>
      <point x="452" y="427" type="curve" smooth="yes"/>
      <point x="452" y="717" type="line"/>
      <point x="972" y="717" type="line"/>
      <point x="972" y="1092" type="line" smooth="yes"/>
      <point x="972" y="1376"/>
      <point x="832" y="1518"/>
      <point x="544" y="1518" type="curve" smooth="yes"/>
      <point x="264" y="1518"/>
      <point x="94" y="1371"/>
      <point x="94" y="1092" type="curve" smooth="yes"/>
      <point x="94" y="489" type="line" smooth="yes"/>
      <point x="94" y="170"/>
      <point x="205" y="-18"/>
    </contour>
    <contour>
      <point x="450" y="895" type="line"/>
      <point x="450" y="1081" type="line" smooth="yes"/>
      <point x="450" y="1170"/>
      <point x="453" y="1249"/>
      <point x="540" y="1249" type="curve" smooth="yes"/>
      <point x="593" y="1249"/>
      <point x="620" y="1195"/>
      <point x="620" y="1087" type="curve" smooth="yes"/>
      <point x="620" y="895" type="line"/>
    </contour>
  </outline>
</glyph>
<glyph name="f" format="1">
  <advance width="658"/>
  <unicode hex="0066"/>
  <outline>
    <contour>
      <point x="134" y="0" type="line"/>
      <point x="488" y="0" type="line"/>
      <point x="488" y="1190" type="line"/>
      <point x="602" y="1190" type="line"/>
      <point x="602" y="1440" type="line"/>
      <point x="488" y="1440" type="line"/>
      <point x="488" y="1493" type="line" smooth="yes"/>
      <point x="488" y="1541"/>
      <point x="524" y="1551"/>
      <point x="559" y="1551" type="curve" smooth="yes"/>
      <point x="574" y="1551"/>
      <point x="590" y="1550"/>
      <point x="602" y="1548" type="curve"/>
      <point x="602" y="1749" type="line"/>
      <point x="556" y="1768"/>
      <point x="492" y="1788"/>
      <point x="415" y="1788" type="curve" smooth="yes"/>
      <point x="254" y="1788"/>
      <point x="136" y="1697"/>
      <point x="136" y="1536" type="curve" smooth="yes"/>
      <point x="136" y="1440" type="line"/>
      <point x="36" y="1440" type="line"/>
      <point x="36" y="1190" type="line"/>
      <point x="134" y="1190" type="line"/>
    </contour>
  </outline>
</glyph>
<glyph name="g" format="1">
  <advance width="1083"/>
  <unicode hex="0067"/>
  <outline>
    <contour>
      <point x="502" y="-220" type="curve" smooth="yes"/>
      <point x="839" y="-220"/>
      <point x="979" y="-86"/>
      <point x="979" y="254" type="curve" smooth="yes"/>
      <point x="979" y="1500" type="line"/>
      <point x="625" y="1500" type="line"/>
      <point x="625" y="1331" type="line"/>
      <point x="600" y="1444"/>
      <point x="528" y="1518"/>
      <point x="396" y="1518" type="curve" smooth="yes"/>
      <point x="161" y="1518"/>
      <point x="101" y="1348"/>
      <point x="101" y="1106" type="curve" smooth="yes"/>
      <point x="101" y="543" type="line" smooth="yes"/>
      <point x="101" y="328"/>
      <point x="181" y="160"/>
      <point x="396" y="160" type="curve" smooth="yes"/>
      <point x="519" y="160"/>
      <point x="596" y="211"/>
      <point x="625" y="314" type="curve"/>
      <point x="625" y="231" type="line" smooth="yes"/>
      <point x="625" y="113"/>
      <point x="570" y="33"/>
      <point x="455" y="33" type="curve" smooth="yes"/>
      <point x="368" y="33"/>
      <point x="280" y="59"/>
      <point x="193" y="111" type="curve"/>
      <point x="72" y="-96" type="line"/>
      <point x="189" y="-194"/>
      <point x="294" y="-220"/>
    </contour>
    <contour>
      <point x="541" y="430" type="curve" smooth="yes"/>
      <point x="467" y="430"/>
      <point x="459" y="510"/>
      <point x="459" y="582" type="curve" smooth="yes"/>
      <point x="459" y="1116" type="line" smooth="yes"/>
      <point x="459" y="1183"/>
      <point x="468" y="1240"/>
      <point x="537" y="1240" type="curve" smooth="yes"/>
      <point x="592" y="1240"/>
      <point x="625" y="1171"/>
      <point x="625" y="1116" type="curve" smooth="yes"/>
      <point x="625" y="582" type="line" smooth="yes"/>
      <point x="625" y="481"/>
      <point x="597" y="430"/>
    </contour>
  </outline>
</glyph>
<glyph name="h" format="1">
  <advance width="1099"/>
  <unicode hex="0068"/>
  <outline>
    <contour>
      <point x="558" y="1239" type="curve" smooth="yes"/>
      <point x="616" y="1239"/>
      <point x="638" y="1179"/>
      <point x="638" y="1120" type="curve" smooth="yes"/>
      <point x="638" y="0" type="line"/>
      <point x="994" y="0" type="line"/>
      <point x="994" y="1157" type="line" smooth="yes"/>
      <point x="994" y="1379"/>
      <point x="902" y="1518"/>
      <point x="694" y="1518" type="curve" smooth="yes"/>
      <point x="565" y="1518"/>
      <point x="494" y="1423"/>
      <point x="468" y="1309" type="curve"/>
      <point x="468" y="1769" type="line"/>
      <point x="112" y="1769" type="line"/>
      <point x="112" y="0" type="line"/>
      <point x="468" y="0" type="line"/>
      <point x="468" y="1055" type="line" smooth="yes"/>
      <point x="468" y="1138"/>
      <point x="475" y="1239"/>
    </contour>
  </outline>
</glyph>
<glyph name="i" format="1">
  <advance width="574"/>
  <unicode hex="0069"/>
  <outline>
    <contour>
      <point x="110" y="0" type="line"/>
      <point x="464" y="0" type="line"/>
      <point x="464" y="1500" type="line"/>
      <point x="110" y="1500" type="line"/>
    </contour>
    <contour>
      <point x="110" y="1600" type="line"/>
      <point x="464" y="1600" type="line"/>
      <point x="464" y="1800" type="line"/>
      <point x="110" y="1800" type="line"/>
    </contour>
  </outline>
</glyph>
<glyph name="j" format="1">
  <advance width="618"/>
  <unicode hex="006A"/>
  <outline>
    <contour>
      <point x="220" y="-176" type="curve" smooth="yes"/>
      <point x="426" y="-176"/>
      <point x="502" y="-47"/>
      <point x="502" y="166" type="curve" smooth="yes"/>
      <point x="502" y="1500" type="line"/>
      <point x="146" y="1500" type="line"/>
      <point x="146" y="156" type="line" smooth="yes"/>
      <point x="146" y="119"/>
      <point x="126" y="89"/>
      <point x="63" y="89" type="curve" smooth="yes"/>
      <point x="56" y="89"/>
      <point x="47" y="89"/>
      <point x="38" y="90" type="curve"/>
      <point x="38" y="-150" type="line"/>
      <point x="63" y="-167"/>
      <point x="143" y="-176"/>
    </contour>
    <contour>
      <point x="146" y="1600" type="line"/>
      <point x="502" y="1600" type="line"/>
      <point x="502" y="1800" type="line"/>
      <point x="146" y="1800" type="line"/>
    </contour>
  </outline>
</glyph>
<glyph name="k" format="1">
  <advance width="1045.0"/>
  <unicode hex="006B"/>
  <outline>
    <contour>
      <point x="682.0" y="0.0" type="line"/>
      <point x="1040.0" y="0.0" type="line"/>
      <point x="776.0" y="767.0" type="line"/>
      <point x="1024.0" y="1500.0" type="line"/>
      <point x="662.0" y="1500.0" type="line"/>
      <point x="662.0" y="1500.0"/>
      <point x="432.0" y="777.0"/>
      <point x="432.0" y="777.0" type="curve"/>
    </contour>
    <contour>
      <point x="110" y="0" type="line"/>
      <point x="464" y="0" type="line"/>
      <point x="464" y="1769" type="line"/>
      <point x="110" y="1769" type="line"/>
    </contour>
  </outline>
</glyph>
<glyph name="l" format="1">
  <advance width="594"/>
  <unicode hex="006C"/>
  <outline>
    <contour>
      <point x="115" y="1769" type="line"/>
      <point x="479" y="1769" type="line"/>
      <point x="479" y="0" type="line"/>
      <point x="115" y="0" type="line"/>
    </contour>
  </outline>
</glyph>
<glyph name="m" format="1">
  <advance width="1608.0"/>
  <unicode hex="006D"/>
  <outline>
    <contour>
      <point x="110" y="0" type="line"/>
      <point x="462" y="0" type="line"/>
      <point x="462" y="1059" type="line" smooth="yes"/>
      <point x="462" y="1140"/>
      <point x="483" y="1243"/>
      <point x="564" y="1243" type="curve" smooth="yes"/>
      <point x="627" y="1243"/>
      <point x="634" y="1165"/>
      <point x="634" y="1102" type="curve" smooth="yes"/>
      <point x="634" y="0" type="line"/>
      <point x="986" y="0" type="line"/>
      <point x="986" y="1095" type="line" smooth="yes"/>
      <point x="986" y="1430"/>
      <point x="879" y="1519"/>
      <point x="710" y="1519" type="curve" smooth="yes"/>
      <point x="560" y="1519"/>
      <point x="494" y="1448"/>
      <point x="462" y="1326" type="curve"/>
      <point x="462" y="1500" type="line"/>
      <point x="110" y="1500" type="line"/>
    </contour>
    <contour>
      <point x="1156.0" y="0.0" type="line"/>
      <point x="1508.0" y="0.0" type="line"/>
      <point x="1508.0" y="1096.0" type="line" smooth="yes"/>
      <point x="1508.0" y="1343.0"/>
      <point x="1453.0" y="1519.0"/>
      <point x="1204.0" y="1519.0" type="curve" smooth="yes"/>
      <point x="1066.0" y="1519.0"/>
      <point x="999.0" y="1462.0"/>
      <point x="944.0" y="1363.0" type="curve"/>
      <point x="944.0" y="1363.0"/>
      <point x="986.0" y="1077.0"/>
      <point x="986.0" y="1077.0" type="curve" smooth="yes"/>
      <point x="986.0" y="1154.0"/>
      <point x="1006.0" y="1247.0"/>
      <point x="1083.0" y="1247.0" type="curve" smooth="yes"/>
      <point x="1132.0" y="1247.0"/>
      <point x="1156.0" y="1199.0"/>
      <point x="1156.0" y="1102.0" type="curve" smooth="yes"/>
    </contour>
  </outline>
</glyph>
<glyph name="n" format="1">
  <advance width="1094"/>
  <unicode hex="006E"/>
  <outline>
    <contour>
      <point x="110" y="0" type="line"/>
      <point x="464" y="0" type="line"/>
      <point x="464" y="1055" type="line" smooth="yes"/>
      <point x="464" y="1138"/>
      <point x="475" y="1240"/>
      <point x="558" y="1240" type="curve" smooth="yes"/>
      <point x="616" y="1240"/>
      <point x="640" y="1179"/>
      <point x="640" y="1120" type="curve" smooth="yes"/>
      <point x="640" y="0" type="line"/>
      <point x="994" y="0" type="line"/>
      <point x="994" y="1157" type="line" smooth="yes"/>
      <point x="994" y="1379"/>
      <point x="912" y="1518"/>
      <point x="704" y="1518" type="curve" smooth="yes"/>
      <point x="575" y="1518"/>
      <point x="490" y="1423"/>
      <point x="464" y="1309" type="curve"/>
      <point x="464" y="1500" type="line"/>
      <point x="110" y="1500" type="line"/>
    </contour>
  </outline>
</glyph>
<glyph name="o" format="1">
  <advance width="1068"/>
  <unicode hex="006F"/>
  <outline>
    <contour>
      <point x="534" y="260" type="curve" smooth="yes"/>
      <point x="474" y="260"/>
      <point x="450" y="308"/>
      <point x="450" y="375" type="curve" smooth="yes"/>
      <point x="450" y="1108" type="line" smooth="yes"/>
      <point x="450" y="1195"/>
      <point x="478" y="1239"/>
      <point x="534" y="1239" type="curve" smooth="yes"/>
      <point x="590" y="1239"/>
      <point x="618" y="1195"/>
      <point x="618" y="1108" type="curve" smooth="yes"/>
      <point x="618" y="375" type="line" smooth="yes"/>
      <point x="618" y="308"/>
      <point x="594" y="260"/>
    </contour>
    <contour>
      <point x="534" y="-18" type="curve" smooth="yes"/>
      <point x="835" y="-18"/>
      <point x="974" y="143"/>
      <point x="974" y="449" type="curve" smooth="yes"/>
      <point x="974" y="1051" type="line" smooth="yes"/>
      <point x="974" y="1334"/>
      <point x="815" y="1518"/>
      <point x="534" y="1518" type="curve" smooth="yes"/>
      <point x="254" y="1518"/>
      <point x="94" y="1333"/>
      <point x="94" y="1051" type="curve" smooth="yes"/>
      <point x="94" y="449" type="line" smooth="yes"/>
      <point x="94" y="138"/>
      <point x="235" y="-18"/>
    </contour>
  </outline>
</glyph>
<glyph name="p" format="1">
  <advance width="1085"/>
  <unicode hex="0070"/>
  <outline>
    <contour>
      <point x="110" y="-300" type="line"/>
      <point x="466" y="-300" type="line"/>
      <point x="466" y="78" type="line"/>
      <point x="513" y="27"/>
      <point x="583" y="-18"/>
      <point x="673" y="-18" type="curve" smooth="yes"/>
      <point x="969" y="-18"/>
      <point x="991" y="225"/>
      <point x="991" y="521" type="curve" smooth="yes"/>
      <point x="991" y="1075" type="line" smooth="yes"/>
      <point x="991" y="1323"/>
      <point x="938" y="1518"/>
      <point x="690" y="1518" type="curve" smooth="yes"/>
      <point x="601" y="1518"/>
      <point x="504" y="1449"/>
      <point x="466" y="1349" type="curve"/>
      <point x="466" y="1500" type="line"/>
      <point x="110" y="1500" type="line"/>
    </contour>
    <contour>
      <point x="554" y="262" type="curve" smooth="yes"/>
      <point x="479" y="262"/>
      <point x="466" y="336"/>
      <point x="466" y="422" type="curve" smooth="yes"/>
      <point x="466" y="1079" type="line" smooth="yes"/>
      <point x="466" y="1183"/>
      <point x="496" y="1235"/>
      <point x="552" y="1235" type="curve" smooth="yes"/>
      <point x="629" y="1235"/>
      <point x="635" y="1152"/>
      <point x="635" y="1075" type="curve" smooth="yes"/>
      <point x="635" y="438" type="line" smooth="yes"/>
      <point x="635" y="346"/>
      <point x="627" y="262"/>
    </contour>
  </outline>
</glyph>
<glyph name="q" format="1">
  <advance width="1085"/>
  <unicode hex="0071"/>
  <outline>
    <contour>
      <point x="619" y="-300" type="line"/>
      <point x="975" y="-300" type="line"/>
      <point x="975" y="1500" type="line"/>
      <point x="619" y="1500" type="line"/>
      <point x="619" y="1389" type="line"/>
      <point x="581" y="1474"/>
      <point x="494" y="1518"/>
      <point x="404" y="1518" type="curve" smooth="yes"/>
      <point x="179" y="1518"/>
      <point x="94" y="1322"/>
      <point x="94" y="1075" type="curve" smooth="yes"/>
      <point x="94" y="482" type="line" smooth="yes"/>
      <point x="94" y="191"/>
      <point x="149" y="-18"/>
      <point x="414" y="-18" type="curve" smooth="yes"/>
      <point x="506" y="-18"/>
      <point x="592" y="35"/>
      <point x="619" y="100" type="curve"/>
    </contour>
    <contour>
      <point x="530" y="262" type="curve" smooth="yes"/>
      <point x="455" y="262"/>
      <point x="451" y="346"/>
      <point x="451" y="438" type="curve" smooth="yes"/>
      <point x="451" y="1075" type="line" smooth="yes"/>
      <point x="451" y="1152"/>
      <point x="453" y="1235"/>
      <point x="532" y="1235" type="curve" smooth="yes"/>
      <point x="588" y="1235"/>
      <point x="619" y="1183"/>
      <point x="619" y="1079" type="curve" smooth="yes"/>
      <point x="619" y="422" type="line" smooth="yes"/>
      <point x="619" y="335"/>
      <point x="606" y="262"/>
    </contour>
  </outline>
</glyph>
<glyph name="r" format="1">
  <advance width="759"/>
  <unicode hex="0072"/>
  <outline>
    <contour>
      <point x="470" y="1147" type="line" smooth="yes"/>
      <point x="470" y="1187"/>
      <point x="640" y="1219"/>
      <point x="728" y="1219" type="curve"/>
      <point x="728" y="1219"/>
      <point x="730" y="1518"/>
      <point x="725" y="1518" type="curve" smooth="yes"/>
      <point x="592" y="1518"/>
      <point x="504" y="1449"/>
      <point x="470" y="1333" type="curve"/>
      <point x="470" y="1500" type="line"/>
      <point x="112" y="1500" type="line"/>
      <point x="112" y="0" type="line"/>
      <point x="470" y="0" type="line"/>
    </contour>
  </outline>
</glyph>
<glyph name="s" format="1">
  <advance width="941"/>
  <unicode hex="0073"/>
  <outline>
    <contour>
      <point x="475" y="-21" type="curve" smooth="yes"/>
      <point x="199" y="-21"/>
      <point x="73" y="96"/>
      <point x="73" y="432" type="curve" smooth="yes"/>
      <point x="73" y="505" type="line"/>
      <point x="396" y="505" type="line"/>
      <point x="396" y="372" type="line" smooth="yes"/>
      <point x="396" y="304"/>
      <point x="416" y="263"/>
      <point x="475" y="263" type="curve" smooth="yes"/>
      <point x="526" y="263"/>
      <point x="546" y="293"/>
      <point x="546" y="371" type="curve" smooth="yes"/>
      <point x="546" y="501"/>
      <point x="515" y="522"/>
      <point x="426" y="598" type="curve" smooth="yes"/>
      <point x="248" y="752" type="line"/>
      <point x="127" y="855"/>
      <point x="77" y="943"/>
      <point x="77" y="1127" type="curve" smooth="yes"/>
      <point x="77" y="1394.18"/>
      <point x="224.678" y="1518"/>
      <point x="481" y="1518" type="curve" smooth="yes"/>
      <point x="742" y="1518"/>
      <point x="863" y="1423"/>
      <point x="863" y="1132" type="curve" smooth="yes"/>
      <point x="863" y="1035" type="line"/>
      <point x="562" y="1035" type="line"/>
      <point x="562" y="1128" type="line" smooth="yes"/>
      <point x="562" y="1207"/>
      <point x="539" y="1239"/>
      <point x="484" y="1239" type="curve" smooth="yes"/>
      <point x="428" y="1239"/>
      <point x="409" y="1205"/>
      <point x="409" y="1155" type="curve" smooth="yes"/>
      <point x="409" y="1102"/>
      <point x="429" y="1057"/>
      <point x="467" y="1023" type="curve" smooth="yes"/>
      <point x="660" y="852" type="line" smooth="yes"/>
      <point x="804" y="725"/>
      <point x="889" y="627"/>
      <point x="890" y="399" type="curve"/>
      <point x="890" y="396" type="line" smooth="yes"/>
      <point x="890" y="94"/>
      <point x="730" y="-21"/>
    </contour>
  </outline>
</glyph>
<glyph name="t" format="1">
  <advance width="693"/>
  <unicode hex="0074"/>
  <outline>
    <contour>
      <point x="395" y="-11" type="curve" smooth="yes"/>
      <point x="635" y="-11" type="line"/>
      <point x="635" y="250" type="line"/>
      <point x="536" y="250"/>
      <point x="503" y="262"/>
      <point x="503" y="326" type="curve" smooth="yes"/>
      <point x="503" y="1190" type="line"/>
      <point x="625" y="1190" type="line"/>
      <point x="625" y="1440" type="line"/>
      <point x="503" y="1440" type="line"/>
      <point x="503" y="1761" type="line"/>
      <point x="149" y="1761" type="line"/>
      <point x="149" y="1440" type="line"/>
      <point x="48" y="1440" type="line"/>
      <point x="48" y="1190" type="line"/>
      <point x="149" y="1190" type="line"/>
      <point x="149" y="238" type="line" smooth="yes"/>
      <point x="149" y="69"/>
      <point x="202" y="-11"/>
    </contour>
  </outline>
</glyph>
<glyph name="u" format="1">
  <advance width="1092"/>
  <unicode hex="0075"/>
  <outline>
    <contour>
      <point x="393" y="-18" type="curve" smooth="yes"/>
      <point x="529" y="-18"/>
      <point x="578" y="45"/>
      <point x="624" y="160" type="curve"/>
      <point x="624" y="0" type="line"/>
      <point x="982" y="0" type="line"/>
      <point x="982" y="1500" type="line"/>
      <point x="626" y="1500" type="line"/>
      <point x="624" y="443" type="line"/>
      <point x="624" y="360"/>
      <point x="623" y="264"/>
      <point x="540" y="264" type="curve" smooth="yes"/>
      <point x="452" y="264"/>
      <point x="460" y="342"/>
      <point x="460" y="455" type="curve" smooth="yes"/>
      <point x="460" y="1500" type="line"/>
      <point x="100" y="1500" type="line"/>
      <point x="100" y="383" type="line" smooth="yes"/>
      <point x="100" y="143"/>
      <point x="152" y="-18"/>
    </contour>
  </outline>
</glyph>
<glyph name="v" format="1">
  <advance width="962"/>
  <unicode hex="0076"/>
  <outline>
    <contour>
      <point x="592" y="1500" type="line"/>
      <point x="525" y="742" type="line"/>
      <point x="502" y="458" type="line"/>
      <point x="490" y="458" type="line"/>
      <point x="462" y="741" type="line"/>
      <point x="380" y="1500" type="line"/>
      <point x="45" y="1500" type="line"/>
      <point x="260" y="0" type="line"/>
      <point x="711" y="0" type="line"/>
      <point x="922" y="1500" type="line"/>
    </contour>
  </outline>
</glyph>
<glyph name="w" format="1">
  <advance width="1441"/>
  <unicode hex="0077"/>
  <outline>
    <contour>
      <point x="261" y="0" type="line"/>
      <point x="617" y="0" type="line"/>
      <point x="617" y="0"/>
      <point x="789" y="1500"/>
      <point x="789" y="1500" type="curve"/>
      <point x="558" y="1500" type="line"/>
      <point x="501" y="881" type="line"/>
      <point x="474" y="570" type="line"/>
      <point x="472" y="570" type="line"/>
      <point x="437" y="880" type="line"/>
      <point x="365" y="1500" type="line"/>
      <point x="52" y="1500" type="line"/>
    </contour>
    <contour>
      <point x="829" y="0" type="line"/>
      <point x="1185" y="0" type="line"/>
      <point x="1389" y="1500" type="line"/>
      <point x="1079" y="1500" type="line"/>
      <point x="1013" y="875" type="line"/>
      <point x="982" y="570" type="line"/>
      <point x="980" y="570" type="line"/>
      <point x="943" y="877" type="line"/>
      <point x="865" y="1500" type="line"/>
      <point x="651" y="1500" type="line"/>
    </contour>
  </outline>
</glyph>
<glyph name="x" format="1">
  <advance width="932"/>
  <unicode hex="0078"/>
  <outline>
    <contour>
      <point x="467" y="428" type="line"/>
      <point x="603" y="0" type="line"/>
      <point x="934" y="0" type="line"/>
      <point x="658" y="779" type="line"/>
      <point x="912" y="1501" type="line"/>
      <point x="588" y="1501" type="line"/>
      <point x="469" y="1058" type="line"/>
      <point x="351" y="1501" type="line"/>
      <point x="33" y="1501" type="line"/>
      <point x="279" y="783" type="line"/>
      <point x="-2" y="0" type="line"/>
      <point x="328" y="0" type="line"/>
    </contour>
  </outline>
</glyph>
<glyph name="y" format="1">
  <advance width="950"/>
  <unicode hex="0079"/>
  <outline>
    <contour>
      <point x="57" y="-250" type="line"/>
      <point x="461" y="-250" type="line" smooth="yes"/>
      <point x="590" y="-250"/>
      <point x="642" y="-192"/>
      <point x="658" y="-78" type="curve" smooth="yes"/>
      <point x="936" y="1501" type="line"/>
      <point x="599" y="1501" type="line"/>
      <point x="525" y="814" type="line"/>
      <point x="494" y="462" type="line"/>
      <point x="479" y="462" type="line"/>
      <point x="444" y="814" type="line"/>
      <point x="367" y="1501" type="line"/>
      <point x="30" y="1501" type="line"/>
      <point x="261" y="91" type="line" smooth="yes"/>
      <point x="264" y="69"/>
      <point x="266" y="52"/>
      <point x="266" y="39" type="curve" smooth="yes"/>
      <point x="266" y="-15"/>
      <point x="231" y="-23"/>
      <point x="169" y="-23" type="curve" smooth="yes"/>
      <point x="57" y="-23" type="line"/>
    </contour>
  </outline>
</glyph>
<glyph name="z" format="1">
  <advance width="821"/>
  <unicode hex="007A"/>
  <outline>
    <contour>
      <point x="745" y="294" type="line"/>
      <point x="745" y="0" type="line"/>
      <point x="75" y="0" type="line"/>
      <point x="75" y="272" type="line"/>
      <point x="405" y="1197" type="line"/>
      <point x="100" y="1197" type="line"/>
      <point x="100" y="1500" type="line"/>
      <point x="759" y="1500" type="line"/>
      <point x="759" y="1233" type="line"/>
      <point x="431" y="294" type="line"/>
    </contour>
  </outline>
</glyph>
<glyph name="braceleft" format="1">
  <advance width="798"/>
  <unicode hex="007B"/>
  <outline>
    <contour>
      <point x="85" y="696" type="curve"/>
      <point x="85" y="964" type="line"/>
      <point x="223" y="964"/>
      <point x="224" y="1035"/>
      <point x="224" y="1168" type="curve" smooth="yes"/>
      <point x="224" y="1443" type="line" smooth="yes"/>
      <point x="224" y="1705"/>
      <point x="355" y="1781"/>
      <point x="655" y="1781" type="curve" smooth="yes"/>
      <point x="715" y="1781" type="line"/>
      <point x="715" y="1534" type="line"/>
      <point x="595" y="1534"/>
      <point x="576" y="1501"/>
      <point x="576" y="1430" type="curve" smooth="yes"/>
      <point x="576" y="1184" type="line" smooth="yes"/>
      <point x="576" y="947"/>
      <point x="543" y="865"/>
      <point x="426" y="830" type="curve"/>
      <point x="543" y="795"/>
      <point x="576" y="713"/>
      <point x="576" y="476" type="curve" smooth="yes"/>
      <point x="576" y="230" type="line" smooth="yes"/>
      <point x="576" y="159"/>
      <point x="595" y="126"/>
      <point x="715" y="126" type="curve"/>
      <point x="715" y="-121" type="line"/>
      <point x="655" y="-121" type="line" smooth="yes"/>
      <point x="355" y="-121"/>
      <point x="224" y="-45"/>
      <point x="224" y="217" type="curve" smooth="yes"/>
      <point x="224" y="492" type="line" smooth="yes"/>
      <point x="224" y="625"/>
      <point x="223" y="696"/>
    </contour>
  </outline>
</glyph>
<glyph name="braceright" format="1">
  <advance width="798"/>
  <unicode hex="007D"/>
  <outline>
    <contour>
      <point x="715" y="964" type="line"/>
      <point x="577" y="964"/>
      <point x="576" y="1035"/>
      <point x="576" y="1168" type="curve" smooth="yes"/>
      <point x="576" y="1443" type="line" smooth="yes"/>
      <point x="576" y="1705"/>
      <point x="445" y="1781"/>
      <point x="145" y="1781" type="curve" smooth="yes"/>
      <point x="85" y="1781" type="line"/>
      <point x="85" y="1534" type="line"/>
      <point x="205" y="1534"/>
      <point x="224" y="1501"/>
      <point x="224" y="1430" type="curve" smooth="yes"/>
      <point x="224" y="1184" type="line" smooth="yes"/>
      <point x="224" y="947"/>
      <point x="257" y="865"/>
      <point x="374" y="830" type="curve"/>
      <point x="257" y="795"/>
      <point x="224" y="713"/>
      <point x="224" y="476" type="curve" smooth="yes"/>
      <point x="224" y="230" type="line" smooth="yes"/>
      <point x="224" y="159"/>
      <point x="205" y="126"/>
      <point x="85" y="126" type="curve"/>
      <point x="85" y="-121" type="line"/>
      <point x="145" y="-121" type="line" smooth="yes"/>
      <point x="445" y="-121"/>
      <point x="576" y="-45"/>
      <point x="576" y="217" type="curve" smooth="yes"/>
      <point x="576" y="492" type="line" smooth="yes"/>
      <point x="576" y="625"/>
      <point x="577" y="696"/>
      <point x="715" y="696" type="curve"/>
    </contour>
  </outline>
</glyph>
<glyph name="asciitilde" format="1">
  <advance width="1117"/>
  <unicode hex="007E"/>
  <outline>
    <contour>
      <point x="384.0" y="900.0" type="curve" smooth="yes"/>
      <point x="490" y="900"/>
      <point x="655" y="776"/>
      <point x="769" y="776" type="curve" smooth="yes"/>
      <point x="908" y="776"/>
      <point x="995" y="862"/>
      <point x="1021" y="1077" type="curve" smooth="yes"/>
      <point x="1033" y="1175" type="line"/>
      <point x="813" y="1217" type="line"/>
      <point x="786" y="1127"/>
      <point x="765" y="1114"/>
      <point x="741" y="1110" type="curve"/>
      <point x="735" y="1110" type="line" smooth="yes"/>
      <point x="671" y="1110"/>
      <point x="461" y="1222"/>
      <point x="357" y="1222" type="curve" smooth="yes"/>
      <point x="218" y="1222"/>
      <point x="134" y="1097"/>
      <point x="84" y="893" type="curve"/>
      <point x="289" y="807" type="line"/>
      <point x="316.940124512" y="871.383773804"/>
      <point x="325.484466553" y="900.0"/>
    </contour>
  </outline>
</glyph>
<glyph name="cent" format="1">
  <advance width="1048"/>
  <unicode hex="00A2"/>
  <outline>
    <contour>
      <point x="465.0" y="-228.0" type="line"/>
      <point x="636.0" y="-228.0" type="line"/>
      <point x="636.0" y="-13.0" type="line"/>
      <point x="842.0" y="15.0"/>
      <point x="978.0" y="157.0"/>
      <point x="978.0" y="379.0" type="curve" smooth="yes"/>
      <point x="978.0" y="614.0" type="line"/>
      <point x="623.0" y="614.0" type="line"/>
      <point x="624.0" y="389.0" type="line" smooth="yes"/>
      <point x="624.297851562" y="322.000976562"/>
      <point x="602" y="264"/>
      <point x="540" y="264" type="curve" smooth="yes"/>
      <point x="479" y="264"/>
      <point x="454" y="326"/>
      <point x="454" y="387" type="curve" smooth="yes"/>
      <point x="454" y="1114" type="line" smooth="yes"/>
      <point x="454" y="1197"/>
      <point x="483" y="1239"/>
      <point x="542" y="1239" type="curve" smooth="yes"/>
      <point x="609" y="1239"/>
      <point x="622" y="1185"/>
      <point x="622" y="1116" type="curve" smooth="yes"/>
      <point x="622" y="879" type="line"/>
      <point x="978" y="879" type="line"/>
      <point x="978" y="1135" type="line" smooth="yes"/>
      <point x="978" y="1351"/>
      <point x="839" y="1484"/>
      <point x="636" y="1512" type="curve"/>
      <point x="636" y="1769" type="line"/>
      <point x="465" y="1769" type="line"/>
      <point x="465" y="1514" type="line"/>
      <point x="179" y="1484"/>
      <point x="98" y="1297"/>
      <point x="98" y="954" type="curve" smooth="yes"/>
      <point x="98" y="492" type="line" smooth="yes"/>
      <point x="98" y="190"/>
      <point x="198" y="18"/>
      <point x="465" y="-13" type="curve"/>
    </contour>
  </outline>
</glyph>
<glyph name="ordfeminine" format="1">
  <advance width="927"/>
  <unicode hex="00AA"/>
  <outline>
    <contour>
      <point x="528" y="704" type="line" smooth="yes"/>
      <point x="528" y="659"/>
      <point x="514" y="611"/>
      <point x="468" y="611" type="curve" smooth="yes"/>
      <point x="425" y="611"/>
      <point x="404" y="646"/>
      <point x="404" y="716" type="curve" smooth="yes"/>
      <point x="404" y="855" type="line" smooth="yes"/>
      <point x="404" y="948"/>
      <point x="449" y="986"/>
      <point x="528" y="1017" type="curve"/>
    </contour>
    <contour>
      <point x="356.0" y="389.0" type="curve" smooth="yes"/>
      <point x="438" y="389"/>
      <point x="516" y="461"/>
      <point x="533" y="527" type="curve"/>
      <point x="533" y="403" type="line"/>
      <point x="815" y="403" type="line"/>
      <point x="815" y="1310" type="line" smooth="yes"/>
      <point x="815" y="1504.9283905"/>
      <point x="673.427902222" y="1607.0"/>
      <point x="482.0" y="1607.0" type="curve" smooth="yes"/>
      <point x="239.0" y="1607.0"/>
      <point x="132.0" y="1516.0"/>
      <point x="132.0" y="1280.0" type="curve" smooth="yes"/>
      <point x="132.0" y="1263.0"/>
      <point x="132.0" y="1250.0"/>
      <point x="133.0" y="1241.0" type="curve"/>
      <point x="409.0" y="1241.0" type="line"/>
      <point x="409.0" y="1321.0" type="line" smooth="yes"/>
      <point x="409.0" y="1364.0"/>
      <point x="429.0" y="1386.0"/>
      <point x="468.0" y="1386.0" type="curve" smooth="yes"/>
      <point x="544.0" y="1386.0"/>
      <point x="529.0" y="1259.0"/>
      <point x="529.0" y="1183.0" type="curve" smooth="yes"/>
      <point x="529.0" y="1181.0" type="line"/>
      <point x="263.0" y="1090.0"/>
      <point x="114.0" y="1068.0"/>
      <point x="114.0" y="744.0" type="curve" smooth="yes"/>
      <point x="114.0" y="541.0"/>
      <point x="158.0" y="389.0"/>
    </contour>
  </outline>
</glyph>
<glyph name="logicalnot" format="1">
  <advance width="947"/>
  <unicode hex="00AC"/>
  <outline>
    <contour>
      <point x="602" y="743" type="line"/>
      <point x="602" y="439" type="line"/>
      <point x="826" y="439" type="line"/>
      <point x="826" y="979" type="line"/>
      <point x="97" y="979" type="line"/>
      <point x="97" y="743" type="line"/>
    </contour>
  </outline>
</glyph>
<glyph name="uni00B9" format="1">
  <advance width="630"/>
  <unicode hex="00B9"/>
  <outline>
    <contour>
      <point x="55" y="1624" type="line"/>
      <point x="132" y="1624"/>
      <point x="285" y="1690"/>
      <point x="285" y="1760" type="curve"/>
      <point x="495" y="1760" type="line"/>
      <point x="495" y="681" type="line"/>
      <point x="217" y="681" type="line"/>
      <point x="217" y="1484" type="line"/>
      <point x="166" y="1462"/>
      <point x="112" y="1450"/>
      <point x="55" y="1450" type="curve"/>
    </contour>
  </outline>
</glyph>
<glyph name="guillemotright" format="1">
  <advance width="1304"/>
  <unicode hex="00BB"/>
  <outline>
    <contour>
      <point x="695" y="1230" type="line"/>
      <point x="695" y="871" type="line"/>
      <point x="1007" y="749" type="line"/>
      <point x="695" y="618" type="line"/>
      <point x="695" y="260" type="line"/>
      <point x="1205" y="545" type="line"/>
      <point x="1205" y="959" type="line"/>
    </contour>
    <contour>
      <point x="118" y="1230" type="line"/>
      <point x="118" y="871" type="line"/>
      <point x="430" y="749" type="line"/>
      <point x="118" y="618" type="line"/>
      <point x="118" y="260" type="line"/>
      <point x="628" y="545" type="line"/>
      <point x="628" y="959" type="line"/>
    </contour>
  </outline>
</glyph>
<glyph name="onequarter" format="1">
  <advance width="1535"/>
  <unicode hex="00BC"/>
  <outline>
    <contour>
      <point x="1193" y="-1" type="line"/>
      <point x="1400" y="-1" type="line"/>
      <point x="1400" y="151" type="line"/>
      <point x="1439" y="151" type="line"/>
      <point x="1439" y="322" type="line"/>
      <point x="1400" y="322" type="line"/>
      <point x="1400" y="941" type="line"/>
      <point x="1077" y="941" type="line"/>
      <point x="890" y="300" type="line"/>
      <point x="890" y="151" type="line"/>
      <point x="1193" y="151" type="line"/>
    </contour>
    <contour>
      <point x="205" y="656" type="line"/>
      <point x="435" y="656" type="line"/>
      <point x="435" y="1607" type="line"/>
      <point x="256" y="1607" type="line"/>
      <point x="256" y="1545"/>
      <point x="140" y="1487"/>
      <point x="82" y="1487" type="curve"/>
      <point x="82" y="1334" type="line"/>
      <point x="125" y="1334"/>
      <point x="166" y="1344"/>
      <point x="205" y="1364" type="curve"/>
    </contour>
    <contour>
      <point x="373" y="0" type="line"/>
      <point x="616" y="0" type="line"/>
      <point x="1147" y="1767" type="line"/>
      <point x="903" y="1767" type="line"/>
    </contour>
    <contour>
      <point x="1083" y="322" type="line"/>
      <point x="1193" y="767" type="line"/>
      <point x="1193" y="322" type="line"/>
    </contour>
  </outline>
</glyph>
<glyph name="questiondown" format="1">
  <advance width="1044"/>
  <unicode hex="00BF"/>
  <outline>
    <contour>
      <point x="534" y="-278" type="curve" smooth="yes"/>
      <point x="805" y="-278"/>
      <point x="964" y="-150"/>
      <point x="964" y="119" type="curve" smooth="yes"/>
      <point x="964" y="343" type="line"/>
      <point x="618" y="343" type="line"/>
      <point x="618" y="197" type="line" smooth="yes"/>
      <point x="618" y="105"/>
      <point x="617" y="37"/>
      <point x="530" y="37" type="curve" smooth="yes"/>
      <point x="450" y="37"/>
      <point x="452" y="106"/>
      <point x="452" y="193" type="curve" smooth="yes"/>
      <point x="452" y="535"/>
      <point x="473" y="633"/>
      <point x="786" y="693" type="curve"/>
      <point x="786" y="1009" type="line"/>
      <point x="464" y="1009" type="line"/>
      <point x="464" y="870" type="line"/>
      <point x="133" y="774"/>
      <point x="91" y="590"/>
      <point x="91" y="244" type="curve" smooth="yes"/>
      <point x="91" y="-109"/>
      <point x="179" y="-278"/>
    </contour>
    <contour>
      <point x="460" y="1204" type="line"/>
      <point x="774" y="1204" type="line"/>
      <point x="774" y="1502" type="line"/>
      <point x="460" y="1502" type="line"/>
    </contour>
  </outline>
</glyph>
<glyph name="Aring" format="1">
  <advance width="1103"/>
  <unicode hex="00C5"/>
  <outline>
    <contour>
      <point x="68.0" y="0.0" type="line"/>
      <point x="430.0" y="0.0" type="line"/>
      <point x="452.0" y="281.0" type="line"/>
      <point x="664.0" y="281.0" type="line"/>
      <point x="689.0" y="0.0" type="line"/>
      <point x="1035.0" y="0.0" type="line"/>
      <point x="825.0" y="1761.0" type="line"/>
      <point x="274.0" y="1761.0" type="line"/>
    </contour>
    <contour>
      <point x="477.0" y="565.0" type="line"/>
      <point x="550.0" y="1481.0" type="line"/>
      <point x="557.0" y="1481.0" type="line"/>
      <point x="637.0" y="565.0" type="line"/>
    </contour>
    <contour>
      <point x="552.26953125" y="2008.23730469" type="curve" smooth="yes"/>
      <point x="461.666015625" y="2008.23730469"/>
      <point x="416.57421875" y="2084.19824219"/>
      <point x="416.57421875" y="2160.203125" type="curve" smooth="yes"/>
      <point x="416.57421875" y="2236.29199219"/>
      <point x="461.766601562" y="2312.42285156"/>
      <point x="551.73046875" y="2312.42285156" type="curve" smooth="yes"/>
      <point x="642.333984375" y="2312.42285156"/>
      <point x="687.42578125" y="2236.4609375"/>
      <point x="687.42578125" y="2160.45703125" type="curve" smooth="yes"/>
      <point x="687.42578125" y="2084.36816406"/>
      <point x="642.233398438" y="2008.23730469"/>
    </contour>
    <contour>
      <point x="551" y="1880.33007812" type="curve" smooth="yes"/>
      <point x="722" y="1880.33007812"/>
      <point x="834" y="1991.33007812"/>
      <point x="834" y="2160.33007812" type="curve" smooth="yes"/>
      <point x="834" y="2329.33007812"/>
      <point x="722" y="2440.33007812"/>
      <point x="551" y="2440.33007812" type="curve" smooth="yes"/>
      <point x="380" y="2440.33007812"/>
      <point x="269" y="2329.33007812"/>
      <point x="269" y="2160.33007812" type="curve" smooth="yes"/>
      <point x="269" y="1990.33007812"/>
      <point x="380" y="1880.33007812"/>
    </contour>
  </outline>
</glyph>
<glyph name="Aring" format="1">
  <advance width="1103"/>
  <unicode hex="00C5"/>
  <outline>
    <contour>
      <point x="68" y="0" type="line"/>
      <point x="430" y="0" type="line"/>
      <point x="452" y="281" type="line"/>
      <point x="664" y="281" type="line"/>
      <point x="689" y="0" type="line"/>
      <point x="1035" y="0" type="line"/>
      <point x="825" y="1761" type="line"/>
      <point x="274" y="1761" type="line"/>
    </contour>
    <contour>
      <point x="477" y="565" type="line"/>
      <point x="550" y="1481" type="line"/>
      <point x="557" y="1481" type="line"/>
      <point x="637" y="565" type="line"/>
    </contour>
    <contour>
      <point x="687.426" y="2084.37"/>
      <point x="642.233" y="2008.24"/>
      <point x="552.27" y="2008.24" type="curve" smooth="yes"/>
      <point x="461.666" y="2008.24"/>
      <point x="416.574" y="2084.2"/>
      <point x="416.574" y="2160.2" type="curve" smooth="yes"/>
      <point x="416.574" y="2236.29"/>
      <point x="461.767" y="2312.42"/>
      <point x="551.73" y="2312.42" type="curve" smooth="yes"/>
      <point x="642.334" y="2312.42"/>
      <point x="687.426" y="2236.46"/>
      <point x="687.426" y="2160.46" type="curve" smooth="yes"/>
    </contour>
    <contour>
      <point x="269" y="1990.33"/>
      <point x="380" y="1880.33"/>
      <point x="551" y="1880.33" type="curve" smooth="yes"/>
      <point x="722" y="1880.33"/>
      <point x="834" y="1991.33"/>
      <point x="834" y="2160.33" type="curve" smooth="yes"/>
      <point x="834" y="2329.33"/>
      <point x="722" y="2440.33"/>
      <point x="551" y="2440.33" type="curve" smooth="yes"/>
      <point x="380" y="2440.33"/>
      <point x="269" y="2329.33"/>
      <point x="269" y="2160.33" type="curve" smooth="yes"/>
    </contour>
  </outline>
</glyph>
<glyph name="Eacute" format="1">
  <advance width="894"/>
  <unicode hex="00C9"/>
  <outline>
    <contour>
      <point x="122" y="0" type="line"/>
      <point x="806" y="0" type="line"/>
      <point x="806" y="318" type="line"/>
      <point x="482" y="318" type="line"/>
      <point x="482" y="746" type="line"/>
      <point x="769" y="746" type="line"/>
      <point x="769" y="1065" type="line"/>
      <point x="482" y="1065" type="line"/>
      <point x="482" y="1440" type="line"/>
      <point x="783" y="1440" type="line"/>
      <point x="783" y="1761" type="line"/>
      <point x="122" y="1761" type="line"/>
    </contour>
    <contour>
      <point x="226.5" y="1944" type="line"/>
      <point x="701.5" y="2038" type="line"/>
      <point x="701.5" y="2385" type="line"/>
      <point x="226.5" y="2167" type="line"/>
    </contour>
  </outline>
</glyph>
<glyph name="Icircumflex" format="1">
  <advance width="616"/>
  <unicode hex="00CE"/>
  <outline>
    <contour>
      <point x="512" y="2347" type="line"/>
      <point x="104" y="2347" type="line"/>
      <point x="-137" y="1944" type="line"/>
      <point x="222" y="1944" type="line"/>
      <point x="308" y="2229" type="line"/>
      <point x="394" y="1944" type="line"/>
      <point x="753" y="1944" type="line"/>
    </contour>
    <contour>
      <point x="488" y="1761" type="line"/>
      <point x="128" y="1761" type="line"/>
      <point x="128" y="0" type="line"/>
      <point x="488" y="0" type="line"/>
    </contour>
  </outline>
</glyph>
<glyph name="Ntilde" format="1">
  <advance width="1144"/>
  <unicode hex="00D1"/>
  <outline>
    <contour>
      <point x="735.5" y="1944" type="curve" smooth="yes"/>
      <point x="843.5" y="1944"/>
      <point x="911.5" y="2001"/>
      <point x="931.5" y="2144" type="curve" smooth="yes"/>
      <point x="940.5" y="2209" type="line"/>
      <point x="769.5" y="2237" type="line"/>
      <point x="748.5" y="2177"/>
      <point x="732.5" y="2169"/>
      <point x="713.5" y="2166" type="curve"/>
      <point x="709.5" y="2166" type="line" smooth="yes"/>
      <point x="659.5" y="2166"/>
      <point x="496.5" y="2240"/>
      <point x="415.5" y="2240" type="curve" smooth="yes"/>
      <point x="307.5" y="2240"/>
      <point x="242.5" y="2157"/>
      <point x="203.5" y="2022" type="curve"/>
      <point x="362.5" y="1965" type="line"/>
      <point x="380.5" y="2000"/>
      <point x="391.5" y="2019"/>
      <point x="413.5" y="2024" type="curve"/>
      <point x="420.5" y="2026"/>
      <point x="428.5" y="2026"/>
      <point x="436.5" y="2026" type="curve" smooth="yes"/>
      <point x="519.5" y="2026"/>
      <point x="647.5" y="1944"/>
    </contour>
    <contour>
      <point x="122.0" y="0" type="line"/>
      <point x="452.0" y="0" type="line"/>
      <point x="452.0" y="860" type="line"/>
      <point x="714.0" y="0" type="line"/>
      <point x="1022.0" y="0" type="line"/>
      <point x="1022.0" y="1761" type="line"/>
      <point x="692.0" y="1761" type="line"/>
      <point x="692.0" y="947" type="line"/>
      <point x="444.0" y="1761" type="line"/>
      <point x="122.0" y="1761" type="line"/>
    </contour>
  </outline>
</glyph>
<glyph name="Oslash" format="1">
  <advance width="1096"/>
  <unicode hex="00D8"/>
  <outline>
    <component base="O"/>
    <contour>
      <point x="978" y="1870" type="line"/>
      <point x="242" y="-206" type="line"/>
      <point x="143" y="-166" type="line"/>
      <point x="871" y="1906" type="line"/>
    </contour>
  </outline>
</glyph>
<glyph name="germandbls" format="1">
  <advance width="1109"/>
  <unicode hex="00DF"/>
  <outline>
    <contour>
      <point x="122" y="0" type="line"/>
      <point x="478" y="0" type="line"/>
      <point x="478" y="1390" type="line" smooth="yes"/>
      <point x="478" y="1441"/>
      <point x="516" y="1466"/>
      <point x="566" y="1466" type="curve" smooth="yes"/>
      <point x="616" y="1466"/>
      <point x="641" y="1441"/>
      <point x="641" y="1390" type="curve" smooth="yes"/>
      <point x="641" y="1170" type="line" smooth="yes"/>
      <point x="641" y="1102"/>
      <point x="627" y="1051"/>
      <point x="557" y="1051" type="curve"/>
      <point x="557" y="803" type="line"/>
      <point x="666" y="803"/>
      <point x="704" y="764"/>
      <point x="704" y="656" type="curve" smooth="yes"/>
      <point x="704" y="395" type="line" smooth="yes"/>
      <point x="704" y="316"/>
      <point x="643" y="277"/>
      <point x="548" y="277" type="curve"/>
      <point x="548" y="0" type="line"/>
      <point x="652" y="0" type="line" smooth="yes"/>
      <point x="952" y="0"/>
      <point x="1052" y="177"/>
      <point x="1052" y="476" type="curve" smooth="yes"/>
      <point x="1052" y="553" type="line" smooth="yes"/>
      <point x="1052" y="752"/>
      <point x="1006" y="906"/>
      <point x="842" y="945" type="curve"/>
      <point x="950" y="980"/>
      <point x="992" y="1080"/>
      <point x="992" y="1220" type="curve" smooth="yes"/>
      <point x="992" y="1417" type="line" smooth="yes"/>
      <point x="992" y="1678"/>
      <point x="825" y="1781"/>
      <point x="566" y="1781" type="curve" smooth="yes"/>
      <point x="283" y="1781"/>
      <point x="122" y="1660"/>
      <point x="122" y="1417" type="curve" smooth="yes"/>
    </contour>
  </outline>
</glyph>
<glyph name="atilde" format="1">
  <advance width="1092"/>
  <unicode hex="00E3"/>
  <outline>
    <contour>
      <point x="404" y="-18" type="curve" smooth="yes"/>
      <point x="507" y="-18"/>
      <point x="594" y="53"/>
      <point x="629" y="178" type="curve"/>
      <point x="629" y="0" type="line"/>
      <point x="987" y="0" type="line"/>
      <point x="987" y="1143" type="line" smooth="yes"/>
      <point x="987" y="1387"/>
      <point x="803" y="1518"/>
      <point x="563" y="1518" type="curve" smooth="yes"/>
      <point x="257" y="1518"/>
      <point x="122" y="1403"/>
      <point x="122" y="1105" type="curve" smooth="yes"/>
      <point x="122" y="1056" type="line"/>
      <point x="471" y="1056" type="line"/>
      <point x="471" y="1146" type="line" smooth="yes"/>
      <point x="471" y="1201"/>
      <point x="492" y="1243"/>
      <point x="557" y="1239" type="curve" smooth="yes"/>
      <point x="602" y="1236"/>
      <point x="622" y="1213"/>
      <point x="622" y="1123" type="curve" smooth="yes"/>
      <point x="622" y="969" type="line"/>
      <point x="286" y="854"/>
      <point x="100" y="839"/>
      <point x="100" y="430" type="curve" smooth="yes"/>
      <point x="100" y="174"/>
      <point x="154" y="-18"/>
    </contour>
    <contour>
      <point x="707" y="1681" type="curve" smooth="yes"/>
      <point x="815" y="1681"/>
      <point x="883" y="1738"/>
      <point x="903" y="1881" type="curve" smooth="yes"/>
      <point x="912" y="1946" type="line"/>
      <point x="741" y="1974" type="line"/>
      <point x="720" y="1914"/>
      <point x="704" y="1906"/>
      <point x="685" y="1903" type="curve"/>
      <point x="681" y="1903" type="line" smooth="yes"/>
      <point x="631" y="1903"/>
      <point x="468" y="1977"/>
      <point x="387" y="1977" type="curve" smooth="yes"/>
      <point x="279" y="1977"/>
      <point x="214" y="1894"/>
      <point x="175" y="1759" type="curve"/>
      <point x="334" y="1702" type="line"/>
      <point x="352" y="1737"/>
      <point x="363" y="1756"/>
      <point x="385" y="1761" type="curve"/>
      <point x="392" y="1763"/>
      <point x="400" y="1763"/>
      <point x="408" y="1763" type="curve" smooth="yes"/>
      <point x="491" y="1763"/>
      <point x="619" y="1681"/>
    </contour>
    <contour>
      <point x="545" y="262" type="curve" smooth="yes"/>
      <point x="492" y="262"/>
      <point x="465" y="306"/>
      <point x="465" y="395" type="curve" smooth="yes"/>
      <point x="465" y="588" type="line" smooth="yes"/>
      <point x="465" y="705"/>
      <point x="523" y="757"/>
      <point x="622" y="797" type="curve"/>
      <point x="622" y="379" type="line" smooth="yes"/>
      <point x="622" y="322"/>
      <point x="603" y="262"/>
    </contour>
  </outline>
</glyph>
<glyph name="igrave" format="1">
  <advance width="586"/>
  <unicode hex="00EC"/>
  <outline>
    <contour>
      <point x="115" y="0" type="line"/>
      <point x="471" y="0" type="line"/>
      <point x="471" y="1500" type="line"/>
      <point x="115" y="1500" type="line"/>
    </contour>
    <contour>
      <point x="530.5" y="1681" type="line"/>
      <point x="530.5" y="1904" type="line"/>
      <point x="55.5" y="2122" type="line"/>
      <point x="55.5" y="1775" type="line"/>
    </contour>
  </outline>
</glyph>
<glyph name="icircumflex" format="1">
  <advance width="586"/>
  <unicode hex="00EE"/>
  <outline>
    <contour>
      <point x="-152" y="1681" type="line"/>
      <point x="207" y="1681" type="line"/>
      <point x="293" y="1966" type="line"/>
      <point x="379" y="1681" type="line"/>
      <point x="738" y="1681" type="line"/>
      <point x="497" y="2084" type="line"/>
      <point x="89" y="2084" type="line"/>
    </contour>
    <contour>
      <point x="115" y="0" type="line"/>
      <point x="471" y="0" type="line"/>
      <point x="471" y="1500" type="line"/>
      <point x="115" y="1500" type="line"/>
    </contour>
  </outline>
</glyph>
<glyph name="idieresis" format="1">
  <advance width="586"/>
  <unicode hex="00EF"/>
  <outline>
    <contour>
      <point x="-128" y="1681" type="line"/>
      <point x="230" y="1681" type="line"/>
      <point x="230" y="1979" type="line"/>
      <point x="-128" y="1979" type="line"/>
    </contour>
    <contour>
      <point x="115" y="0" type="line"/>
      <point x="471" y="0" type="line"/>
      <point x="471" y="1500" type="line"/>
      <point x="115" y="1500" type="line"/>
    </contour>
    <contour>
      <point x="356" y="1681" type="line"/>
      <point x="714" y="1681" type="line"/>
      <point x="714" y="1979" type="line"/>
      <point x="356" y="1979" type="line"/>
    </contour>
  </outline>
</glyph>
<glyph name="eth" format="1">
  <advance width="1080"/>
  <unicode hex="00F0"/>
  <outline>
    <contour>
      <point x="81" y="609" type="line" smooth="yes"/>
      <point x="81" y="916"/>
      <point x="197" y="1095"/>
      <point x="446" y="1095" type="curve" smooth="yes"/>
      <point x="536" y="1095"/>
      <point x="564" y="1081"/>
      <point x="595" y="1068" type="curve"/>
      <point x="595" y="1149.62837219"/>
      <point x="568.39831543" y="1241.96290588"/>
      <point x="514.660018921" y="1334.77166748" type="curve"/>
      <point x="318.0" y="1232.79980469" type="line"/>
      <point x="243.0" y="1398.79980469" type="line"/>
      <point x="404.875183105" y="1482.7350769" type="line"/>
      <point x="360.468109131" y="1531.114151"/>
      <point x="308.203735352" y="1578.05888367"/>
      <point x="248.0" y="1622.0" type="curve"/>
      <point x="491.0" y="1781.0" type="line"/>
      <point x="554.321914673" y="1750.51850891"/>
      <point x="624.966369629" y="1702.32806396"/>
      <point x="692.286499023" y="1631.76318359" type="curve"/>
      <point x="891.0" y="1734.79980469" type="line"/>
      <point x="966.0" y="1568.79980469" type="line"/>
      <point x="804.313110352" y="1484.9621582" type="line"/>
      <point x="902.454681396" y="1323.96485901"/>
      <point x="975.0" y="1095.50187683"/>
      <point x="975.0" y="779.0" type="curve" smooth="yes"/>
      <point x="975.0" y="543.0" type="line" smooth="yes"/>
      <point x="975.0" y="145.0"/>
      <point x="903.0" y="-21.0"/>
      <point x="536.0" y="-21.0" type="curve" smooth="yes"/>
      <point x="195.0" y="-21.0"/>
      <point x="81.0" y="157.0"/>
      <point x="81.0" y="515.0" type="curve" smooth="yes"/>
    </contour>
    <contour>
      <point x="532.0" y="294.0" type="curve" smooth="yes"/>
      <point x="591.0" y="294.0"/>
      <point x="615.0" y="331.0"/>
      <point x="615.0" y="418.0" type="curve" smooth="yes"/>
      <point x="615.0" y="660.0" type="line" smooth="yes"/>
      <point x="615.0" y="755.0"/>
      <point x="587.0" y="792.0"/>
      <point x="525.0" y="792.0" type="curve" smooth="yes"/>
      <point x="464.0" y="792.0"/>
      <point x="441.0" y="749.0"/>
      <point x="441.0" y="665.0" type="curve" smooth="yes"/>
      <point x="441.0" y="424.0" type="line" smooth="yes"/>
      <point x="441.0" y="336.0"/>
      <point x="466.0" y="294.0"/>
    </contour>
  </outline>
</glyph>
<glyph name="oslash" format="1">
  <advance width="1076"/>
  <unicode hex="00F8"/>
  <outline>
    <contour>
      <point x="340" y="-173" type="line"/>
      <point x="388" y="-2" type="line"/>
      <point x="433" y="-13"/>
      <point x="483" y="-18"/>
      <point x="538" y="-18" type="curve" smooth="yes"/>
      <point x="839" y="-18"/>
      <point x="978" y="143"/>
      <point x="978" y="449" type="curve" smooth="yes"/>
      <point x="978" y="1051" type="line" smooth="yes"/>
      <point x="978" y="1231"/>
      <point x="914" y="1371"/>
      <point x="795" y="1449" type="curve"/>
      <point x="850" y="1644" type="line"/>
      <point x="749" y="1672" type="line"/>
      <point x="699" y="1494" type="line"/>
      <point x="651" y="1510"/>
      <point x="597" y="1518"/>
      <point x="538" y="1518" type="curve" smooth="yes"/>
      <point x="258" y="1518"/>
      <point x="98" y="1333"/>
      <point x="98" y="1051" type="curve" smooth="yes"/>
      <point x="98" y="449" type="line" smooth="yes"/>
      <point x="98" y="242"/>
      <point x="160" y="103"/>
      <point x="290" y="34" type="curve"/>
      <point x="240" y="-145" type="line"/>
    </contour>
    <contour>
      <point x="622" y="308"/>
      <point x="598" y="260"/>
      <point x="538" y="260" type="curve" smooth="yes"/>
      <point x="506" y="260"/>
      <point x="484" y="274"/>
      <point x="471" y="296" type="curve"/>
      <point x="622" y="833" type="line"/>
      <point x="622" y="375" type="line" smooth="yes"/>
    </contour>
    <contour>
      <point x="454" y="619" type="line"/>
      <point x="454" y="1108" type="line" smooth="yes"/>
      <point x="454" y="1195"/>
      <point x="482" y="1239"/>
      <point x="538" y="1239" type="curve" smooth="yes"/>
      <point x="575" y="1239"/>
      <point x="599" y="1220"/>
      <point x="612" y="1183" type="curve"/>
    </contour>
    <contour>
      <point x="538" y="0" type="move" name="top"/>
    </contour>
  </outline>
</glyph>
<glyph name="ucircumflex" format="1">
  <advance width="1099"/>
  <unicode hex="00FB"/>
  <outline>
    <contour>
      <point x="750" y="2084" type="line"/>
      <point x="342" y="2084" type="line"/>
      <point x="101" y="1681" type="line"/>
      <point x="460" y="1681" type="line"/>
      <point x="546" y="1966" type="line"/>
      <point x="632" y="1681" type="line"/>
      <point x="991" y="1681" type="line"/>
    </contour>
    <contour>
      <point x="545" y="264" type="curve" smooth="yes"/>
      <point x="457" y="264"/>
      <point x="465" y="342"/>
      <point x="465" y="455" type="curve" smooth="yes"/>
      <point x="465" y="1500" type="line"/>
      <point x="105" y="1500" type="line"/>
      <point x="105" y="383" type="line" smooth="yes"/>
      <point x="105" y="143"/>
      <point x="157" y="-18"/>
      <point x="398" y="-18" type="curve" smooth="yes"/>
      <point x="534" y="-18"/>
      <point x="583" y="45"/>
      <point x="629" y="160" type="curve"/>
      <point x="629" y="0" type="line"/>
      <point x="987" y="0" type="line"/>
      <point x="987" y="1500" type="line"/>
      <point x="631" y="1500" type="line"/>
      <point x="629" y="443" type="line"/>
      <point x="629" y="360"/>
      <point x="628" y="264"/>
    </contour>
  </outline>
</glyph>
<glyph name="abreve" format="1">
  <advance width="1092"/>
  <unicode hex="0103"/>
  <outline>
    <contour>
      <point x="404.0" y="-18" type="curve" smooth="yes"/>
      <point x="507.0" y="-18"/>
      <point x="594.0" y="53"/>
      <point x="629.0" y="178" type="curve"/>
      <point x="629.0" y="0" type="line"/>
      <point x="987.0" y="0" type="line"/>
      <point x="987.0" y="1143" type="line" smooth="yes"/>
      <point x="987.0" y="1387"/>
      <point x="803.0" y="1518"/>
      <point x="563.0" y="1518" type="curve" smooth="yes"/>
      <point x="257.0" y="1518"/>
      <point x="122.0" y="1403"/>
      <point x="122.0" y="1105" type="curve" smooth="yes"/>
      <point x="122.0" y="1056" type="line"/>
      <point x="471.0" y="1056" type="line"/>
      <point x="471.0" y="1146" type="line" smooth="yes"/>
      <point x="471.0" y="1201"/>
      <point x="492.0" y="1243"/>
      <point x="557.0" y="1239" type="curve" smooth="yes"/>
      <point x="602.0" y="1236"/>
      <point x="622.0" y="1213"/>
      <point x="622.0" y="1123" type="curve" smooth="yes"/>
      <point x="622.0" y="969" type="line"/>
      <point x="286.0" y="854"/>
      <point x="100.0" y="839"/>
      <point x="100.0" y="430" type="curve" smooth="yes"/>
      <point x="100.0" y="174"/>
      <point x="154.0" y="-18"/>
    </contour>
    <contour>
      <point x="541.5" y="1681" type="curve" smooth="yes"/>
      <point x="781.5" y="1681"/>
      <point x="896.5" y="1778"/>
      <point x="896.5" y="2001" type="curve" smooth="yes"/>
      <point x="896.5" y="2014" type="line"/>
      <point x="678.5" y="2014" type="line"/>
      <point x="678.5" y="1889"/>
      <point x="626.5" y="1871"/>
      <point x="543.5" y="1871" type="curve" smooth="yes"/>
      <point x="460.5" y="1871"/>
      <point x="408.5" y="1889"/>
      <point x="408.5" y="2014" type="curve"/>
      <point x="190.5" y="2014" type="line"/>
      <point x="190.5" y="1999" type="line" smooth="yes"/>
      <point x="190.5" y="1782"/>
      <point x="307.5" y="1681"/>
    </contour>
    <contour>
      <point x="545.0" y="262" type="curve" smooth="yes"/>
      <point x="492.0" y="262"/>
      <point x="465.0" y="306"/>
      <point x="465.0" y="395" type="curve" smooth="yes"/>
      <point x="465.0" y="588" type="line" smooth="yes"/>
      <point x="465.0" y="705"/>
      <point x="523.0" y="757"/>
      <point x="622.0" y="797" type="curve"/>
      <point x="622.0" y="379" type="line" smooth="yes"/>
      <point x="622.0" y="322"/>
      <point x="603.0" y="262"/>
    </contour>
  </outline>
</glyph>
<glyph name="Ebreve" format="1">
  <advance width="894"/>
  <unicode hex="0114"/>
  <outline>
    <contour>
      <point x="464" y="2134" type="curve" smooth="yes"/>
      <point x="381" y="2134"/>
      <point x="329" y="2152"/>
      <point x="329" y="2277" type="curve"/>
      <point x="111" y="2277" type="line"/>
      <point x="111" y="2262" type="line" smooth="yes"/>
      <point x="111" y="2045"/>
      <point x="228" y="1944"/>
      <point x="462" y="1944" type="curve" smooth="yes"/>
      <point x="702" y="1944"/>
      <point x="817" y="2041"/>
      <point x="817" y="2264" type="curve" smooth="yes"/>
      <point x="817" y="2277" type="line"/>
      <point x="599" y="2277" type="line"/>
      <point x="599" y="2152"/>
      <point x="547" y="2134"/>
    </contour>
    <contour>
      <point x="806" y="318" type="line"/>
      <point x="482" y="318" type="line"/>
      <point x="482" y="746" type="line"/>
      <point x="769" y="746" type="line"/>
      <point x="769" y="1065" type="line"/>
      <point x="482" y="1065" type="line"/>
      <point x="482" y="1440" type="line"/>
      <point x="783" y="1440" type="line"/>
      <point x="783" y="1761" type="line"/>
      <point x="122" y="1761" type="line"/>
      <point x="122" y="0" type="line"/>
      <point x="806" y="0" type="line"/>
    </contour>
  </outline>
</glyph>
<glyph name="Edotaccent" format="1">
  <advance width="894"/>
  <unicode hex="0116"/>
  <outline>
    <contour>
      <point x="122" y="0" type="line"/>
      <point x="806" y="0" type="line"/>
      <point x="806" y="318" type="line"/>
      <point x="482" y="318" type="line"/>
      <point x="482" y="746" type="line"/>
      <point x="769" y="746" type="line"/>
      <point x="769" y="1065" type="line"/>
      <point x="482" y="1065" type="line"/>
      <point x="482" y="1440" type="line"/>
      <point x="783" y="1440" type="line"/>
      <point x="783" y="1761" type="line"/>
      <point x="122" y="1761" type="line"/>
    </contour>
    <contour>
      <point x="285" y="1944" type="line"/>
      <point x="643" y="1944" type="line"/>
      <point x="643" y="2242" type="line"/>
      <point x="285" y="2242" type="line"/>
    </contour>
  </outline>
</glyph>
<glyph name="Eogonek" format="1">
  <advance width="894"/>
  <unicode hex="0118"/>
  <outline>
    <contour>
      <point x="122" y="0" type="line"/>
      <point x="806" y="0" type="line"/>
      <point x="806" y="318" type="line"/>
      <point x="482" y="318" type="line"/>
      <point x="482" y="746" type="line"/>
      <point x="769" y="746" type="line"/>
      <point x="769" y="1065" type="line"/>
      <point x="482" y="1065" type="line"/>
      <point x="482" y="1440" type="line"/>
      <point x="783" y="1440" type="line"/>
      <point x="783" y="1761" type="line"/>
      <point x="122" y="1761" type="line"/>
    </contour>
    <contour>
      <point x="210" y="-513.133"/>
      <point x="327" y="-605.133"/>
      <point x="517" y="-605.133" type="curve" smooth="yes"/>
      <point x="585" y="-605.133"/>
      <point x="663" y="-583.133"/>
      <point x="686" y="-570.133" type="curve"/>
      <point x="686" y="-397.133" type="line"/>
      <point x="662" y="-402.133"/>
      <point x="636" y="-405.133"/>
      <point x="611" y="-405.133" type="curve" smooth="yes"/>
      <point x="531" y="-405.133"/>
      <point x="455" y="-375.133"/>
      <point x="455" y="-278.133" type="curve" smooth="yes"/>
      <point x="455" y="-168.133"/>
      <point x="531" y="-69.1328"/>
      <point x="605" y="20.8672" type="curve"/>
      <point x="464" y="20.8672" type="line"/>
      <point x="288" y="-78.1328"/>
      <point x="210" y="-218.133"/>
      <point x="210" y="-339.133" type="curve" smooth="yes"/>
    </contour>
  </outline>
</glyph>
<glyph name="Gbreve" format="1">
  <advance width="1108"/>
  <unicode hex="011E"/>
  <outline>
    <contour>
      <point x="502.0" y="-21" type="curve" smooth="yes"/>
      <point x="633.0" y="-21"/>
      <point x="755.0" y="34"/>
      <point x="801.0" y="198" type="curve"/>
      <point x="861.0" y="0" type="line"/>
      <point x="998.0" y="0" type="line"/>
      <point x="998.0" y="1039" type="line"/>
      <point x="566.0" y="1039" type="line"/>
      <point x="566.0" y="741" type="line"/>
      <point x="676.0" y="741" type="line"/>
      <point x="676.0" y="505" type="line" smooth="yes"/>
      <point x="676.0" y="341"/>
      <point x="645.0" y="294"/>
      <point x="564.0" y="294" type="curve" smooth="yes"/>
      <point x="482.0" y="294"/>
      <point x="465.0" y="355"/>
      <point x="465.0" y="501" type="curve" smooth="yes"/>
      <point x="465.0" y="1288" type="line" smooth="yes"/>
      <point x="465.0" y="1416"/>
      <point x="496.0" y="1466"/>
      <point x="576.0" y="1466" type="curve" smooth="yes"/>
      <point x="641.0" y="1466"/>
      <point x="672.0" y="1434"/>
      <point x="672.0" y="1295" type="curve" smooth="yes"/>
      <point x="672.0" y="1181" type="line"/>
      <point x="998.0" y="1181" type="line"/>
      <point x="998.0" y="1288" type="line" smooth="yes"/>
      <point x="998.0" y="1625"/>
      <point x="899.0" y="1781"/>
      <point x="566.0" y="1781" type="curve" smooth="yes"/>
      <point x="278.0" y="1781"/>
      <point x="105.0" y="1621"/>
      <point x="105.0" y="1296" type="curve" smooth="yes"/>
      <point x="105.0" y="502" type="line" smooth="yes"/>
      <point x="105.0" y="139"/>
      <point x="248.0" y="-21"/>
    </contour>
    <contour>
      <point x="549.5" y="1944" type="curve" smooth="yes"/>
      <point x="789.5" y="1944"/>
      <point x="904.5" y="2041"/>
      <point x="904.5" y="2264" type="curve" smooth="yes"/>
      <point x="904.5" y="2277" type="line"/>
      <point x="686.5" y="2277" type="line"/>
      <point x="686.5" y="2152"/>
      <point x="634.5" y="2134"/>
      <point x="551.5" y="2134" type="curve" smooth="yes"/>
      <point x="468.5" y="2134"/>
      <point x="416.5" y="2152"/>
      <point x="416.5" y="2277" type="curve"/>
      <point x="198.5" y="2277" type="line"/>
      <point x="198.5" y="2262" type="line" smooth="yes"/>
      <point x="198.5" y="2045"/>
      <point x="315.5" y="1944"/>
    </contour>
  </outline>
</glyph>
<glyph name="Gcommaaccent" format="1">
  <advance width="1108"/>
  <unicode hex="0122"/>
  <outline>
    <contour>
      <point x="105" y="139"/>
      <point x="248" y="-21"/>
      <point x="502" y="-21" type="curve" smooth="yes"/>
      <point x="633" y="-21"/>
      <point x="755" y="34"/>
      <point x="801" y="198" type="curve"/>
      <point x="861" y="0" type="line"/>
      <point x="998" y="0" type="line"/>
      <point x="998" y="1039" type="line"/>
      <point x="566" y="1039" type="line"/>
      <point x="566" y="741" type="line"/>
      <point x="676" y="741" type="line"/>
      <point x="676" y="505" type="line" smooth="yes"/>
      <point x="676" y="341"/>
      <point x="645" y="294"/>
      <point x="564" y="294" type="curve" smooth="yes"/>
      <point x="482" y="294"/>
      <point x="465" y="355"/>
      <point x="465" y="501" type="curve" smooth="yes"/>
      <point x="465" y="1288" type="line" smooth="yes"/>
      <point x="465" y="1416"/>
      <point x="496" y="1466"/>
      <point x="576" y="1466" type="curve" smooth="yes"/>
      <point x="641" y="1466"/>
      <point x="672" y="1434"/>
      <point x="672" y="1295" type="curve" smooth="yes"/>
      <point x="672" y="1181" type="line"/>
      <point x="998" y="1181" type="line"/>
      <point x="998" y="1288" type="line" smooth="yes"/>
      <point x="998" y="1625"/>
      <point x="899" y="1781"/>
      <point x="566" y="1781" type="curve" smooth="yes"/>
      <point x="278" y="1781"/>
      <point x="105" y="1621"/>
      <point x="105" y="1296" type="curve" smooth="yes"/>
      <point x="105" y="502" type="line" smooth="yes"/>
    </contour>
    <contour>
      <point x="447" y="-830" type="line"/>
      <point x="615" y="-830" type="line"/>
      <point x="717" y="-493" type="line"/>
      <point x="717" y="-184" type="line"/>
      <point x="386" y="-184" type="line"/>
      <point x="386" y="-502" type="line"/>
      <point x="513" y="-502" type="line"/>
    </contour>
  </outline>
</glyph>
<glyph name="hcircumflex" format="1">
  <advance width="1099"/>
  <unicode hex="0125"/>
  <outline>
    <contour>
      <point x="112" y="0" type="line"/>
      <point x="468" y="0" type="line"/>
      <point x="468" y="1055" type="line" smooth="yes"/>
      <point x="468" y="1138"/>
      <point x="475" y="1239"/>
      <point x="558" y="1239" type="curve" smooth="yes"/>
      <point x="616" y="1239"/>
      <point x="638" y="1179"/>
      <point x="638" y="1120" type="curve" smooth="yes"/>
      <point x="638" y="0" type="line"/>
      <point x="994" y="0" type="line"/>
      <point x="994" y="1157" type="line" smooth="yes"/>
      <point x="994" y="1379"/>
      <point x="902" y="1518"/>
      <point x="694" y="1518" type="curve" smooth="yes"/>
      <point x="565" y="1518"/>
      <point x="494" y="1423"/>
      <point x="468" y="1309" type="curve"/>
      <point x="468" y="1769" type="line"/>
      <point x="112" y="1769" type="line"/>
    </contour>
    <contour>
      <point x="108" y="1932" type="line"/>
      <point x="467" y="1932" type="line"/>
      <point x="553" y="2217" type="line"/>
      <point x="639" y="1932" type="line"/>
      <point x="998" y="1932" type="line"/>
      <point x="757" y="2335" type="line"/>
      <point x="349" y="2335" type="line"/>
    </contour>
  </outline>
</glyph>
<glyph name="Hbar" format="1">
  <advance width="1130"/>
  <unicode hex="0126"/>
  <outline>
    <component base="H"/>
    <contour>
      <point x="1087" y="1348" type="line"/>
      <point x="55" y="1348" type="line"/>
      <point x="55" y="1518" type="line"/>
      <point x="1087" y="1518" type="line"/>
    </contour>
  </outline>
</glyph>
<glyph name="imacron" format="1">
  <advance width="586"/>
  <unicode hex="012B"/>
  <outline>
    <contour>
      <point x="115" y="0" type="line"/>
      <point x="471" y="0" type="line"/>
      <point x="471" y="1500" type="line"/>
      <point x="115" y="1500" type="line"/>
    </contour>
    <contour>
      <point x="35" y="1681" type="line"/>
      <point x="551" y="1681" type="line"/>
      <point x="551" y="1913" type="line"/>
      <point x="35" y="1913" type="line"/>
    </contour>
  </outline>
</glyph>
<glyph name="iogonek" format="1">
  <advance width="586"/>
  <unicode hex="012F"/>
  <outline>
    <contour>
      <point x="275.5" y="-605.1328125" type="curve" smooth="yes"/>
      <point x="343.5" y="-605.1328125"/>
      <point x="421.5" y="-583.1328125"/>
      <point x="444.5" y="-570.1328125" type="curve"/>
      <point x="444.5" y="-397.1328125" type="line"/>
      <point x="420.5" y="-402.1328125"/>
      <point x="394.5" y="-405.1328125"/>
      <point x="369.5" y="-405.1328125" type="curve" smooth="yes"/>
      <point x="289.5" y="-405.1328125"/>
      <point x="213.5" y="-375.1328125"/>
      <point x="213.5" y="-278.1328125" type="curve" smooth="yes"/>
      <point x="213.5" y="-168.1328125"/>
      <point x="289.5" y="-69.1328125"/>
      <point x="363.5" y="20.8671875" type="curve"/>
      <point x="222.5" y="20.8671875" type="line"/>
      <point x="46.5" y="-78.1328125"/>
      <point x="-31.5" y="-218.1328125"/>
      <point x="-31.5" y="-339.1328125" type="curve" smooth="yes"/>
      <point x="-31.5" y="-513.1328125"/>
      <point x="85.5" y="-605.1328125"/>
    </contour>
    <contour>
      <point x="115.0" y="0.0" type="line"/>
      <point x="471.0" y="0.0" type="line"/>
      <point x="471.0" y="1500.0" type="line"/>
      <point x="115.0" y="1500.0" type="line"/>
    </contour>
    <contour>
      <point x="115.0" y="1600.0" type="line"/>
      <point x="471.0" y="1600.0" type="line"/>
      <point x="471.0" y="1800.0" type="line"/>
      <point x="115.0" y="1800.0" type="line"/>
    </contour>
  </outline>
</glyph>
<glyph name="Idotaccent" format="1">
  <advance width="616"/>
  <unicode hex="0130"/>
  <outline>
    <contour>
      <point x="129" y="1944" type="line"/>
      <point x="487" y="1944" type="line"/>
      <point x="487" y="2242" type="line"/>
      <point x="129" y="2242" type="line"/>
    </contour>
    <contour>
      <point x="488" y="1761" type="line"/>
      <point x="128" y="1761" type="line"/>
      <point x="128" y="0" type="line"/>
      <point x="488" y="0" type="line"/>
    </contour>
  </outline>
</glyph>
<glyph name="IJ" format="1">
  <advance width="1665"/>
  <unicode hex="0132"/>
  <outline>
    <contour>
      <point x="1107" y="-21" type="curve" smooth="yes"/>
      <point x="1358" y="-21"/>
      <point x="1537" y="160"/>
      <point x="1537" y="440" type="curve" smooth="yes"/>
      <point x="1537" y="1761" type="line"/>
      <point x="1176" y="1761" type="line"/>
      <point x="1176" y="418" type="line" smooth="yes"/>
      <point x="1176" y="333"/>
      <point x="1150" y="294"/>
      <point x="1097" y="294" type="curve" smooth="yes"/>
      <point x="1042" y="294"/>
      <point x="1019" y="340"/>
      <point x="1019" y="402" type="curve" smooth="yes"/>
      <point x="1019" y="830" type="line"/>
      <point x="677" y="830" type="line"/>
      <point x="677" y="389" type="line" smooth="yes"/>
      <point x="677" y="124"/>
      <point x="868" y="-21"/>
    </contour>
    <contour>
      <point x="128" y="0" type="line"/>
      <point x="488" y="0" type="line"/>
      <point x="488" y="1761" type="line"/>
      <point x="128" y="1761" type="line"/>
    </contour>
  </outline>
</glyph>
<glyph name="Kcommaaccent" format="1">
  <advance width="1072"/>
  <unicode hex="0136"/>
  <outline>
    <contour>
      <point x="122" y="0" type="line"/>
      <point x="472" y="0" type="line"/>
      <point x="472" y="792" type="line"/>
      <point x="674" y="0" type="line"/>
      <point x="1039" y="0" type="line"/>
      <point x="791" y="894" type="line"/>
      <point x="999" y="1761" type="line"/>
      <point x="645" y="1761" type="line"/>
      <point x="470" y="995" type="line"/>
      <point x="470" y="1761" type="line"/>
      <point x="122" y="1761" type="line"/>
    </contour>
    <contour>
      <point x="476" y="-809" type="line"/>
      <point x="644" y="-809" type="line"/>
      <point x="746" y="-472" type="line"/>
      <point x="746" y="-163" type="line"/>
      <point x="415" y="-163" type="line"/>
      <point x="415" y="-481" type="line"/>
      <point x="542" y="-481" type="line"/>
    </contour>
  </outline>
</glyph>
<glyph name="Lacute" format="1">
  <advance width="864"/>
  <unicode hex="0139"/>
  <outline>
    <contour>
      <point x="122.0" y="0" type="line"/>
      <point x="836.0" y="0" type="line"/>
      <point x="836.0" y="318" type="line"/>
      <point x="474.0" y="318" type="line"/>
      <point x="474.0" y="1761" type="line"/>
      <point x="122.0" y="1761" type="line"/>
    </contour>
    <contour>
      <point x="241.5" y="1944" type="line"/>
      <point x="716.5" y="2038" type="line"/>
      <point x="716.5" y="2385" type="line"/>
      <point x="241.5" y="2167" type="line"/>
    </contour>
  </outline>
</glyph>
<glyph name="lcommaaccent" format="1">
  <advance width="594"/>
  <unicode hex="013C"/>
  <outline>
    <contour>
      <point x="192.5" y="-809" type="line"/>
      <point x="360.5" y="-809" type="line"/>
      <point x="462.5" y="-472" type="line"/>
      <point x="462.5" y="-163" type="line"/>
      <point x="131.5" y="-163" type="line"/>
      <point x="131.5" y="-481" type="line"/>
      <point x="258.5" y="-481" type="line"/>
    </contour>
    <contour>
      <point x="115.0" y="0" type="line"/>
      <point x="479.0" y="0" type="line"/>
      <point x="479.0" y="1769" type="line"/>
      <point x="115.0" y="1769" type="line"/>
    </contour>
  </outline>
</glyph>
<glyph name="ldot" format="1">
  <advance width="1074"/>
  <unicode hex="0140"/>
  <outline>
    <contour>
      <point x="980" y="1021" type="line"/>
      <point x="702" y="1021" type="line"/>
      <point x="702" y="723" type="line"/>
      <point x="980" y="723" type="line"/>
    </contour>
    <contour>
      <point x="115" y="1769" type="line"/>
      <point x="115" y="0" type="line"/>
      <point x="479" y="0" type="line"/>
      <point x="479" y="1769" type="line"/>
    </contour>
  </outline>
</glyph>
<glyph name="Lslash" format="1">
  <advance width="864"/>
  <unicode hex="0141"/>
  <outline>
    <contour>
      <point x="122" y="0" type="line"/>
      <point x="836" y="0" type="line"/>
      <point x="836" y="318" type="line"/>
      <point x="474" y="318" type="line"/>
      <point x="474" y="843" type="line"/>
      <point x="706" y="923" type="line"/>
      <point x="706" y="1155" type="line"/>
      <point x="474" y="1075" type="line"/>
      <point x="474" y="1761" type="line"/>
      <point x="122" y="1761" type="line"/>
      <point x="122" y="956" type="line"/>
      <point x="-1" y="916" type="line"/>
      <point x="-1" y="684" type="line"/>
      <point x="122" y="724" type="line"/>
    </contour>
  </outline>
</glyph>
<glyph name="Ncommaaccent" format="1">
  <advance width="1144"/>
  <unicode hex="0145"/>
  <outline>
    <contour>
      <point x="122" y="0" type="line"/>
      <point x="452" y="0" type="line"/>
      <point x="452" y="860" type="line"/>
      <point x="714" y="0" type="line"/>
      <point x="1022" y="0" type="line"/>
      <point x="1022" y="1761" type="line"/>
      <point x="692" y="1761" type="line"/>
      <point x="692" y="947" type="line"/>
      <point x="444" y="1761" type="line"/>
      <point x="122" y="1761" type="line"/>
    </contour>
    <contour>
      <point x="467.5" y="-809" type="line"/>
      <point x="635.5" y="-809" type="line"/>
      <point x="737.5" y="-472" type="line"/>
      <point x="737.5" y="-163" type="line"/>
      <point x="406.5" y="-163" type="line"/>
      <point x="406.5" y="-481" type="line"/>
      <point x="533.5" y="-481" type="line"/>
    </contour>
  </outline>
</glyph>
<glyph name="Ncaron" format="1">
  <advance width="1144"/>
  <unicode hex="0147"/>
  <outline>
    <contour>
      <point x="776" y="1944" type="line"/>
      <point x="1017" y="2347" type="line"/>
      <point x="658" y="2347" type="line"/>
      <point x="572" y="2062" type="line"/>
      <point x="486" y="2347" type="line"/>
      <point x="127" y="2347" type="line"/>
      <point x="368" y="1944" type="line"/>
    </contour>
    <contour>
      <point x="692" y="947" type="line"/>
      <point x="444" y="1761" type="line"/>
      <point x="122" y="1761" type="line"/>
      <point x="122" y="0" type="line"/>
      <point x="452" y="0" type="line"/>
      <point x="452" y="860" type="line"/>
      <point x="714" y="0" type="line"/>
      <point x="1022" y="0" type="line"/>
      <point x="1022" y="1761" type="line"/>
      <point x="692" y="1761" type="line"/>
    </contour>
  </outline>
</glyph>
<glyph name="obreve" format="1">
  <advance width="1076"/>
  <unicode hex="014F"/>
  <outline>
    <contour>
      <point x="536" y="1681" type="curve" smooth="yes"/>
      <point x="776" y="1681"/>
      <point x="891" y="1778"/>
      <point x="891" y="2001" type="curve" smooth="yes"/>
      <point x="891" y="2014" type="line"/>
      <point x="673" y="2014" type="line"/>
      <point x="673" y="1889"/>
      <point x="621" y="1871"/>
      <point x="538" y="1871" type="curve" smooth="yes"/>
      <point x="455" y="1871"/>
      <point x="403" y="1889"/>
      <point x="403" y="2014" type="curve"/>
      <point x="185" y="2014" type="line"/>
      <point x="185" y="1999" type="line" smooth="yes"/>
      <point x="185" y="1782"/>
      <point x="302" y="1681"/>
    </contour>
    <contour>
      <point x="538" y="260" type="curve" smooth="yes"/>
      <point x="478" y="260"/>
      <point x="454" y="308"/>
      <point x="454" y="375" type="curve" smooth="yes"/>
      <point x="454" y="1108" type="line" smooth="yes"/>
      <point x="454" y="1195"/>
      <point x="482" y="1239"/>
      <point x="538" y="1239" type="curve" smooth="yes"/>
      <point x="594" y="1239"/>
      <point x="622" y="1195"/>
      <point x="622" y="1108" type="curve" smooth="yes"/>
      <point x="622" y="375" type="line" smooth="yes"/>
      <point x="622" y="308"/>
      <point x="598" y="260"/>
    </contour>
    <contour>
      <point x="538" y="-18" type="curve" smooth="yes"/>
      <point x="839" y="-18"/>
      <point x="978" y="143"/>
      <point x="978" y="449" type="curve" smooth="yes"/>
      <point x="978" y="1051" type="line" smooth="yes"/>
      <point x="978" y="1334"/>
      <point x="819" y="1518"/>
      <point x="538" y="1518" type="curve" smooth="yes"/>
      <point x="258" y="1518"/>
      <point x="98" y="1333"/>
      <point x="98" y="1051" type="curve" smooth="yes"/>
      <point x="98" y="449" type="line" smooth="yes"/>
      <point x="98" y="138"/>
      <point x="239" y="-18"/>
    </contour>
  </outline>
</glyph>
<glyph name="OE" format="1">
  <advance width="1312"/>
  <unicode hex="0152"/>
  <outline>
    <contour>
      <point x="551" y="317" type="curve" smooth="yes"/>
      <point x="624" y="317" type="line"/>
      <point x="624" y="1440" type="line"/>
      <point x="551" y="1440" type="line" smooth="yes"/>
      <point x="483" y="1440"/>
      <point x="465" y="1397"/>
      <point x="465" y="1322" type="curve" smooth="yes"/>
      <point x="465" y="470" type="line" smooth="yes"/>
      <point x="465" y="378"/>
      <point x="469" y="317"/>
    </contour>
    <contour>
      <point x="1224" y="0" type="line"/>
      <point x="551" y="0" type="line" smooth="yes"/>
      <point x="263" y="0"/>
      <point x="105" y="162"/>
      <point x="105" y="475" type="curve" smooth="yes"/>
      <point x="105" y="1316" type="line" smooth="yes"/>
      <point x="105" y="1619"/>
      <point x="269" y="1761"/>
      <point x="551" y="1761" type="curve" smooth="yes"/>
      <point x="1201" y="1761" type="line"/>
      <point x="1201" y="1440" type="line"/>
      <point x="984" y="1440" type="line"/>
      <point x="984" y="1065" type="line"/>
      <point x="1187" y="1065" type="line"/>
      <point x="1187" y="746" type="line"/>
      <point x="984" y="746" type="line"/>
      <point x="984" y="318" type="line"/>
      <point x="1224" y="318" type="line"/>
    </contour>
  </outline>
</glyph>
<glyph name="Racute" format="1">
  <advance width="1109"/>
  <unicode hex="0154"/>
  <outline>
    <contour>
      <point x="122.0" y="0" type="line"/>
      <point x="480.0" y="0" type="line"/>
      <point x="480.0" y="803" type="line"/>
      <point x="573.0" y="803"/>
      <point x="640.0" y="792"/>
      <point x="640.0" y="689" type="curve" smooth="yes"/>
      <point x="640.0" y="0" type="line"/>
      <point x="1001.0" y="0" type="line"/>
      <point x="1002.0" y="666" type="line" smooth="yes"/>
      <point x="1002.0" y="805"/>
      <point x="946.0" y="915"/>
      <point x="836.0" y="938" type="curve"/>
      <point x="970.0" y="982"/>
      <point x="994.0" y="1077"/>
      <point x="994.0" y="1269" type="curve" smooth="yes"/>
      <point x="994.0" y="1566"/>
      <point x="944.0" y="1761"/>
      <point x="674.0" y="1761" type="curve" smooth="yes"/>
      <point x="122.0" y="1761" type="line"/>
    </contour>
    <contour>
      <point x="482.0" y="1094" type="line"/>
      <point x="482.0" y="1490" type="line"/>
      <point x="515.0" y="1490" type="line" smooth="yes"/>
      <point x="633.0" y="1490"/>
      <point x="640.0" y="1442"/>
      <point x="640.0" y="1305" type="curve" smooth="yes"/>
      <point x="640.0" y="1154"/>
      <point x="626.0" y="1094"/>
      <point x="550.0" y="1094" type="curve" smooth="yes"/>
    </contour>
    <contour>
      <point x="324.5" y="1944" type="line"/>
      <point x="799.5" y="2038" type="line"/>
      <point x="799.5" y="2385" type="line"/>
      <point x="324.5" y="2167" type="line"/>
    </contour>
  </outline>
</glyph>
<glyph name="Rcommaaccent" format="1">
  <advance width="1109"/>
  <unicode hex="0156"/>
  <outline>
    <contour>
      <point x="122.0" y="0" type="line"/>
      <point x="480.0" y="0" type="line"/>
      <point x="480.0" y="803" type="line"/>
      <point x="573.0" y="803"/>
      <point x="640.0" y="792"/>
      <point x="640.0" y="689" type="curve" smooth="yes"/>
      <point x="640.0" y="0" type="line"/>
      <point x="1001.0" y="0" type="line"/>
      <point x="1002.0" y="666" type="line" smooth="yes"/>
      <point x="1002.0" y="805"/>
      <point x="946.0" y="915"/>
      <point x="836.0" y="938" type="curve"/>
      <point x="970.0" y="982"/>
      <point x="994.0" y="1077"/>
      <point x="994.0" y="1269" type="curve" smooth="yes"/>
      <point x="994.0" y="1566"/>
      <point x="944.0" y="1761"/>
      <point x="674.0" y="1761" type="curve" smooth="yes"/>
      <point x="122.0" y="1761" type="line"/>
    </contour>
    <contour>
      <point x="457.5" y="-809" type="line"/>
      <point x="625.5" y="-809" type="line"/>
      <point x="727.5" y="-472" type="line"/>
      <point x="727.5" y="-163" type="line"/>
      <point x="396.5" y="-163" type="line"/>
      <point x="396.5" y="-481" type="line"/>
      <point x="523.5" y="-481" type="line"/>
    </contour>
    <contour>
      <point x="482.0" y="1094" type="line"/>
      <point x="482.0" y="1490" type="line"/>
      <point x="515.0" y="1490" type="line" smooth="yes"/>
      <point x="633.0" y="1490"/>
      <point x="640.0" y="1442"/>
      <point x="640.0" y="1305" type="curve" smooth="yes"/>
      <point x="640.0" y="1154"/>
      <point x="626.0" y="1094"/>
      <point x="550.0" y="1094" type="curve" smooth="yes"/>
    </contour>
  </outline>
</glyph>
<glyph name="rcommaaccent" format="1">
  <advance width="759"/>
  <unicode hex="0157"/>
  <outline>
    <contour>
      <point x="112.0" y="0" type="line"/>
      <point x="470.0" y="0" type="line"/>
      <point x="470.0" y="1147" type="line" smooth="yes"/>
      <point x="470.0" y="1187"/>
      <point x="640.0" y="1219"/>
      <point x="728.0" y="1219" type="curve"/>
      <point x="728.0" y="1219"/>
      <point x="730.0" y="1518"/>
      <point x="725.0" y="1518" type="curve" smooth="yes"/>
      <point x="592.0" y="1518"/>
      <point x="504.0" y="1449"/>
      <point x="470.0" y="1333" type="curve"/>
      <point x="470.0" y="1500" type="line"/>
      <point x="112.0" y="1500" type="line"/>
    </contour>
    <contour>
      <point x="315.698242188" y="-809" type="line"/>
      <point x="483.698242188" y="-809" type="line"/>
      <point x="585.698242188" y="-472" type="line"/>
      <point x="585.698242188" y="-163" type="line"/>
      <point x="254.698242188" y="-163" type="line"/>
      <point x="254.698242188" y="-481" type="line"/>
      <point x="381.698242188" y="-481" type="line"/>
    </contour>
  </outline>
</glyph>
<glyph name="Scedilla" format="1">
  <advance width="973"/>
  <unicode hex="015E"/>
  <outline>
    <contour>
      <point x="512.0" y="-21.0" type="curve" smooth="yes"/>
      <point x="828.0" y="-21.0"/>
      <point x="919.0" y="153.0"/>
      <point x="919.0" y="484.0" type="curve" smooth="yes"/>
      <point x="919.0" y="723.0"/>
      <point x="819.0" y="841.0"/>
      <point x="693.0" y="981.0" type="curve" smooth="yes"/>
      <point x="510.0" y="1185.0" type="line" smooth="yes"/>
      <point x="430.0" y="1275.0"/>
      <point x="418.0" y="1334.0"/>
      <point x="418.0" y="1383.0" type="curve" smooth="yes"/>
      <point x="418.0" y="1452.0"/>
      <point x="453.0" y="1474.0"/>
      <point x="498.0" y="1474.0" type="curve" smooth="yes"/>
      <point x="532.0" y="1474.0"/>
      <point x="581.0" y="1453.0"/>
      <point x="581.0" y="1361.0" type="curve" smooth="yes"/>
      <point x="581.0" y="1224.0" type="line"/>
      <point x="900.0" y="1224.0" type="line"/>
      <point x="900.0" y="1339.0" type="line" smooth="yes"/>
      <point x="900.0" y="1693.0"/>
      <point x="780.0" y="1781.0"/>
      <point x="503.0" y="1781.0" type="curve" smooth="yes"/>
      <point x="238.0" y="1781.0"/>
      <point x="85.0" y="1668.0"/>
      <point x="85.0" y="1355.0" type="curve" smooth="yes"/>
      <point x="85.0" y="1182.0"/>
      <point x="134.0" y="1038.0"/>
      <point x="253.0" y="909.0" type="curve" smooth="yes"/>
      <point x="404.0" y="746.0" type="line" smooth="yes"/>
      <point x="531.0" y="608.0"/>
      <point x="581.0" y="551.0"/>
      <point x="581.0" y="419.0" type="curve" smooth="yes"/>
      <point x="581.0" y="333.0"/>
      <point x="556.0" y="294.0"/>
      <point x="503.0" y="294.0" type="curve" smooth="yes"/>
      <point x="449.0" y="294.0"/>
      <point x="421.0" y="327.0"/>
      <point x="421.0" y="440.0" type="curve" smooth="yes"/>
      <point x="421.0" y="610.0" type="line"/>
      <point x="89.0" y="610.0" type="line"/>
      <point x="89.0" y="473.0" type="line" smooth="yes"/>
      <point x="89.0" y="123.0"/>
      <point x="206.0" y="-21.0"/>
    </contour>
    <contour>
      <point x="538.5" y="-669.633789062" type="curve" smooth="yes"/>
      <point x="740.967773438" y="-669.633789062"/>
      <point x="838.13671875" y="-544.073242188"/>
      <point x="838.13671875" y="-409.908203125" type="curve" smooth="yes"/>
      <point x="838.13671875" y="-282.572265625"/>
      <point x="740.608398438" y="-177.485351562"/>
      <point x="572.5" y="-134.633789062" type="curve"/>
      <point x="552.5" y="1.3662109375" type="line"/>
      <point x="451.5" y="1.3662109375" type="line"/>
      <point x="411.5" y="-194.633789062" type="line"/>
      <point x="493.5" y="-212.633789062"/>
      <point x="571.5" y="-267.633789062"/>
      <point x="571.5" y="-357.633789062" type="curve" smooth="yes"/>
      <point x="571.5" y="-432.633789062"/>
      <point x="529.5" y="-499.633789062"/>
      <point x="340.5" y="-499.633789062" type="curve"/>
      <point x="340.5" y="-629.633789062" type="line"/>
      <point x="404.5" y="-656.633789062"/>
      <point x="470.5" y="-669.633789062"/>
    </contour>
  </outline>
</glyph>
<glyph name="Scedilla" format="1">
  <advance width="973"/>
  <unicode hex="015E"/>
  <outline>
    <contour>
      <point x="89" y="123"/>
      <point x="206" y="-21"/>
      <point x="512" y="-21" type="curve" smooth="yes"/>
      <point x="828" y="-21"/>
      <point x="919" y="153"/>
      <point x="919" y="484" type="curve" smooth="yes"/>
      <point x="919" y="723"/>
      <point x="819" y="841"/>
      <point x="693" y="981" type="curve" smooth="yes"/>
      <point x="510" y="1185" type="line" smooth="yes"/>
      <point x="430" y="1275"/>
      <point x="418" y="1334"/>
      <point x="418" y="1383" type="curve" smooth="yes"/>
      <point x="418" y="1452"/>
      <point x="453" y="1474"/>
      <point x="498" y="1474" type="curve" smooth="yes"/>
      <point x="532" y="1474"/>
      <point x="581" y="1453"/>
      <point x="581" y="1361" type="curve" smooth="yes"/>
      <point x="581" y="1224" type="line"/>
      <point x="900" y="1224" type="line"/>
      <point x="900" y="1339" type="line" smooth="yes"/>
      <point x="900" y="1693"/>
      <point x="780" y="1781"/>
      <point x="503" y="1781" type="curve" smooth="yes"/>
      <point x="238" y="1781"/>
      <point x="85" y="1668"/>
      <point x="85" y="1355" type="curve" smooth="yes"/>
      <point x="85" y="1182"/>
      <point x="134" y="1038"/>
      <point x="253" y="909" type="curve" smooth="yes"/>
      <point x="404" y="746" type="line" smooth="yes"/>
      <point x="531" y="608"/>
      <point x="581" y="551"/>
      <point x="581" y="419" type="curve" smooth="yes"/>
      <point x="581" y="333"/>
      <point x="556" y="294"/>
      <point x="503" y="294" type="curve" smooth="yes"/>
      <point x="449" y="294"/>
      <point x="421" y="327"/>
      <point x="421" y="440" type="curve" smooth="yes"/>
      <point x="421" y="610" type="line"/>
      <point x="89" y="610" type="line"/>
      <point x="89" y="473" type="line" smooth="yes"/>
    </contour>
    <contour>
      <point x="404.5" y="-656.634"/>
      <point x="470.5" y="-669.634"/>
      <point x="538.5" y="-669.634" type="curve" smooth="yes"/>
      <point x="740.968" y="-669.634"/>
      <point x="838.137" y="-544.073"/>
      <point x="838.137" y="-409.908" type="curve" smooth="yes"/>
      <point x="838.137" y="-282.572"/>
      <point x="740.608" y="-177.485"/>
      <point x="572.5" y="-134.634" type="curve"/>
      <point x="552.5" y="1.36621" type="line"/>
      <point x="451.5" y="1.36621" type="line"/>
      <point x="411.5" y="-194.634" type="line"/>
      <point x="493.5" y="-212.634"/>
      <point x="571.5" y="-267.634"/>
      <point x="571.5" y="-357.634" type="curve" smooth="yes"/>
      <point x="571.5" y="-432.634"/>
      <point x="529.5" y="-499.634"/>
      <point x="340.5" y="-499.634" type="curve"/>
      <point x="340.5" y="-629.634" type="line"/>
    </contour>
  </outline>
</glyph>
<glyph name="scedilla" format="1">
  <advance width="941"/>
  <unicode hex="015F"/>
  <outline>
    <contour>
      <point x="73" y="96"/>
      <point x="199" y="-21"/>
      <point x="475" y="-21" type="curve" smooth="yes"/>
      <point x="730" y="-21"/>
      <point x="890" y="94"/>
      <point x="890" y="396" type="curve" smooth="yes"/>
      <point x="890" y="399" type="line" smooth="yes"/>
      <point x="889" y="627"/>
      <point x="804" y="725"/>
      <point x="660" y="852" type="curve" smooth="yes"/>
      <point x="467" y="1023" type="line" smooth="yes"/>
      <point x="429" y="1057"/>
      <point x="409" y="1102"/>
      <point x="409" y="1155" type="curve" smooth="yes"/>
      <point x="409" y="1205"/>
      <point x="428" y="1239"/>
      <point x="484" y="1239" type="curve" smooth="yes"/>
      <point x="539" y="1239"/>
      <point x="562" y="1207"/>
      <point x="562" y="1128" type="curve" smooth="yes"/>
      <point x="562" y="1035" type="line"/>
      <point x="863" y="1035" type="line"/>
      <point x="863" y="1132" type="line" smooth="yes"/>
      <point x="863" y="1423"/>
      <point x="742" y="1518"/>
      <point x="481" y="1518" type="curve" smooth="yes"/>
      <point x="224.678" y="1518"/>
      <point x="77" y="1394.18"/>
      <point x="77" y="1127" type="curve" smooth="yes"/>
      <point x="77" y="943"/>
      <point x="127" y="855"/>
      <point x="248" y="752" type="curve" smooth="yes"/>
      <point x="426" y="598" type="line" smooth="yes"/>
      <point x="515" y="522"/>
      <point x="546" y="501"/>
      <point x="546" y="371" type="curve" smooth="yes"/>
      <point x="546" y="293"/>
      <point x="526" y="263"/>
      <point x="475" y="263" type="curve" smooth="yes"/>
      <point x="416" y="263"/>
      <point x="396" y="304"/>
      <point x="396" y="372" type="curve" smooth="yes"/>
      <point x="396" y="505" type="line"/>
      <point x="73" y="505" type="line"/>
      <point x="73" y="432" type="line" smooth="yes"/>
    </contour>
    <contour>
      <point x="384" y="-656.634"/>
      <point x="450" y="-669.634"/>
      <point x="518" y="-669.634" type="curve" smooth="yes"/>
      <point x="720.468" y="-669.634"/>
      <point x="817.637" y="-544.073"/>
      <point x="817.637" y="-409.908" type="curve" smooth="yes"/>
      <point x="817.637" y="-282.572"/>
      <point x="720.108" y="-177.485"/>
      <point x="552" y="-134.634" type="curve"/>
      <point x="532" y="1.36621" type="line"/>
      <point x="431" y="1.36621" type="line"/>
      <point x="391" y="-194.634" type="line"/>
      <point x="473" y="-212.634"/>
      <point x="551" y="-267.634"/>
      <point x="551" y="-357.634" type="curve" smooth="yes"/>
      <point x="551" y="-432.634"/>
      <point x="509" y="-499.634"/>
      <point x="320" y="-499.634" type="curve"/>
      <point x="320" y="-629.634" type="line"/>
    </contour>
  </outline>
</glyph>
<glyph name="Tcommaaccent" format="1">
  <advance width="834"/>
  <unicode hex="0162"/>
  <outline>
    <contour>
      <point x="413.5" y="-648.6328125" type="curve" smooth="yes"/>
      <point x="615.967773438" y="-648.6328125"/>
      <point x="713.13671875" y="-523.072265625"/>
      <point x="713.13671875" y="-388.907226562" type="curve" smooth="yes"/>
      <point x="713.13671875" y="-261.571289062"/>
      <point x="615.608398438" y="-156.484375"/>
      <point x="447.5" y="-113.6328125" type="curve"/>
      <point x="427.5" y="22.3671875" type="line"/>
      <point x="326.5" y="22.3671875" type="line"/>
      <point x="286.5" y="-173.6328125" type="line"/>
      <point x="368.5" y="-191.6328125"/>
      <point x="446.5" y="-246.6328125"/>
      <point x="446.5" y="-336.6328125" type="curve" smooth="yes"/>
      <point x="446.5" y="-411.6328125"/>
      <point x="404.5" y="-478.6328125"/>
      <point x="215.5" y="-478.6328125" type="curve"/>
      <point x="215.5" y="-608.6328125" type="line"/>
      <point x="279.5" y="-635.6328125"/>
      <point x="345.5" y="-648.6328125"/>
    </contour>
    <contour>
      <point x="237.0" y="1439.0" type="line"/>
      <point x="237.0" y="0.0" type="line"/>
      <point x="597.0" y="0.0" type="line"/>
      <point x="597.0" y="1439.0" type="line"/>
      <point x="802.0" y="1439.0" type="line"/>
      <point x="802.0" y="1761.0" type="line"/>
      <point x="32.0" y="1761.0" type="line"/>
      <point x="32.0" y="1439.0" type="line"/>
    </contour>
  </outline>
</glyph>
<glyph name="ubreve" format="1">
  <advance width="1099"/>
  <unicode hex="016D"/>
  <outline>
    <contour>
      <point x="546" y="1871" type="curve" smooth="yes"/>
      <point x="463" y="1871"/>
      <point x="411" y="1889"/>
      <point x="411" y="2014" type="curve"/>
      <point x="193" y="2014" type="line"/>
      <point x="193" y="1999" type="line" smooth="yes"/>
      <point x="193" y="1782"/>
      <point x="310" y="1681"/>
      <point x="544" y="1681" type="curve" smooth="yes"/>
      <point x="784" y="1681"/>
      <point x="899" y="1778"/>
      <point x="899" y="2001" type="curve" smooth="yes"/>
      <point x="899" y="2014" type="line"/>
      <point x="681" y="2014" type="line"/>
      <point x="681" y="1889"/>
      <point x="629" y="1871"/>
    </contour>
    <contour>
      <point x="545" y="264" type="curve" smooth="yes"/>
      <point x="457" y="264"/>
      <point x="465" y="342"/>
      <point x="465" y="455" type="curve" smooth="yes"/>
      <point x="465" y="1500" type="line"/>
      <point x="105" y="1500" type="line"/>
      <point x="105" y="383" type="line" smooth="yes"/>
      <point x="105" y="143"/>
      <point x="157" y="-18"/>
      <point x="398" y="-18" type="curve" smooth="yes"/>
      <point x="534" y="-18"/>
      <point x="583" y="45"/>
      <point x="629" y="160" type="curve"/>
      <point x="629" y="0" type="line"/>
      <point x="987" y="0" type="line"/>
      <point x="987" y="1500" type="line"/>
      <point x="631" y="1500" type="line"/>
      <point x="629" y="443" type="line"/>
      <point x="629" y="360"/>
      <point x="628" y="264"/>
    </contour>
  </outline>
</glyph>
<glyph name="Uogonek" format="1">
  <advance width="1110"/>
  <unicode hex="0172"/>
  <outline>
    <contour>
      <point x="475.5" y="-299.133789062" type="curve" smooth="yes"/>
      <point x="475.5" y="-189.133789062"/>
      <point x="551.5" y="-90.1337890625"/>
      <point x="625.5" y="-0.1337890625" type="curve"/>
      <point x="484.5" y="-0.1337890625" type="line"/>
      <point x="308.5" y="-99.1337890625"/>
      <point x="230.5" y="-239.133789062"/>
      <point x="230.5" y="-360.133789062" type="curve" smooth="yes"/>
      <point x="230.5" y="-534.133789062"/>
      <point x="347.5" y="-626.133789062"/>
      <point x="537.5" y="-626.133789062" type="curve" smooth="yes"/>
      <point x="605.5" y="-626.133789062"/>
      <point x="683.5" y="-604.133789062"/>
      <point x="706.5" y="-591.133789062" type="curve"/>
      <point x="706.5" y="-418.133789062" type="line"/>
      <point x="682.5" y="-423.133789062"/>
      <point x="656.5" y="-426.133789062"/>
      <point x="631.5" y="-426.133789062" type="curve" smooth="yes"/>
      <point x="551.5" y="-426.133789062"/>
      <point x="475.5" y="-396.133789062"/>
    </contour>
    <contour>
      <point x="556.0" y="-21.0" type="curve" smooth="yes"/>
      <point x="849.0" y="-21.0"/>
      <point x="1000.0" y="132.0"/>
      <point x="1000.0" y="452.0" type="curve" smooth="yes"/>
      <point x="1000.0" y="1761.0" type="line"/>
      <point x="640.0" y="1761.0" type="line"/>
      <point x="640.0" y="457.0" type="line" smooth="yes"/>
      <point x="640.0" y="368.0"/>
      <point x="635.0" y="294.0"/>
      <point x="554.0" y="294.0" type="curve" smooth="yes"/>
      <point x="474.0" y="294.0"/>
      <point x="470.0" y="369.0"/>
      <point x="470.0" y="457.0" type="curve" smooth="yes"/>
      <point x="470.0" y="1761.0" type="line"/>
      <point x="110.0" y="1761.0" type="line"/>
      <point x="110.0" y="452.0" type="line" smooth="yes"/>
      <point x="110.0" y="132.0"/>
      <point x="263.0" y="-21.0"/>
    </contour>
  </outline>
</glyph>
<glyph name="Uogonek" format="1">
  <advance width="1110"/>
  <unicode hex="0172"/>
  <outline>
    <contour>
      <point x="110" y="132"/>
      <point x="263" y="-21"/>
      <point x="556" y="-21" type="curve" smooth="yes"/>
      <point x="849" y="-21"/>
      <point x="1000" y="132"/>
      <point x="1000" y="452" type="curve" smooth="yes"/>
      <point x="1000" y="1761" type="line"/>
      <point x="640" y="1761" type="line"/>
      <point x="640" y="457" type="line" smooth="yes"/>
      <point x="640" y="368"/>
      <point x="635" y="294"/>
      <point x="554" y="294" type="curve" smooth="yes"/>
      <point x="474" y="294"/>
      <point x="470" y="369"/>
      <point x="470" y="457" type="curve" smooth="yes"/>
      <point x="470" y="1761" type="line"/>
      <point x="110" y="1761" type="line"/>
      <point x="110" y="452" type="line" smooth="yes"/>
    </contour>
    <contour>
      <point x="230.5" y="-534.134"/>
      <point x="347.5" y="-626.134"/>
      <point x="537.5" y="-626.134" type="curve" smooth="yes"/>
      <point x="605.5" y="-626.134"/>
      <point x="683.5" y="-604.134"/>
      <point x="706.5" y="-591.134" type="curve"/>
      <point x="706.5" y="-418.134" type="line"/>
      <point x="682.5" y="-423.134"/>
      <point x="656.5" y="-426.134"/>
      <point x="631.5" y="-426.134" type="curve" smooth="yes"/>
      <point x="551.5" y="-426.134"/>
      <point x="475.5" y="-396.134"/>
      <point x="475.5" y="-299.134" type="curve" smooth="yes"/>
      <point x="475.5" y="-189.134"/>
      <point x="551.5" y="-90.1338"/>
      <point x="625.5" y="-0.133789" type="curve"/>
      <point x="484.5" y="-0.133789" type="line"/>
      <point x="308.5" y="-99.1338"/>
      <point x="230.5" y="-239.134"/>
      <point x="230.5" y="-360.134" type="curve" smooth="yes"/>
    </contour>
  </outline>
</glyph>
<glyph name="uogonek" format="1">
  <advance width="1099"/>
  <unicode hex="0173"/>
  <outline>
    <contour>
      <point x="398" y="-18.0" type="curve" smooth="yes"/>
      <point x="534" y="-18.0"/>
      <point x="583" y="45.0"/>
      <point x="629" y="160.0" type="curve"/>
      <point x="629" y="0.0" type="line"/>
      <point x="987" y="0.0" type="line"/>
      <point x="987" y="1500.0" type="line"/>
      <point x="631" y="1500.0" type="line"/>
      <point x="629" y="443.0" type="line"/>
      <point x="629" y="360.0"/>
      <point x="628" y="264.0"/>
      <point x="545" y="264.0" type="curve" smooth="yes"/>
      <point x="457" y="264.0"/>
      <point x="465" y="342.0"/>
      <point x="465" y="455.0" type="curve" smooth="yes"/>
      <point x="465" y="1500.0" type="line"/>
      <point x="105" y="1500.0" type="line"/>
      <point x="105" y="383.0" type="line" smooth="yes"/>
      <point x="105" y="143.0"/>
      <point x="157" y="-18.0"/>
    </contour>
    <contour>
      <point x="835" y="-623.133789062" type="curve" smooth="yes"/>
      <point x="903" y="-623.133789062"/>
      <point x="981" y="-601.133789062"/>
      <point x="1004" y="-588.133789062" type="curve"/>
      <point x="1004" y="-415.133789062" type="line"/>
      <point x="980" y="-420.133789062"/>
      <point x="954" y="-423.133789062"/>
      <point x="929" y="-423.133789062" type="curve" smooth="yes"/>
      <point x="849" y="-423.133789062"/>
      <point x="773" y="-393.133789062"/>
      <point x="773" y="-296.133789062" type="curve" smooth="yes"/>
      <point x="773" y="-186.133789062"/>
      <point x="849" y="-87.1337890625"/>
      <point x="923" y="2.8662109375" type="curve"/>
      <point x="782" y="2.8662109375" type="line"/>
      <point x="606" y="-96.1337890625"/>
      <point x="528" y="-236.133789062"/>
      <point x="528" y="-357.133789062" type="curve" smooth="yes"/>
      <point x="528" y="-531.133789062"/>
      <point x="645" y="-623.133789062"/>
    </contour>
  </outline>
</glyph>
<glyph name="Wcircumflex" format="1">
  <advance width="1432"/>
  <unicode hex="0174"/>
  <outline>
    <contour>
      <point x="920" y="2347" type="line"/>
      <point x="512" y="2347" type="line"/>
      <point x="271" y="1944" type="line"/>
      <point x="630" y="1944" type="line"/>
      <point x="716" y="2229" type="line"/>
      <point x="802" y="1944" type="line"/>
      <point x="1161" y="1944" type="line"/>
    </contour>
    <contour>
      <point x="54" y="1761" type="line"/>
      <point x="243" y="0" type="line"/>
      <point x="612" y="0" type="line"/>
      <point x="716" y="977" type="line"/>
      <point x="824" y="0" type="line"/>
      <point x="1186" y="0" type="line"/>
      <point x="1378" y="1761" type="line"/>
      <point x="1060" y="1761" type="line"/>
      <point x="966" y="649" type="line"/>
      <point x="862" y="1761" type="line"/>
      <point x="574" y="1761" type="line"/>
      <point x="465" y="649" type="line"/>
      <point x="368" y="1761" type="line"/>
    </contour>
  </outline>
</glyph>
<glyph name="wcircumflex" format="1">
  <advance width="1449"/>
  <unicode hex="0175"/>
  <outline>
    <contour>
      <point x="265" y="0" type="line"/>
      <point x="621" y="0" type="line"/>
      <point x="725" y="911" type="line"/>
      <point x="833" y="0" type="line"/>
      <point x="1189" y="0" type="line"/>
      <point x="1393" y="1500" type="line"/>
      <point x="1083" y="1500" type="line"/>
      <point x="985" y="570" type="line"/>
      <point x="869" y="1500" type="line"/>
      <point x="562" y="1500" type="line"/>
      <point x="477" y="570" type="line"/>
      <point x="369" y="1500" type="line"/>
      <point x="56" y="1500" type="line"/>
    </contour>
    <contour>
      <point x="279.5" y="1681" type="line"/>
      <point x="638.5" y="1681" type="line"/>
      <point x="724.5" y="1966" type="line"/>
      <point x="810.5" y="1681" type="line"/>
      <point x="1169.5" y="1681" type="line"/>
      <point x="928.5" y="2084" type="line"/>
      <point x="520.5" y="2084" type="line"/>
    </contour>
  </outline>
</glyph>
<glyph name="Ydieresis" format="1">
  <advance width="931"/>
  <unicode hex="0178"/>
  <outline>
    <contour>
      <point x="300.0" y="0" type="line"/>
      <point x="632.0" y="0" type="line"/>
      <point x="632.0" y="649" type="line"/>
      <point x="912.0" y="1761" type="line"/>
      <point x="589.0" y="1761" type="line"/>
      <point x="474.0" y="1156" type="line"/>
      <point x="469.0" y="1156" type="line"/>
      <point x="346.0" y="1761" type="line"/>
      <point x="19.0" y="1761" type="line"/>
      <point x="300.0" y="649" type="line"/>
    </contour>
    <contour>
      <point x="44.5" y="1944" type="line"/>
      <point x="402.5" y="1944" type="line"/>
      <point x="402.5" y="2242" type="line"/>
      <point x="44.5" y="2242" type="line"/>
    </contour>
    <contour>
      <point x="528.5" y="1944" type="line"/>
      <point x="886.5" y="1944" type="line"/>
      <point x="886.5" y="2242" type="line"/>
      <point x="528.5" y="2242" type="line"/>
    </contour>
  </outline>
</glyph>
<glyph name="Zacute" format="1">
  <advance width="878"/>
  <unicode hex="0179"/>
  <outline>
    <contour>
      <point x="209" y="1944" type="line"/>
      <point x="684" y="2038" type="line"/>
      <point x="684" y="2385" type="line"/>
      <point x="209" y="2167" type="line"/>
    </contour>
    <contour>
      <point x="813" y="318" type="line"/>
      <point x="455" y="318" type="line"/>
      <point x="821" y="1454" type="line"/>
      <point x="821" y="1761" type="line"/>
      <point x="105" y="1761" type="line"/>
      <point x="105" y="1440" type="line"/>
      <point x="440" y="1440" type="line"/>
      <point x="72" y="325" type="line"/>
      <point x="72" y="0" type="line"/>
      <point x="813" y="0" type="line"/>
    </contour>
  </outline>
</glyph>
<glyph name="Zdotaccent" format="1">
  <advance width="878"/>
  <unicode hex="017B"/>
  <outline>
    <contour>
      <point x="267.5" y="1944" type="line"/>
      <point x="625.5" y="1944" type="line"/>
      <point x="625.5" y="2242" type="line"/>
      <point x="267.5" y="2242" type="line"/>
    </contour>
    <contour>
      <point x="813.0" y="318" type="line"/>
      <point x="455.0" y="318" type="line"/>
      <point x="821.0" y="1454" type="line"/>
      <point x="821.0" y="1761" type="line"/>
      <point x="105.0" y="1761" type="line"/>
      <point x="105.0" y="1440" type="line"/>
      <point x="440.0" y="1440" type="line"/>
      <point x="72.0" y="325" type="line"/>
      <point x="72.0" y="0" type="line"/>
      <point x="813.0" y="0" type="line"/>
    </contour>
  </outline>
</glyph>
<glyph name="Zcaron" format="1">
  <advance width="878"/>
  <unicode hex="017D"/>
  <outline>
    <contour>
      <point x="72" y="0" type="line"/>
      <point x="813" y="0" type="line"/>
      <point x="813" y="318" type="line"/>
      <point x="455" y="318" type="line"/>
      <point x="821" y="1454" type="line"/>
      <point x="821" y="1761" type="line"/>
      <point x="105" y="1761" type="line"/>
      <point x="105" y="1440" type="line"/>
      <point x="440" y="1440" type="line"/>
      <point x="72" y="325" type="line"/>
    </contour>
    <contour>
      <point x="242.5" y="1944" type="line"/>
      <point x="650.5" y="1944" type="line"/>
      <point x="891.5" y="2347" type="line"/>
      <point x="532.5" y="2347" type="line"/>
      <point x="446.5" y="2062" type="line"/>
      <point x="360.5" y="2347" type="line"/>
      <point x="1.5" y="2347" type="line"/>
    </contour>
  </outline>
</glyph>
<glyph name="zcaron" format="1">
  <advance width="821"/>
  <unicode hex="017E"/>
  <outline>
    <contour>
      <point x="621" y="1681" type="line"/>
      <point x="862" y="2084" type="line"/>
      <point x="503" y="2084" type="line"/>
      <point x="417" y="1799" type="line"/>
      <point x="331" y="2084" type="line"/>
      <point x="-28" y="2084" type="line"/>
      <point x="213" y="1681" type="line"/>
    </contour>
    <contour>
      <point x="745" y="294" type="line"/>
      <point x="431" y="294" type="line"/>
      <point x="759" y="1233" type="line"/>
      <point x="759" y="1500" type="line"/>
      <point x="100" y="1500" type="line"/>
      <point x="100" y="1197" type="line"/>
      <point x="405" y="1197" type="line"/>
      <point x="75" y="272" type="line"/>
      <point x="75" y="0" type="line"/>
      <point x="745" y="0" type="line"/>
    </contour>
  </outline>
</glyph>
<glyph name="uni01C5" format="1">
  <advance width="1930"/>
  <unicode hex="01C5"/>
  <outline>
    <contour>
      <point x="1184" y="0" type="line"/>
      <point x="1854" y="0" type="line"/>
      <point x="1854" y="294" type="line"/>
      <point x="1540" y="294" type="line"/>
      <point x="1868" y="1233" type="line"/>
      <point x="1868" y="1500" type="line"/>
      <point x="1209" y="1500" type="line"/>
      <point x="1209" y="1197" type="line"/>
      <point x="1514" y="1197" type="line"/>
      <point x="1184" y="272" type="line"/>
    </contour>
    <contour>
      <point x="1322" y="1681" type="line"/>
      <point x="1730" y="1681" type="line"/>
      <point x="1971" y="2084" type="line"/>
      <point x="1612" y="2084" type="line"/>
      <point x="1526" y="1799" type="line"/>
      <point x="1440" y="2084" type="line"/>
      <point x="1081" y="2084" type="line"/>
    </contour>
    <contour>
      <point x="482" y="270" type="line"/>
      <point x="482" y="1490" type="line"/>
      <point x="521" y="1490" type="line" smooth="yes"/>
      <point x="621" y="1490"/>
      <point x="644" y="1440"/>
      <point x="644" y="1323" type="curve" smooth="yes"/>
      <point x="644" y="364" type="line" smooth="yes"/>
      <point x="644" y="301"/>
      <point x="610" y="270"/>
      <point x="543" y="270" type="curve" smooth="yes"/>
    </contour>
    <contour>
      <point x="122" y="0" type="line"/>
      <point x="601" y="0" type="line" smooth="yes"/>
      <point x="893" y="0"/>
      <point x="1004" y="189"/>
      <point x="1004" y="522" type="curve" smooth="yes"/>
      <point x="1004" y="1347" type="line" smooth="yes"/>
      <point x="1004" y="1617"/>
      <point x="866" y="1761"/>
      <point x="613" y="1761" type="curve" smooth="yes"/>
      <point x="122" y="1761" type="line"/>
    </contour>
  </outline>
</glyph>
<glyph name="uni01C7" format="1">
  <advance width="1913"/>
  <unicode hex="01C7"/>
  <outline>
    <contour>
      <point x="1355" y="-21" type="curve" smooth="yes"/>
      <point x="1606" y="-21"/>
      <point x="1785" y="160"/>
      <point x="1785" y="440" type="curve" smooth="yes"/>
      <point x="1785" y="1761" type="line"/>
      <point x="1424" y="1761" type="line"/>
      <point x="1424" y="418" type="line" smooth="yes"/>
      <point x="1424" y="333"/>
      <point x="1398" y="294"/>
      <point x="1345" y="294" type="curve" smooth="yes"/>
      <point x="1290" y="294"/>
      <point x="1267" y="340"/>
      <point x="1267" y="402" type="curve" smooth="yes"/>
      <point x="1267" y="830" type="line"/>
      <point x="925" y="830" type="line"/>
      <point x="925" y="389" type="line" smooth="yes"/>
      <point x="925" y="124"/>
      <point x="1116" y="-21"/>
    </contour>
    <contour>
      <point x="122" y="0" type="line"/>
      <point x="836" y="0" type="line"/>
      <point x="836" y="318" type="line"/>
      <point x="474" y="318" type="line"/>
      <point x="474" y="1761" type="line"/>
      <point x="122" y="1761" type="line"/>
    </contour>
  </outline>
</glyph>
<glyph name="uni01C8" format="1">
  <advance width="1474"/>
  <unicode hex="01C8"/>
  <outline>
    <contour>
      <point x="930" y="-167"/>
      <point x="1010" y="-176"/>
      <point x="1087" y="-176" type="curve" smooth="yes"/>
      <point x="1293" y="-176"/>
      <point x="1369" y="-47"/>
      <point x="1369" y="166" type="curve" smooth="yes"/>
      <point x="1369" y="1500" type="line"/>
      <point x="1013" y="1500" type="line"/>
      <point x="1013" y="156" type="line" smooth="yes"/>
      <point x="1013" y="119"/>
      <point x="993" y="89"/>
      <point x="930" y="89" type="curve" smooth="yes"/>
      <point x="923" y="89"/>
      <point x="914" y="89"/>
      <point x="905" y="90" type="curve"/>
      <point x="905" y="-150" type="line"/>
    </contour>
    <contour>
      <point x="122" y="0" type="line"/>
      <point x="836" y="0" type="line"/>
      <point x="836" y="318" type="line"/>
      <point x="474" y="318" type="line"/>
      <point x="474" y="1761" type="line"/>
      <point x="122" y="1761" type="line"/>
    </contour>
    <contour>
      <point x="1013" y="1600" type="line"/>
      <point x="1369" y="1600" type="line"/>
      <point x="1369" y="1800" type="line"/>
      <point x="1013" y="1800" type="line"/>
    </contour>
  </outline>
</glyph>
<glyph name="uni01C9" format="1">
  <advance width="1204"/>
  <unicode hex="01C9"/>
  <outline>
    <contour>
      <point x="1099" y="1800" type="line"/>
      <point x="743" y="1800" type="line"/>
      <point x="743" y="1600" type="line"/>
      <point x="1099" y="1600" type="line"/>
    </contour>
    <contour>
      <point x="743" y="1500" type="line"/>
      <point x="743" y="156" type="line" smooth="yes"/>
      <point x="743" y="119"/>
      <point x="723" y="89"/>
      <point x="660" y="89" type="curve" smooth="yes"/>
      <point x="653" y="89"/>
      <point x="644" y="89"/>
      <point x="635" y="90" type="curve"/>
      <point x="635" y="-150" type="line"/>
      <point x="660" y="-167"/>
      <point x="740" y="-176"/>
      <point x="817" y="-176" type="curve" smooth="yes"/>
      <point x="1023" y="-176"/>
      <point x="1099" y="-47"/>
      <point x="1099" y="166" type="curve" smooth="yes"/>
      <point x="1099" y="1500" type="line"/>
    </contour>
    <contour>
      <point x="115" y="1769" type="line"/>
      <point x="115" y="0" type="line"/>
      <point x="479" y="0" type="line"/>
      <point x="479" y="1769" type="line"/>
    </contour>
  </outline>
</glyph>
<glyph name="uni01CA" format="1">
  <advance width="2193"/>
  <unicode hex="01CA"/>
  <outline>
    <contour>
      <point x="122" y="0" type="line"/>
      <point x="452" y="0" type="line"/>
      <point x="452" y="860" type="line"/>
      <point x="714" y="0" type="line"/>
      <point x="1022" y="0" type="line"/>
      <point x="1022" y="1761" type="line"/>
      <point x="692" y="1761" type="line"/>
      <point x="692" y="947" type="line"/>
      <point x="444" y="1761" type="line"/>
      <point x="122" y="1761" type="line"/>
    </contour>
    <contour>
      <point x="1635" y="-21" type="curve" smooth="yes"/>
      <point x="1886" y="-21"/>
      <point x="2065" y="160"/>
      <point x="2065" y="440" type="curve" smooth="yes"/>
      <point x="2065" y="1761" type="line"/>
      <point x="1704" y="1761" type="line"/>
      <point x="1704" y="418" type="line" smooth="yes"/>
      <point x="1704" y="333"/>
      <point x="1678" y="294"/>
      <point x="1625" y="294" type="curve" smooth="yes"/>
      <point x="1570" y="294"/>
      <point x="1547" y="340"/>
      <point x="1547" y="402" type="curve" smooth="yes"/>
      <point x="1547" y="830" type="line"/>
      <point x="1205" y="830" type="line"/>
      <point x="1205" y="389" type="line" smooth="yes"/>
      <point x="1205" y="124"/>
      <point x="1396" y="-21"/>
    </contour>
  </outline>
</glyph>
<glyph name="uni01CC" format="1">
  <advance width="1709"/>
  <unicode hex="01CC"/>
  <outline>
    <contour>
      <point x="1604" y="1800" type="line"/>
      <point x="1248" y="1800" type="line"/>
      <point x="1248" y="1600" type="line"/>
      <point x="1604" y="1600" type="line"/>
    </contour>
    <contour>
      <point x="1248" y="1500" type="line"/>
      <point x="1248" y="156" type="line" smooth="yes"/>
      <point x="1248" y="119"/>
      <point x="1228" y="89"/>
      <point x="1165" y="89" type="curve" smooth="yes"/>
      <point x="1158" y="89"/>
      <point x="1149" y="89"/>
      <point x="1140" y="90" type="curve"/>
      <point x="1140" y="-150" type="line"/>
      <point x="1165" y="-167"/>
      <point x="1245" y="-176"/>
      <point x="1322" y="-176" type="curve" smooth="yes"/>
      <point x="1528" y="-176"/>
      <point x="1604" y="-47"/>
      <point x="1604" y="166" type="curve" smooth="yes"/>
      <point x="1604" y="1500" type="line"/>
    </contour>
    <contour>
      <point x="558" y="1239" type="curve" smooth="yes"/>
      <point x="616" y="1239"/>
      <point x="638" y="1179"/>
      <point x="638" y="1120" type="curve" smooth="yes"/>
      <point x="638" y="0" type="line"/>
      <point x="994" y="0" type="line"/>
      <point x="994" y="1157" type="line" smooth="yes"/>
      <point x="994" y="1379"/>
      <point x="912" y="1518"/>
      <point x="704" y="1518" type="curve" smooth="yes"/>
      <point x="575" y="1518"/>
      <point x="494" y="1423"/>
      <point x="468" y="1309" type="curve"/>
      <point x="468" y="1500" type="line"/>
      <point x="112" y="1500" type="line"/>
      <point x="112" y="0" type="line"/>
      <point x="468" y="0" type="line"/>
      <point x="468" y="1055" type="line" smooth="yes"/>
      <point x="468" y="1138"/>
      <point x="475" y="1239"/>
    </contour>
  </outline>
</glyph>
<glyph name="uni0208" format="1">
  <advance width="616"/>
  <unicode hex="0208"/>
  <outline>
    <contour>
      <point x="183.5" y="1944" type="line"/>
      <point x="349.5" y="2002" type="line"/>
      <point x="128.5" y="2481" type="line"/>
      <point x="-105.5" y="2373" type="line"/>
    </contour>
    <contour>
      <point x="128.0" y="0" type="line"/>
      <point x="488.0" y="0" type="line"/>
      <point x="488.0" y="1761" type="line"/>
      <point x="128.0" y="1761" type="line"/>
    </contour>
    <contour>
      <point x="555.5" y="1944" type="line"/>
      <point x="721.5" y="2002" type="line"/>
      <point x="537.5" y="2481" type="line"/>
      <point x="307.5" y="2373" type="line"/>
    </contour>
  </outline>
</glyph>
<glyph name="uni020A" format="1">
  <advance width="616"/>
  <unicode hex="020A"/>
  <outline>
    <contour>
      <point x="-45" y="1944" type="line"/>
      <point x="173" y="1944" type="line"/>
      <point x="173" y="2069"/>
      <point x="225" y="2087"/>
      <point x="308" y="2087" type="curve" smooth="yes"/>
      <point x="391" y="2087"/>
      <point x="443" y="2069"/>
      <point x="443" y="1944" type="curve"/>
      <point x="661" y="1944" type="line"/>
      <point x="661" y="1959" type="line" smooth="yes"/>
      <point x="661" y="2176"/>
      <point x="544" y="2277"/>
      <point x="310" y="2277" type="curve" smooth="yes"/>
      <point x="70" y="2277"/>
      <point x="-45" y="2180"/>
      <point x="-45" y="1957" type="curve" smooth="yes"/>
    </contour>
    <contour>
      <point x="128" y="0" type="line"/>
      <point x="488" y="0" type="line"/>
      <point x="488" y="1761" type="line"/>
      <point x="128" y="1761" type="line"/>
    </contour>
  </outline>
</glyph>
<glyph name="uni020F" format="1">
  <advance width="1076"/>
  <unicode hex="020F"/>
  <outline>
    <contour>
      <point x="538" y="1824" type="curve" smooth="yes"/>
      <point x="621" y="1824"/>
      <point x="673" y="1806"/>
      <point x="673" y="1681" type="curve"/>
      <point x="891" y="1681" type="line"/>
      <point x="891" y="1696" type="line" smooth="yes"/>
      <point x="891" y="1913"/>
      <point x="774" y="2014"/>
      <point x="540" y="2014" type="curve" smooth="yes"/>
      <point x="300" y="2014"/>
      <point x="185" y="1917"/>
      <point x="185" y="1694" type="curve" smooth="yes"/>
      <point x="185" y="1681" type="line"/>
      <point x="403" y="1681" type="line"/>
      <point x="403" y="1806"/>
      <point x="455" y="1824"/>
    </contour>
    <contour>
      <point x="538" y="260" type="curve" smooth="yes"/>
      <point x="478" y="260"/>
      <point x="454" y="308"/>
      <point x="454" y="375" type="curve" smooth="yes"/>
      <point x="454" y="1108" type="line" smooth="yes"/>
      <point x="454" y="1195"/>
      <point x="482" y="1239"/>
      <point x="538" y="1239" type="curve" smooth="yes"/>
      <point x="594" y="1239"/>
      <point x="622" y="1195"/>
      <point x="622" y="1108" type="curve" smooth="yes"/>
      <point x="622" y="375" type="line" smooth="yes"/>
      <point x="622" y="308"/>
      <point x="598" y="260"/>
    </contour>
    <contour>
      <point x="978" y="1051" type="line" smooth="yes"/>
      <point x="978" y="1334"/>
      <point x="819" y="1518"/>
      <point x="538" y="1518" type="curve" smooth="yes"/>
      <point x="258" y="1518"/>
      <point x="98" y="1333"/>
      <point x="98" y="1051" type="curve" smooth="yes"/>
      <point x="98" y="449" type="line" smooth="yes"/>
      <point x="98" y="138"/>
      <point x="239" y="-18"/>
      <point x="538" y="-18" type="curve" smooth="yes"/>
      <point x="839" y="-18"/>
      <point x="978" y="143"/>
      <point x="978" y="449" type="curve" smooth="yes"/>
    </contour>
  </outline>
</glyph>
<glyph name="uni0210" format="1">
  <advance width="1109"/>
  <unicode hex="0210"/>
  <outline>
    <contour>
      <point x="122.0" y="0" type="line"/>
      <point x="480.0" y="0" type="line"/>
      <point x="480.0" y="803" type="line"/>
      <point x="573.0" y="803"/>
      <point x="640.0" y="792"/>
      <point x="640.0" y="689" type="curve" smooth="yes"/>
      <point x="640.0" y="0" type="line"/>
      <point x="1001.0" y="0" type="line"/>
      <point x="1002.0" y="666" type="line" smooth="yes"/>
      <point x="1002.0" y="805"/>
      <point x="946.0" y="915"/>
      <point x="836.0" y="938" type="curve"/>
      <point x="970.0" y="982"/>
      <point x="994.0" y="1077"/>
      <point x="994.0" y="1269" type="curve" smooth="yes"/>
      <point x="994.0" y="1566"/>
      <point x="944.0" y="1761"/>
      <point x="674.0" y="1761" type="curve" smooth="yes"/>
      <point x="122.0" y="1761" type="line"/>
    </contour>
    <contour>
      <point x="482.0" y="1094" type="line"/>
      <point x="482.0" y="1490" type="line"/>
      <point x="515.0" y="1490" type="line" smooth="yes"/>
      <point x="633.0" y="1490"/>
      <point x="640.0" y="1442"/>
      <point x="640.0" y="1305" type="curve" smooth="yes"/>
      <point x="640.0" y="1154"/>
      <point x="626.0" y="1094"/>
      <point x="550.0" y="1094" type="curve" smooth="yes"/>
    </contour>
    <contour>
      <point x="437.5" y="1944" type="line"/>
      <point x="603.5" y="2002" type="line"/>
      <point x="382.5" y="2481" type="line"/>
      <point x="148.5" y="2373" type="line"/>
    </contour>
    <contour>
      <point x="809.5" y="1944" type="line"/>
      <point x="975.5" y="2002" type="line"/>
      <point x="791.5" y="2481" type="line"/>
      <point x="561.5" y="2373" type="line"/>
    </contour>
  </outline>
</glyph>
<glyph name="uni0212" format="1">
  <advance width="1109"/>
  <unicode hex="0212"/>
  <outline>
    <contour>
      <point x="122" y="0" type="line"/>
      <point x="480" y="0" type="line"/>
      <point x="480" y="803" type="line"/>
      <point x="573" y="803"/>
      <point x="640" y="792"/>
      <point x="640" y="689" type="curve" smooth="yes"/>
      <point x="640" y="0" type="line"/>
      <point x="1001" y="0" type="line"/>
      <point x="1002" y="666" type="line" smooth="yes"/>
      <point x="1002" y="805"/>
      <point x="946" y="915"/>
      <point x="836" y="938" type="curve"/>
      <point x="970" y="982"/>
      <point x="994" y="1077"/>
      <point x="994" y="1269" type="curve" smooth="yes"/>
      <point x="994" y="1566"/>
      <point x="944" y="1761"/>
      <point x="674" y="1761" type="curve" smooth="yes"/>
      <point x="122" y="1761" type="line"/>
    </contour>
    <contour>
      <point x="209" y="1944" type="line"/>
      <point x="427" y="1944" type="line"/>
      <point x="427" y="2069"/>
      <point x="479" y="2087"/>
      <point x="562" y="2087" type="curve" smooth="yes"/>
      <point x="645" y="2087"/>
      <point x="697" y="2069"/>
      <point x="697" y="1944" type="curve"/>
      <point x="915" y="1944" type="line"/>
      <point x="915" y="1959" type="line" smooth="yes"/>
      <point x="915" y="2176"/>
      <point x="798" y="2277"/>
      <point x="564" y="2277" type="curve" smooth="yes"/>
      <point x="324" y="2277"/>
      <point x="209" y="2180"/>
      <point x="209" y="1957" type="curve" smooth="yes"/>
    </contour>
    <contour>
      <point x="482" y="1094" type="line"/>
      <point x="482" y="1490" type="line"/>
      <point x="515" y="1490" type="line" smooth="yes"/>
      <point x="633" y="1490"/>
      <point x="640" y="1442"/>
      <point x="640" y="1305" type="curve" smooth="yes"/>
      <point x="640" y="1154"/>
      <point x="626" y="1094"/>
      <point x="550" y="1094" type="curve" smooth="yes"/>
    </contour>
  </outline>
</glyph>
<glyph name="uni0213" format="1">
  <advance width="759"/>
  <unicode hex="0213"/>
  <outline>
    <contour>
      <point x="420.197265625" y="1824" type="curve" smooth="yes"/>
      <point x="503.197265625" y="1824"/>
      <point x="555.197265625" y="1806"/>
      <point x="555.197265625" y="1681" type="curve"/>
      <point x="773.197265625" y="1681" type="line"/>
      <point x="773.197265625" y="1696" type="line" smooth="yes"/>
      <point x="773.197265625" y="1913"/>
      <point x="656.197265625" y="2014"/>
      <point x="422.197265625" y="2014" type="curve" smooth="yes"/>
      <point x="182.197265625" y="2014"/>
      <point x="67.197265625" y="1917"/>
      <point x="67.197265625" y="1694" type="curve" smooth="yes"/>
      <point x="67.197265625" y="1681" type="line"/>
      <point x="285.197265625" y="1681" type="line"/>
      <point x="285.197265625" y="1806"/>
      <point x="337.197265625" y="1824"/>
    </contour>
    <contour>
      <point x="470.0" y="1147" type="line" smooth="yes"/>
      <point x="470.0" y="1187"/>
      <point x="640.0" y="1219"/>
      <point x="728.0" y="1219" type="curve"/>
      <point x="728.0" y="1219"/>
      <point x="730.0" y="1518"/>
      <point x="725.0" y="1518" type="curve" smooth="yes"/>
      <point x="592.0" y="1518"/>
      <point x="504.0" y="1449"/>
      <point x="470.0" y="1333" type="curve"/>
      <point x="470.0" y="1500" type="line"/>
      <point x="112.0" y="1500" type="line"/>
      <point x="112.0" y="0" type="line"/>
      <point x="470.0" y="0" type="line"/>
    </contour>
  </outline>
</glyph>
<glyph name="uni0215" format="1">
  <advance width="1099"/>
  <unicode hex="0215"/>
  <outline>
    <contour>
      <point x="398.0" y="-18" type="curve" smooth="yes"/>
      <point x="534.0" y="-18"/>
      <point x="583.0" y="45"/>
      <point x="629.0" y="160" type="curve"/>
      <point x="629.0" y="0" type="line"/>
      <point x="987.0" y="0" type="line"/>
      <point x="987.0" y="1500" type="line"/>
      <point x="631.0" y="1500" type="line"/>
      <point x="629.0" y="443" type="line"/>
      <point x="629.0" y="360"/>
      <point x="628.0" y="264"/>
      <point x="545.0" y="264" type="curve" smooth="yes"/>
      <point x="457.0" y="264"/>
      <point x="465.0" y="342"/>
      <point x="465.0" y="455" type="curve" smooth="yes"/>
      <point x="465.0" y="1500" type="line"/>
      <point x="105.0" y="1500" type="line"/>
      <point x="105.0" y="383" type="line" smooth="yes"/>
      <point x="105.0" y="143"/>
      <point x="157.0" y="-18"/>
    </contour>
    <contour>
      <point x="421.5" y="1681" type="line"/>
      <point x="587.5" y="1739" type="line"/>
      <point x="366.5" y="2218" type="line"/>
      <point x="132.5" y="2110" type="line"/>
    </contour>
    <contour>
      <point x="793.5" y="1681" type="line"/>
      <point x="959.5" y="1739" type="line"/>
      <point x="775.5" y="2218" type="line"/>
      <point x="545.5" y="2110" type="line"/>
    </contour>
  </outline>
</glyph>
<glyph name="uni0237" format="1">
  <advance width="610"/>
  <unicode hex="0237"/>
  <outline>
    <contour>
      <point x="149" y="1500" type="line"/>
      <point x="149" y="156" type="line" smooth="yes"/>
      <point x="149" y="119"/>
      <point x="129" y="89"/>
      <point x="66" y="89" type="curve" smooth="yes"/>
      <point x="59" y="89"/>
      <point x="50" y="89"/>
      <point x="41" y="90" type="curve"/>
      <point x="41" y="-150" type="line"/>
      <point x="66" y="-167"/>
      <point x="146" y="-176"/>
      <point x="223" y="-176" type="curve" smooth="yes"/>
      <point x="429" y="-176"/>
      <point x="505" y="-47"/>
      <point x="505" y="166" type="curve" smooth="yes"/>
      <point x="505" y="1500" type="line"/>
    </contour>
  </outline>
</glyph>
<glyph name="breve" format="1">
  <advance width="1016"/>
  <unicode hex="02D8"/>
  <outline>
    <contour>
      <point x="508" y="1802" type="curve" smooth="yes"/>
      <point x="425" y="1802"/>
      <point x="373" y="1820"/>
      <point x="373" y="1945" type="curve"/>
      <point x="155" y="1945" type="line"/>
      <point x="155" y="1930" type="line" smooth="yes"/>
      <point x="155" y="1713"/>
      <point x="272" y="1612"/>
      <point x="506" y="1612" type="curve" smooth="yes"/>
      <point x="746" y="1612"/>
      <point x="861" y="1709"/>
      <point x="861" y="1932" type="curve" smooth="yes"/>
      <point x="861" y="1945" type="line"/>
      <point x="643" y="1945" type="line"/>
      <point x="643" y="1820"/>
      <point x="591" y="1802"/>
    </contour>
  </outline>
</glyph>
<glyph name="dotaccent" format="1">
  <advance width="572"/>
  <unicode hex="02D9"/>
  <outline>
    <contour>
      <point x="107" y="1592" type="line"/>
      <point x="107" y="1890" type="line"/>
      <point x="465" y="1890" type="line"/>
      <point x="465" y="1592" type="line"/>
    </contour>
  </outline>
</glyph>
<glyph name="ring" format="1">
  <advance width="923"/>
  <unicode hex="02DA"/>
  <outline>
    <contour>
      <point x="461" y="170" type="curve" smooth="yes"/>
      <point x="290" y="170"/>
      <point x="179" y="280"/>
      <point x="179" y="450" type="curve" smooth="yes"/>
      <point x="179" y="619"/>
      <point x="290" y="730"/>
      <point x="461" y="730" type="curve" smooth="yes"/>
      <point x="632" y="730"/>
      <point x="744" y="619"/>
      <point x="744" y="450" type="curve" smooth="yes"/>
      <point x="744" y="281"/>
      <point x="632" y="170"/>
    </contour>
    <contour>
      <point x="462.269" y="297.907" type="curve" smooth="yes"/>
      <point x="552.234" y="297.907"/>
      <point x="597.426" y="374.038"/>
      <point x="597.426" y="450.127" type="curve" smooth="yes"/>
      <point x="597.426" y="526.131"/>
      <point x="552.334" y="602.093"/>
      <point x="461.731" y="602.093" type="curve" smooth="yes"/>
      <point x="371.766" y="602.093"/>
      <point x="326.574" y="525.962"/>
      <point x="326.574" y="449.873" type="curve" smooth="yes"/>
      <point x="326.574" y="373.869"/>
      <point x="371.666" y="297.907"/>
    </contour>
  </outline>
</glyph>
<glyph name="tilde" format="1">
  <advance width="1117"/>
  <unicode hex="02DC"/>
  <outline>
    <contour>
      <point x="721" y="1483" type="curve" smooth="yes"/>
      <point x="633" y="1483"/>
      <point x="505" y="1565"/>
      <point x="422" y="1565" type="curve" smooth="yes"/>
      <point x="414" y="1565"/>
      <point x="406" y="1565"/>
      <point x="399" y="1563" type="curve" smooth="yes"/>
      <point x="377" y="1558"/>
      <point x="366" y="1539"/>
      <point x="348" y="1504" type="curve"/>
      <point x="189" y="1561" type="line"/>
      <point x="228" y="1696"/>
      <point x="293" y="1779"/>
      <point x="401" y="1779" type="curve" smooth="yes"/>
      <point x="482" y="1779"/>
      <point x="645" y="1705"/>
      <point x="695" y="1705" type="curve" smooth="yes"/>
      <point x="699" y="1705" type="line"/>
      <point x="718" y="1708"/>
      <point x="734" y="1716"/>
      <point x="755" y="1776" type="curve"/>
      <point x="926" y="1748" type="line"/>
      <point x="917" y="1683" type="line" smooth="yes"/>
      <point x="897" y="1540"/>
      <point x="829" y="1483"/>
    </contour>
  </outline>
</glyph>
<glyph name="hungarumlaut" format="1">
  <advance width="1300"/>
  <unicode hex="02DD"/>
  <outline>
    <contour>
      <point x="765" y="1232" type="line"/>
      <point x="1105" y="1662" type="line"/>
      <point x="860" y="1773" type="line"/>
      <point x="619" y="1294" type="line"/>
    </contour>
    <contour>
      <point x="363" y="1232" type="line"/>
      <point x="642" y="1662" type="line"/>
      <point x="401" y="1773" type="line"/>
      <point x="217" y="1294" type="line"/>
    </contour>
  </outline>
</glyph>
<glyph name="uni0307" format="1">
  <advance width="572"/>
  <unicode hex="0307"/>
  <outline>
    <contour>
      <point x="107" y="1592" type="line"/>
      <point x="465" y="1592" type="line"/>
      <point x="465" y="1890" type="line"/>
      <point x="107" y="1890" type="line"/>
    </contour>
  </outline>
</glyph>
<glyph name="uni030F" format="1">
  <advance width="825"/>
  <unicode hex="030F"/>
  <outline>
    <contour>
      <point x="232" y="1773" type="line"/>
      <point x="-2" y="1665" type="line"/>
      <point x="287" y="1236" type="line"/>
      <point x="453" y="1294" type="line"/>
    </contour>
    <contour>
      <point x="641" y="1773" type="line"/>
      <point x="411" y="1665" type="line"/>
      <point x="659" y="1236" type="line"/>
      <point x="825" y="1294" type="line"/>
    </contour>
  </outline>
</glyph>
<glyph name="uni0311" format="1">
  <advance width="1016"/>
  <unicode hex="0311"/>
  <outline>
    <contour>
      <point x="155" y="1612" type="line"/>
      <point x="373" y="1612" type="line"/>
      <point x="373" y="1737"/>
      <point x="425" y="1755"/>
      <point x="508" y="1755" type="curve" smooth="yes"/>
      <point x="591" y="1755"/>
      <point x="643" y="1737"/>
      <point x="643" y="1612" type="curve"/>
      <point x="861" y="1612" type="line"/>
      <point x="861" y="1627" type="line" smooth="yes"/>
      <point x="861" y="1844"/>
      <point x="744" y="1945"/>
      <point x="510" y="1945" type="curve" smooth="yes"/>
      <point x="270" y="1945"/>
      <point x="155" y="1848"/>
      <point x="155" y="1625" type="curve" smooth="yes"/>
    </contour>
  </outline>
</glyph>
<glyph name="uni1E03" format="1">
  <advance width="1093"/>
  <unicode hex="1E03"/>
  <outline>
    <contour>
      <point x="512" y="41"/>
      <point x="582" y="-18"/>
      <point x="679" y="-18" type="curve" smooth="yes"/>
      <point x="903" y="-18"/>
      <point x="995" y="160"/>
      <point x="995" y="391" type="curve" smooth="yes"/>
      <point x="995" y="1114" type="line" smooth="yes"/>
      <point x="995" y="1360"/>
      <point x="912" y="1519"/>
      <point x="668" y="1519" type="curve" smooth="yes"/>
      <point x="595" y="1519"/>
      <point x="528" y="1488"/>
      <point x="468" y="1427" type="curve"/>
      <point x="468" y="1769" type="line"/>
      <point x="112" y="1769" type="line"/>
      <point x="112" y="0" type="line"/>
      <point x="468" y="0" type="line"/>
      <point x="468" y="160" type="line"/>
    </contour>
    <contour>
      <point x="639" y="347"/>
      <point x="641" y="263"/>
      <point x="562" y="263" type="curve" smooth="yes"/>
      <point x="479" y="263"/>
      <point x="468" y="349"/>
      <point x="468" y="457" type="curve" smooth="yes"/>
      <point x="468" y="1085" type="line" smooth="yes"/>
      <point x="468" y="1175"/>
      <point x="488" y="1239"/>
      <point x="560" y="1239" type="curve" smooth="yes"/>
      <point x="630" y="1239"/>
      <point x="639" y="1171"/>
      <point x="639" y="1081" type="curve" smooth="yes"/>
      <point x="639" y="457" type="line" smooth="yes"/>
    </contour>
    <contour>
      <point x="374.5" y="1932" type="line"/>
      <point x="732.5" y="1932" type="line"/>
      <point x="732.5" y="2230" type="line"/>
      <point x="374.5" y="2230" type="line"/>
    </contour>
  </outline>
</glyph>
<glyph name="uni1E1E" format="1">
  <advance width="886"/>
  <unicode hex="1E1E"/>
  <outline>
    <contour>
      <point x="296" y="1944" type="line"/>
      <point x="654" y="1944" type="line"/>
      <point x="654" y="2242" type="line"/>
      <point x="296" y="2242" type="line"/>
    </contour>
    <contour>
      <point x="482" y="778" type="line"/>
      <point x="786" y="778" type="line"/>
      <point x="786" y="1101" type="line"/>
      <point x="482" y="1101" type="line"/>
      <point x="482" y="1436" type="line"/>
      <point x="828" y="1436" type="line"/>
      <point x="828" y="1761" type="line"/>
      <point x="122" y="1761" type="line"/>
      <point x="122" y="0" type="line"/>
      <point x="482" y="0" type="line"/>
    </contour>
  </outline>
</glyph>
<glyph name="uni1E40" format="1">
  <advance width="1616"/>
  <unicode hex="1E40"/>
  <outline>
    <contour>
      <point x="629" y="1944" type="line"/>
      <point x="987" y="1944" type="line"/>
      <point x="987" y="2242" type="line"/>
      <point x="629" y="2242" type="line"/>
    </contour>
    <contour>
      <point x="1172" y="0" type="line"/>
      <point x="1494" y="0" type="line"/>
      <point x="1494" y="1761" type="line"/>
      <point x="953" y="1761" type="line"/>
      <point x="806" y="687" type="line"/>
      <point x="658" y="1761" type="line"/>
      <point x="122" y="1761" type="line"/>
      <point x="122" y="0" type="line"/>
      <point x="440" y="0" type="line"/>
      <point x="440" y="1268" type="line"/>
      <point x="654" y="0" type="line"/>
      <point x="970" y="0" type="line"/>
      <point x="1172" y="1268" type="line"/>
    </contour>
  </outline>
</glyph>
<glyph name="uni1E6A" format="1">
  <advance width="834"/>
  <unicode hex="1E6A"/>
  <outline>
    <contour>
      <point x="237" y="0" type="line"/>
      <point x="597" y="0" type="line"/>
      <point x="597" y="1439" type="line"/>
      <point x="802" y="1439" type="line"/>
      <point x="802" y="1761" type="line"/>
      <point x="32" y="1761" type="line"/>
      <point x="32" y="1439" type="line"/>
      <point x="237" y="1439" type="line"/>
    </contour>
    <contour>
      <point x="238" y="1944" type="line"/>
      <point x="596" y="1944" type="line"/>
      <point x="596" y="2242" type="line"/>
      <point x="238" y="2242" type="line"/>
    </contour>
  </outline>
</glyph>
<glyph name="uni1E6B" format="1">
  <advance width="688"/>
  <unicode hex="1E6B"/>
  <outline>
    <contour>
      <point x="149" y="71"/>
      <point x="202" y="-9"/>
      <point x="395" y="-9" type="curve" smooth="yes"/>
      <point x="482" y="-9"/>
      <point x="595" y="-3"/>
      <point x="619" y="0" type="curve"/>
      <point x="619" y="252" type="line"/>
      <point x="611" y="251"/>
      <point x="599" y="250"/>
      <point x="586" y="250" type="curve" smooth="yes"/>
      <point x="548" y="250"/>
      <point x="497" y="261"/>
      <point x="497" y="328" type="curve" smooth="yes"/>
      <point x="497" y="1190" type="line"/>
      <point x="619" y="1190" type="line"/>
      <point x="619" y="1440" type="line"/>
      <point x="497" y="1440" type="line"/>
      <point x="497" y="1761" type="line"/>
      <point x="149" y="1761" type="line"/>
      <point x="149" y="1440" type="line"/>
      <point x="48" y="1440" type="line"/>
      <point x="48" y="1190" type="line"/>
      <point x="149" y="1190" type="line"/>
      <point x="149" y="240" type="line" smooth="yes"/>
    </contour>
    <contour>
      <point x="154.5" y="1924" type="line"/>
      <point x="512.5" y="1924" type="line"/>
      <point x="512.5" y="2222" type="line"/>
      <point x="154.5" y="2222" type="line"/>
    </contour>
  </outline>
</glyph>
<glyph name="Wgrave" format="1">
  <advance width="1432"/>
  <unicode hex="1E80"/>
  <outline>
    <contour>
      <point x="243.0" y="0" type="line"/>
      <point x="612.0" y="0" type="line"/>
      <point x="716.0" y="977" type="line"/>
      <point x="824.0" y="0" type="line"/>
      <point x="1186.0" y="0" type="line"/>
      <point x="1378.0" y="1761" type="line"/>
      <point x="1060.0" y="1761" type="line"/>
      <point x="966.0" y="649" type="line"/>
      <point x="862.0" y="1761" type="line"/>
      <point x="574.0" y="1761" type="line"/>
      <point x="465.0" y="649" type="line"/>
      <point x="368.0" y="1761" type="line"/>
      <point x="54.0" y="1761" type="line"/>
    </contour>
    <contour>
      <point x="953.5" y="1944" type="line"/>
      <point x="953.5" y="2167" type="line"/>
      <point x="478.5" y="2385" type="line"/>
      <point x="478.5" y="2038" type="line"/>
    </contour>
  </outline>
</glyph>
<glyph name="Wgrave" format="1">
  <advance width="1432"/>
  <unicode hex="1E80"/>
  <outline>
    <contour>
      <point x="243" y="0" type="line"/>
      <point x="612" y="0" type="line"/>
      <point x="716" y="977" type="line"/>
      <point x="824" y="0" type="line"/>
      <point x="1186" y="0" type="line"/>
      <point x="1378" y="1761" type="line"/>
      <point x="1060" y="1761" type="line"/>
      <point x="966" y="649" type="line"/>
      <point x="862" y="1761" type="line"/>
      <point x="574" y="1761" type="line"/>
      <point x="465" y="649" type="line"/>
      <point x="368" y="1761" type="line"/>
      <point x="54" y="1761" type="line"/>
    </contour>
    <contour>
      <point x="953.5" y="1944" type="line"/>
      <point x="953.5" y="2167" type="line"/>
      <point x="478.5" y="2385" type="line"/>
      <point x="478.5" y="2038" type="line"/>
    </contour>
  </outline>
</glyph>
